<?xml version="1.0" encoding="UTF-8"?><svg id="a" xmlns="http://www.w3.org/2000/svg" viewBox="0 0 32 32"><path d="M18.451,4.845l12.548,6.155-1,2-5.983-2.372c.983,1.372.983,2.504.983,3.872,0,5.505-4.4,10.015-9.748,10.463l-.696.744-.801-.726c-5.445-.325-9.755-4.89-9.755-10.482,0-5.803,4.642-10.5,10.376-10.5,1.441,0,2.823.302,4.075.845Z" fill="#aeddff"/><path d="M14.505,24c5.248,0,9.495-4.483,9.495-10H5c0,5.517,4.257,10,9.505,10Z" fill="#00d26a"/><path d="M10.001,17c.552,0,1-.448,1-1s-.448-1-1-1-1,.448-1,1,.448,1,1,1Z" fill="#d3f093"/><path d="M14.001,18c.552,0,1-.448,1-1s-.448-1-1-1-1,.448-1,1,.448,1,1,1Z" fill="#d3f093"/><path d="M13.001,22c0,.552-.448,1-1,1s-1-.448-1-1,.448-1,1-1,1,.448,1,1Z" fill="#d3f093"/><path d="M19.293,10.293c.39-.391,1.024-.391,1.414,0,1.021,1.021,1.414,2.714,1.479,4.226.067,1.549-.194,3.231-.792,4.428-.247.494-.848.694-1.342.447-.494-.247-.694-.848-.447-1.342.402-.803.64-2.121.583-3.447-.059-1.363-.416-2.42-.896-2.899-.391-.391-.391-1.024,0-1.414Z" fill="#fff"/><path d="M4,18.75c0-.414.336-.75.75-.75h19.5c.414,0,.75.336.75.75s-.336.75-.75.75h-4.456l6.062,8.308c.244.335.171.804-.164,1.048-.335.244-.804.171-1.048-.164l-6.708-9.192h-6.873l-6.708,9.192c-.244.335-.713.408-1.048.164-.335-.244-.408-.713-.164-1.048l6.063-8.308h-4.457c-.414,0-.75-.336-.75-.75Z" fill="#635994"/><path d="M13.75,28.25v-3.269c.207.013.416.019.626.019.294,0,.585-.012.874-.037v3.287c0,.414-.336.75-.75.75s-.75-.336-.75-.75Z" fill="#635994"/></svg>