<?xml version="1.0" encoding="UTF-8"?><svg id="a" xmlns="http://www.w3.org/2000/svg" viewBox="0 0 32 32"><path d="M15.999,29.998c9.334,0,13.999-6.267,13.999-13.999S25.333,2,15.999,2,2,8.268,2,15.999s4.664,13.999,13.999,13.999Z" fill="#ffb02e"/><path d="M10.5,21c2.485,0,4.5-2.015,4.5-4.5s-2.015-4.5-4.5-4.5-4.5,2.015-4.5,4.5,2.015,4.5,4.5,4.5Z" fill="#fff"/><path d="M21.5,21c2.485,0,4.5-2.015,4.5-4.5s-2.015-4.5-4.5-4.5-4.5,2.015-4.5,4.5,2.015,4.5,4.5,4.5Z" fill="#fff"/><path d="M14.29,12.501c.414.022.731.375.709.789-.022.414-.375.731-.789.709-1.017-.054-1.989-.304-2.817-.88-.835-.582-1.46-1.451-1.855-2.631-.131-.393.081-.818.473-.949.393-.131.818.081.949.473.31.928.762,1.509,1.289,1.876.534.372,1.21.569,2.04.613Z" fill="#402a32"/><path d="M17.71,12.501c-.414.022-.731.375-.709.789.022.414.375.731.789.709,1.017-.054,1.989-.304,2.817-.88.835-.582,1.46-1.451,1.854-2.631.131-.393-.081-.818-.473-.949-.393-.131-.818.081-.949.473-.31.928-.762,1.509-1.289,1.876-.534.372-1.21.569-2.04.613Z" fill="#402a32"/><path d="M16,24c-2.005,0-2.934,1.104-3.106,1.447-.247.494-.848.694-1.342.447-.494-.247-.694-.848-.447-1.342.495-.99,2.099-2.553,4.894-2.553s4.399,1.562,4.894,2.553c.247.494.047,1.095-.447,1.342-.494.247-1.095.047-1.342-.447-.171-.343-1.101-1.447-3.105-1.447Z" fill="#402a32"/><path d="M14,17c0,1.104-.895,2-2,2s-2-.896-2-2,.895-2,2-2,2,.895,2,2Z" fill="#402a32"/><path d="M22,17c0,1.104-.895,2-2,2s-2-.896-2-2,.895-2,2-2,2,.895,2,2Z" fill="#402a32"/></svg>