<?xml version="1.0" encoding="UTF-8"?><svg id="a" xmlns="http://www.w3.org/2000/svg" viewBox="0 0 32 32"><path d="M24.64,8.5h-9.66c-1.06.04-2.04.61-2.63,1.49l-.35.51-1.434,2.985-2.586,3.015h-3.1c-1.29,0-2.38.84-2.75,2l.266,1.5-.396,1.5v1l14,1,14-1-.01-1-.499-1.615.499-1.385.01-.49c0-.51-.05-1.02-.14-1.51l-1.315-2.789s-.765-3.111-.785-3.171c-.54-1.23-1.76-2.04-3.12-2.04Z" fill="#f8312f"/><path d="M28.61,24.5H3.39c-.77,0-1.39-.62-1.39-1.39v-.61h28v.61c0,.77-.62,1.39-1.39,1.39Z" fill="#9b9b9b"/><path d="M12,10.5l-4.01,6h7.04c.53,0,.96-.43.96-.96v-4.08c0-.53-.43-.96-.96-.96h-3.03ZM23.01,16.5h-4.04c-.53,0-.96-.43-.96-.96v-4.08c0-.53.43-.96.96-.96h4.04c.53,0,.96.43.96.96v4.08c0,.53-.43.96-.96.96ZM27.83,10.71l1.64,4.37c.17.46.3.94.38,1.42h-2.91c-.53,0-.96-.43-.96-.96v-4c0-.57.47-1.04,1.04-1.04h.72s.07.15.09.21Z" fill="#26c9fc"/><path d="M3.99,20.5v-1c0-.55-.45-1-1-1h-.85c-.1.29-.14.6-.14,1.27v1.73h.99c.55,0,1-.45,1-1Z" fill="#e6e6e6"/><path d="M12.02,24c0,1.933-1.567,3.5-3.5,3.5s-3.5-1.567-3.5-3.5,1.567-3.5,3.5-3.5,3.5,1.567,3.5,3.5ZM27,24c0,1.933-1.567,3.5-3.5,3.5s-3.5-1.567-3.5-3.5,1.567-3.5,3.5-3.5,3.5,1.567,3.5,3.5Z" fill="#321b41"/><path d="M10,24c0,.828-.672,1.5-1.5,1.5s-1.5-.672-1.5-1.5.672-1.5,1.5-1.5,1.5.672,1.5,1.5ZM25,24c0,.828-.672,1.5-1.5,1.5s-1.5-.672-1.5-1.5.672-1.5,1.5-1.5,1.5.672,1.5,1.5Z" fill="#e6e6e6"/><path d="M29.99,18.5h-.5c-.85,0-1.54.71-1.5,1.57.04.81.74,1.43,1.55,1.43h.45v-3Z" fill="#ca0b4a"/><path d="M11.13,17.5h.39c.27,0,.48-.22.48-.48v-2.04c0-.27-.22-.48-.48-.48h-.39c-.62,0-1.13.51-1.13,1.13v.74c0,.62.51,1.13,1.13,1.13Z" fill="#321b41"/></svg>