<?xml version="1.0" encoding="UTF-8"?><svg id="a" xmlns="http://www.w3.org/2000/svg" viewBox="0 0 32 32"><path d="M15.553,4.144c-.064-.099-.068-.289-.18-.401l1.45-1.44c.48-.48,1.29-.38,1.63.21.469.802.575,1.546.655,2.102l.005.038.002.014c.079.6.111.849.518,1.256.41.4.66.44,1.27.52l.017.002c.78.11,1.962.276,3.153,1.468,1.195,1.195,1.359,2.37,1.469,3.16v.01s.003.014.003.014c.079.6.111.849.518,1.256.41.4.66.44,1.27.52.56.07,1.32.18,2.14.66.58.35.69,1.15.21,1.63l-1.45,1.44c-.167-.163-.388-.177-.538-.247l-2.111,2.153c.129.107.169.314.299.444l-.84.84c-.7.7-1.69,1.03-2.67.9h-.02l-.017-.002c-.78-.11-1.962-.276-3.153-1.468-1.195-1.195-1.359-2.37-1.469-3.16v-.01s-.003-.014-.003-.014c-.079-.6-.111-.849-.518-1.256-.41-.4-.66-.44-1.27-.52l-.017-.002c-.78-.11-1.961-.277-3.152-1.468-1.191-1.191-1.358-2.372-1.468-3.152l-.002-.017v-.02c-.13-.98.19-1.96.89-2.66l.85-.85c.125.125.328.159.432.283l2.098-2.232Z" fill="#ca0b4a"/><path d="M6.363,13.497c-.069-.127-.086-.33-.229-.474l1.45-1.45c.48-.48,1.28-.37,1.63.21.469.802.575,1.546.655,2.102l.005.038.003.021c.078.595.112.854.517,1.25.41.4.66.44,1.27.52l.017.003c.78.11,1.962.276,3.153,1.468,1.195,1.195,1.359,2.37,1.469,3.16v.01s.003.014.003.014c.079.6.111.849.518,1.256.41.4.66.44,1.27.52.56.07,1.32.18,2.14.66.58.35.69,1.15.21,1.63l-1.45,1.45c-.135-.132-.333-.145-.453-.213l-2.131,2.174c.108.092.126.282.234.39l-.84.84c-.7.7-1.69,1.03-2.67.9h-.02l-.017-.002c-.78-.11-1.962-.277-3.153-1.468-1.195-1.195-1.359-2.37-1.469-3.16v-.01s-.003-.014-.003-.014c-.079-.6-.111-.849-.518-1.256-.41-.4-.66-.44-1.27-.52l-.017-.002c-.78-.11-1.961-.277-3.153-1.468-1.191-1.191-1.358-2.372-1.468-3.153l-.002-.017v-.02c-.13-.98.19-1.96.89-2.66l.85-.85c.147.147.369.204.487.35l2.093-2.226Z" fill="#ca0b4a"/><path d="M18.166,12.001c-.78-.11-1.961-.276-3.153-1.468-1.195-1.195-1.359-2.37-1.469-3.16v-.01s-.003-.014-.003-.014c-.079-.6-.111-.849-.518-1.256l2.35-2.35c1.195,1.195,1.359,2.37,1.469,3.16v.01s.003.014.003.014c.079.6.111.849.518,1.256.41.4.66.44,1.27.52l.017.002c.78.11,1.961.276,3.153,1.468,1.195,1.195,1.359,2.37,1.469,3.16v.01s.003.014.003.014c.079.6.111.849.518,1.256.41.4.66.44,1.27.52l.017.003c.78.11,1.961.276,3.153,1.468l-2.35,2.35c-.41-.4-.66-.44-1.27-.52l-.018-.002c-.78-.11-1.961-.276-3.152-1.468-1.195-1.195-1.359-2.37-1.469-3.16v-.01s-.003-.014-.003-.014c-.079-.6-.111-.849-.518-1.256-.41-.4-.66-.44-1.27-.52l-.017-.002Z" fill="#ffdea7"/><path d="M8.926,21.281c-.78-.11-1.961-.277-3.153-1.468-1.191-1.191-1.358-2.372-1.468-3.153l-.002-.017-.002-.014c-.079-.6-.111-.849-.518-1.256l2.35-2.35c1.195,1.195,1.359,2.37,1.469,3.16v.01s.003.014.003.014c.079.6.111.849.518,1.256.41.4.66.44,1.27.52l.017.003c.78.11,1.961.276,3.153,1.467,1.195,1.195,1.359,2.37,1.469,3.16v.01s.003.014.003.014c.079.6.111.849.518,1.256.41.4.66.44,1.27.52l.017.003c.78.11,1.961.276,3.153,1.467l-2.35,2.35c-.41-.4-.66-.44-1.27-.52l-.017-.002c-.78-.11-1.961-.277-3.153-1.468-1.195-1.195-1.359-2.37-1.469-3.16v-.01s-.003-.014-.003-.014c-.079-.6-.111-.849-.518-1.256-.41-.4-.66-.44-1.27-.52l-.017-.002Z" fill="#ffdea7"/></svg>