<?xml version="1.0" encoding="UTF-8"?><svg id="a" xmlns="http://www.w3.org/2000/svg" viewBox="0 0 32 32"><path d="M19.95,11.75h4.02c.42,0,.75-.34.75-.75s-.34-.75-.75-.75h-4.02c-.38,0-.73-.18-.95-.48l-2.37-3.25c-.171-.225-.444-.329-.705-.296-.226.006-.445.113-.585.306l-2.37,3.24c-.22.3-.58.48-.95.48h-4.02c-.41,0-.75.34-.75.75s.34.75.75.75h4.02c.85,0,1.66-.41,2.16-1.09l1.809-2.473,1.801,2.463c.5.69,1.31,1.1,2.16,1.1Z" fill="#9b9b9b"/><path d="M15.25,4h1.5v24h-1.5V4ZM13.04,20.73c.09.15.26.23.42.23.09,0,.18-.02.24-.08.23-.15.3-.46.15-.69l-5.372-8.338c-.062-.206-.25-.352-.478-.352-.161,0-.45.27-.45.27l-5.39,8.38c-.07.08-.11.19-.11.31,0,.28.22.5.5.5.17,0,.33-.09.42-.23l4.53-7.034v7.104c0,.28.22.5.5.5s.5-.22.5-.5v-7.105l4.54,7.035ZM29.04,20.73c.09.15.26.23.42.23.09,0,.18-.02.24-.08.23-.15.3-.46.15-.69l-5.372-8.338c-.062-.206-.25-.352-.478-.352-.161,0-.359.155-.45.27l-5.39,8.38c-.07.08-.11.19-.11.31,0,.28.22.5.5.5.17,0,.33-.09.42-.23l4.53-7.034v7.104c0,.28.22.5.5.5s.5-.22.5-.5v-7.105l4.54,7.035Z" fill="#d3d3d3"/><path d="M17.59,3.59c0,.878-.712,1.59-1.59,1.59s-1.59-.712-1.59-1.59.712-1.59,1.59-1.59,1.59.712,1.59,1.59Z" fill="#f9c23c"/><path d="M9.59,11c0,.878-.712,1.59-1.59,1.59s-1.59-.712-1.59-1.59.712-1.59,1.59-1.59,1.59.712,1.59,1.59Z" fill="#f9c23c"/><path d="M2.02,20.64c-.09-.32.15-.64.49-.64h10.98c.34,0,.58.32.49.64-.74,2.56-3.13,4.36-5.98,4.36s-5.24-1.8-5.98-4.36Z" fill="#f9c23c"/><path d="M18.02,20.64c-.09-.32.15-.64.49-.64h10.98c.34,0,.58.32.49.64-.74,2.56-3.13,4.36-5.98,4.36s-5.24-1.8-5.98-4.36Z" fill="#f9c23c"/><path d="M23.4,30c.48,0,.71-.58.36-.91-2.02-1.92-4.75-3.09-7.76-3.09s-5.74,1.17-7.76,3.09c-.35.33-.12.91.36.91h14.8Z" fill="#f9c23c"/><path d="M24,12.59c.878,0,1.59-.712,1.59-1.59s-.712-1.59-1.59-1.59-1.59.712-1.59,1.59.712,1.59,1.59,1.59Z" fill="#f9c23c"/></svg>