<?xml version="1.0" encoding="UTF-8"?><svg id="a" xmlns="http://www.w3.org/2000/svg" viewBox="0 0 32 32"><path d="M18.818,9.173l7.295-7.384c.013-.013.029-.031.047-.052.091-.105.237-.274.392-.188.232.127.165.372.069.533-.868,1.455-.914,4.876,2.417,5.533.144.033.276.276.056.497-1.05,1.05-2.972,4.475.265,7.071.114.063.245.232-.144.409-.029.013-.07.03-.121.05-.787.318-4,1.638-2.9,6.704l-6.249-6.368c.674-.608,1.397-2.603-1.105-5.723-.491-.613-.022-1.082-.022-1.082Z" fill="#a56953"/><path d="M9.173,18.818l-7.384,7.295c-.013.013-.031.029-.052.047-.105.091-.274.237-.188.392.127.232.372.165.533.069,1.455-.868,4.876-.914,5.533,2.417.033.144.276.276.497.056,1.05-1.05,4.475-2.972,7.071.265.063.114.232.245.409-.144.013-.029.03-.07.05-.121.318-.787,1.59-3.93,6.656-2.829l-6.32-6.32c-.608.674-2.603,1.397-5.723-1.105-.613-.491-1.082-.022-1.082-.022Z" fill="#a56953"/><path d="M21.981,17.661c-.083-.7-.404-1.421-1.076-2.092l-4-4c-.321-.321-.652-.188-.508.508l.309,2.806c-.42.346-1.363,1.187-1.779,1.779l-2.884-.232c-.718-.077-.862.243-.552.552.104.104.312.309.585.577.916.9,2.558,2.515,3.414,3.422.413.413,1.187.896,2.121,1.023.535.604,1.374,1.5,2.629,2.756,2.993,2.993,4.545,1.566,5.397.783.028-.026.056-.052.083-.076,1.624-1.624.552-3.469-1.005-5.182-.809-.889-1.889-1.894-2.736-2.626Z" fill="#6d4534"/><path d="M18.497,20.298c-.448-.447-.42-1.558-.127-1.851.376-.376,1.569-.265,1.906.072.215.215.243.53-.53,1.304s-1.094.63-1.248.475Z" fill="#ff8687"/><path d="M18.932,17.588c.276,0,.5-.224.5-.5s-.224-.5-.5-.5-.5.224-.5.5.224.5.5.5Z" fill="#1c1c1c"/><path d="M16.932,19.588c.276,0,.5-.224.5-.5s-.224-.5-.5-.5-.5.224-.5.5.224.5.5.5Z" fill="#1c1c1c"/></svg>