<?xml version="1.0" encoding="UTF-8"?><svg id="a" xmlns="http://www.w3.org/2000/svg" viewBox="0 0 32 32"><path d="M14.581,10.341l4.938,2.15,2.134,4.921-3.258,6.515c-.628,1.255-1.753,2.189-3.103,2.573l-11.611,3.306c-.42.12-.872.002-1.18-.306-.309-.309-.426-.76-.307-1.18l3.3-11.616c.384-1.351,1.318-2.478,2.574-3.106l6.514-3.257Z" fill="#d3d3d3"/><path d="M18.121,2.565c.781-.781,2.047-.781,2.828,0l8.485,8.485c.781.781.781,2.047,0,2.828l-3.535,3.536-6.902-4.497-4.411-6.817,3.535-3.536Z" fill="#433b6b"/><path d="M14.586,6.101l11.314,11.314c-1.172,1.172-3.071,1.172-4.243,0l-7.071-7.071c-1.172-1.172-1.172-3.071,0-4.243Z" fill="#ffb02e"/><path d="M11.171,22.243c1.115.533,2.491.337,3.415-.586,1.172-1.172,1.172-3.071,0-4.243-1.172-1.172-3.071-1.172-4.243,0-.924.924-1.119,2.3-.586,3.415l-7.321,7.321c-.391.391-.391,1.024,0,1.414.391.39,1.024.39,1.414,0l7.321-7.321Z" fill="#635994"/></svg>