<?xml version="1.0" encoding="UTF-8"?><svg id="a" xmlns="http://www.w3.org/2000/svg" viewBox="0 0 32 32"><path d="M9.145,9.973l2.109-3.218-.548-4.127-.997-.12-1.741,3.339.218,3.826.958.301Z" fill="#d3883e"/><path d="M13.936,11.477l2.941.924c1.301.41,2.311,1.421,2.721,2.722l.923,2.941,4.61.346,3.63-2.097-.429-3.531c-.58-4.783-4.342-8.546-9.114-9.126l-3.529-.426-1.575,4.009-.178,4.24Z" fill="#d3883e"/><path d="M29.366,21.296l-3.886-.142-3.454,1.702.301.958h3.752l3.408-1.522-.121-.997Z" fill="#d3883e"/><path d="M29.85,25.282l-3.501-.108-3.12,1.515.311.992c.74,2.372,3.742,3.102,5.492,1.351.72-.72,1.07-1.731.94-2.732l-.124-1.018Z" fill="#d3883e"/><path d="M5.311,8.769l-.989-.311c-2.371-.741-3.111-3.733-1.351-5.494.72-.72,1.731-1.061,2.731-.941l1.016.123-.2,3.487-1.207,3.135Z" fill="#d3883e"/><path d="M6.719,2.146l-1.408,6.622,2.875.903,1.523-7.164-2.99-.361Z" fill="#f9c23c"/><path d="M22.327,23.814l7.16-1.522.363,2.99-6.621,1.407-.902-2.875Z" fill="#f9c23c"/><path d="M10.706,2.627l-1.561,7.345,4.792,1.505,1.753-8.248-4.984-.601Z" fill="#ca0b4a"/><path d="M20.522,18.064l8.239-1.751.605,4.983-7.34,1.56-1.504-4.792Z" fill="#ca0b4a"/></svg>