<?xml version="1.0" encoding="UTF-8"?><svg id="a" xmlns="http://www.w3.org/2000/svg" viewBox="0 0 32 32"><path d="M15.84,21.93c.06.045.117.092.173.141.057-.049.116-.096.177-.141,1.856-1.292,4.063-1.985,6.325-1.985s4.469.693,6.325,1.985c.365.275.66.632.862,1.042.201.41.304.862.298,1.319v3.71H2v-3.68c-.005-.464.1-.923.307-1.338.207-.416.51-.776.883-1.052,1.856-1.292,4.063-1.985,6.325-1.985s4.469.693,6.325,1.985Z" fill="#321b41"/><path d="M10.67,5.93h-2.3c-.609-.004-1.212.122-1.768.372-.556.25-1.051.616-1.453,1.074-.401.458-.699.998-.873,1.582-.174.584-.22,1.198-.136,1.802l.067,1.022c-.815.131-1.437.837-1.437,1.688,0,.928.739,1.683,1.661,1.709l.099,1.501c.128.971.604,1.863,1.34,2.51.52.457,1.144.77,1.811.916v.933c0,.48.191.94.53,1.28.339.339.8.53,1.28.53s.94-.191,1.28-.53c.339-.339.53-.8.53-1.28v-.923c.686-.141,1.328-.458,1.86-.927.735-.647,1.211-1.539,1.34-2.51l.094-1.503c.6-.032,1.117-.374,1.396-.868.286.506.822.852,1.441.87l.099,1.501c.128.971.604,1.863,1.34,2.51.52.457,1.144.77,1.811.916v.933c0,.48.191.94.53,1.28.34.339.8.53,1.28.53s.94-.191,1.28-.53c.34-.339.53-.8.53-1.28v-.923c.686-.141,1.328-.458,1.86-.927.736-.647,1.211-1.539,1.34-2.51l.094-1.503c.901-.049,1.616-.795,1.616-1.707,0-.84-.606-1.539-1.404-1.683l.064-1.027c.081-.6.033-1.211-.14-1.791-.174-.58-.469-1.117-.867-1.574-.398-.457-.888-.824-1.438-1.077-.551-.253-1.149-.385-1.754-.388h-2.3c-.609-.004-1.212.122-1.768.372-.556.25-1.051.616-1.453,1.074-.401.458-.699.998-.873,1.582-.174.584-.22,1.198-.136,1.802l.067,1.022c-.523.084-.966.405-1.217.849-.245-.435-.676-.751-1.184-.843l.064-1.027c.081-.6.033-1.211-.141-1.791-.174-.58-.469-1.117-.867-1.574-.398-.457-.888-.824-1.438-1.077-.551-.253-1.149-.385-1.755-.388Z" fill="#533566"/></svg>