<?xml version="1.0" encoding="UTF-8"?><svg id="a" xmlns="http://www.w3.org/2000/svg" viewBox="0 0 32 32"><path d="M21.5,11c-.276,0-.5.224-.5.5v1.5h6v-1.5c0-.276-.224-.5-.5-.5h-5Z" fill="#d3d3d3"/><path d="M2,14c0-1.105.895-2,2-2h24c1.105,0,2,.895,2,2v2.5l-2,5.5,2,5.5v.5c0,1.105-.895,2-2,2H4c-1.105,0-2-.895-2-2v-.5l2.5-5.5-2.5-5.5v-2.5Z" fill="#e6e6e6"/><path d="M2,16.5c0-.276.224-.5.5-.5h27c.276,0,.5.224.5.5v11c0,.276-.224.5-.5.5H2.5c-.276,0-.5-.224-.5-.5v-11Z" fill="#533566"/><path d="M22,22c0,3.314-2.686,6-6,6s-6-2.686-6-6,2.686-6,6-6,6,2.686,6,6Z" fill="#321b41"/><path d="M16,27c2.761,0,5-2.239,5-5s-2.239-5-5-5-5,2.239-5,5,2.239,5,5,5ZM16,29c-3.866,0-7-3.134-7-7s3.134-7,7-7,7,3.134,7,7-3.134,7-7,7Z" fill="#9b9b9b"/><path d="M18.5,22c0,1.381-1.119,2.5-2.5,2.5s-2.5-1.119-2.5-2.5,1.119-2.5,2.5-2.5,2.5,1.119,2.5,2.5Z" fill="#433b6b"/><path d="M19.083,19.875c.414.717.362,1.523-.116,1.799s-1.202-.082-1.616-.799c-.414-.718-.362-1.523.116-1.799.478-.276,1.202.082,1.616.799Z" fill="#fff"/><path d="M7.195,7.592c.4-.542,1.21-.542,1.61,0l1.439,1.952c.06.081.131.152.212.212l1.952,1.439c.542.4.542,1.21,0,1.61l-1.952,1.439c-.081.06-.152.131-.212.212l-1.439,1.952c-.4.542-1.21.542-1.61,0l-1.439-1.952c-.06-.081-.131-.152-.212-.212l-1.952-1.439c-.542-.4-.542-1.21,0-1.61l1.952-1.439c.081-.06.152-.131.212-.212l1.439-1.952Z" fill="#fcd53f"/></svg>