<?xml version="1.0" encoding="UTF-8"?><svg id="a" xmlns="http://www.w3.org/2000/svg" viewBox="0 0 32 32"><path d="M13,4c0-1.1-.9-2-2-2s-2,.9-2,2c0,.8-.97,1.2-1.54.64l-.05-.05c-.78-.78-2.05-.78-2.83,0-.78.78-.78,2.05,0,2.83l.05.05c.57.56.17,1.53-.63,1.53-1.1,0-2,.9-2,2s.9,2,2,2h9V4Z" fill="#f8312f"/><path d="M19,24.488c-.938.332-1.948.512-3,.512-.824,0-1.621-.111-2.379-.318.904.244,1.826.347,2.739.308-1.16-2.29-.87-5.14.94-7.17,1.27-1.42,3.03-2.15,4.79-2.15.99,0,1.99.23,2.9.69.034-.805-.04-1.61-.221-2.397.151.654.231,1.336.231,2.036,0,1.052-.181,2.062-.512,3l-.26.21h-1.726c-1.93,0-3.268,1.344-3.268,3.274v1.756l-.234.248Z" fill="#fcd53f"/><path d="M24.66,13.54c-.83-.25-1.69-.38-2.57-.38-2.54,0-4.97,1.09-6.66,2.99-.8.9-1.4,1.93-1.79,3.06-.37,1.09-.53,2.23-.46,3.39.04.7.16,1.39.36,2.06-.837-.237-1.625-.593-2.344-1.047-.022-.048-.13-.122-.151-.171-1.437-3.251-.996-7.248,1.515-10.074,1.84-2.07,4.535-3.183,7.105-3.183,1.308,0,2.506.284,3.723.838.039.018.183.17.222.188-.44-.7-.99-1.35-1.63-1.93-.74-.66-1.55-1.17-2.41-1.54-.074,0-.109.06-.183.062-1.552.038-3.047.366-4.479.986-1.58.69-2.96,1.7-4.11,2.99-1.07,1.2-1.87,2.58-2.39,4.09-.387,1.142-.551,2.291-.582,3.497-.002.067-.096.124-.096.192-.47-1.091-.73-2.294-.73-3.557,0-4.971,4.029-9,9-9,4.118,0,7.589,2.765,8.66,6.54Z" fill="#fcd53f"/><path d="M12.69,13.46c1.84-2.07,4.4-3.13,6.97-3.13,1.35,0,2.7.29,3.95.88-.44-.7-.99-1.35-1.63-1.93-.74-.66-1.55-1.17-2.41-1.54-1.63.01-3.21.35-4.71,1-1.58.69-2.96,1.7-4.11,2.99-1.07,1.2-1.87,2.58-2.39,4.09-.41,1.21-.62,2.47-.63,3.75.5,1.17,1.26,2.25,2.28,3.15.38.34.78.64,1.19.9-1.52-3.28-1.06-7.29,1.49-10.16Z" fill="#f8312f"/><path d="M19,28c0,1.1.9,2,2,2s2-.9,2-2c0-.8.97-1.2,1.54-.64l.05.05c.78.78,2.05.78,2.83,0s.78-2.05,0-2.83l-.05-.05c-.57-.56-.17-1.53.63-1.53,1.1,0,2-.9,2-2s-.9-2-2-2h-5.5c-1.93,0-3.5,1.57-3.5,3.5v5.5Z" fill="#f8312f"/><path d="M17.33,17.835c-1.81,2.03-2.13,4.865-.97,7.155-.94.04-1.89-.07-2.82-.33-.2-.67-.389-1.369-.429-2.069-.07-1.16.124-2.372.494-3.462.39-1.13.987-2.1,1.787-3,1.69-1.9,4.158-3.02,6.698-3.02.88,0,1.74.18,2.57.43.26.92.37,1.87.33,2.82-.91-.46-1.91-.655-2.9-.655-1.76,0-3.49.71-4.76,2.13Z" fill="#f8312f"/></svg>