<?xml version="1.0" encoding="UTF-8"?><svg id="a" xmlns="http://www.w3.org/2000/svg" viewBox="0 0 32 32"><path d="M18,4.5c0-.828.672-1.5,1.5-1.5h4c.828,0,1.5.672,1.5,1.5v.5l-3.5.5-3.5-.5v-.5Z" fill="#00d26a"/><path d="M2,8c0-1.657,1.343-3,3-3h22c1.657,0,3,1.343,3,3v4H2v-4Z" fill="#ffb02e"/><path d="M13,8.5c0-.828.672-1.5,1.5-1.5h4c.828,0,1.5.672,1.5,1.5v.5l-3.5,1-3.5-1v-.5Z" fill="#00a6ed"/><path d="M2,12c0-1.657,1.343-3,3-3h22c1.657,0,3,1.343,3,3v5H2v-5Z" fill="#f9c23c"/><path d="M7,12.5c0-.828.672-1.5,1.5-1.5h4c.828,0,1.5.672,1.5,1.5v.5l-3.5,1-3.5-1v-.5Z" fill="#f8312f"/><path d="M2,16c0-1.657,1.343-3,3-3h22c1.657,0,3,1.343,3,3v11c0,1.657-1.343,3-3,3H5c-1.657,0-3-1.343-3-3v-11Z" fill="#fcd53f"/></svg>