<?xml version="1.0" encoding="UTF-8"?><svg id="a" xmlns="http://www.w3.org/2000/svg" viewBox="0 0 32 32"><path d="M5.047,19h13.967l.986,3-.986,3H5.047l-1.047-3,1.047-3Z" fill="#f4f4f4"/><path d="M4,23h17l-2,4H4v-4Z" fill="#d3d3d3"/><path d="M19,23l5.5-2,5.5,2v2.5c0,.828-.672,1.5-1.5,1.5h-9.5v-4Z" fill="#e19747"/><path d="M19,19h9.5c.828,0,1.5.672,1.5,1.5v2.5h-11v-4Z" fill="#f9c23c"/><path d="M21.578,20.99c0,.276-.224.5-.5.5s-.5-.224-.5-.5.224-.5.5-.5.5.224.5.5Z" fill="#feefc2"/><path d="M23.748,23.05c0,.276-.224.5-.5.5s-.5-.224-.5-.5.224-.5.5-.5.5.224.5.5Z" fill="#feefc2"/><path d="M25.408,21.49c.276,0,.5-.224.5-.5s-.224-.5-.5-.5-.5.224-.5.5.224.5.5.5Z" fill="#feefc2"/><path d="M25.908,25.1c0,.276-.224.5-.5.5s-.5-.224-.5-.5.224-.5.5-.5.5.224.5.5Z" fill="#feefc2"/><path d="M21.078,25.6c.276,0,.5-.224.5-.5s-.224-.5-.5-.5-.5.224-.5.5.224.5.5.5Z" fill="#feefc2"/><path d="M28.068,23.05c0,.276-.224.5-.5.5s-.5-.224-.5-.5.224-.5.5-.5.5.224.5.5Z" fill="#feefc2"/><path d="M2,20.5c0-.828.672-1.5,1.5-1.5h2.5l-.75,1c-.444.593-.444,1.407,0,2s.444,1.407,0,2-.444,1.407,0,2l.75,1h-2.5c-.828,0-1.5-.672-1.5-1.5v-5Z" fill="#636363"/><path d="M11.475,4.256c-.392.718-.818,1.498-.556,3.197.055.306,0,.547-.174.547-.055,0-.15-.019-.284-.158-2.272-2.493-1.436-3.805-.539-5.212.454-.711.923-1.447,1.013-2.371,0-.139.103-.26.229-.26.103,0,.166.083.245.26.983,2.316.55,3.109.066,3.996Z" fill="#9b9b9b"/><path d="M6.949,11.447c-.783,1.256-1.635,2.622-1.112,5.596.111.535,0,.957-.348.957-.111,0-.3-.032-.569-.276C.376,13.361,2.049,11.065,3.843,8.604c.907-1.245,1.845-2.532,2.026-4.15,0-.243.205-.454.458-.454.205,0,.332.146.49.454,1.966,4.054,1.101,5.44.132,6.993Z" fill="#9b9b9b"/></svg>