<?xml version="1.0" encoding="UTF-8"?><svg id="a" xmlns="http://www.w3.org/2000/svg" viewBox="0 0 32 32"><path d="M16,26.6c6.627,0,12-5.373,12-12S22.627,2.6,16,2.6,4,7.973,4,14.6s5.373,12,12,12Z" fill="#533566"/><path d="M24,23.6H8l-.921,4.181c-.333.896.434,1.819,1.512,1.819h14.822c1.079,0,1.835-.923,1.512-1.819l-.925-4.181Z" fill="#b4acbc"/><path d="M14.205,5.864c-.12-.05-.21-.151-.26-.262l-.38-.897c-.07-.141-.27-.141-.34,0l-.38.897c-.05.121-.14.212-.26.262l-.48.222c-.14.071-.14.272,0,.343l.48.222c.12.05.21.151.26.262l.38.897c.07.141.27.141.34,0l.38-.897c.05-.121.14-.212.26-.262l.48-.222c.14-.071.14-.272,0-.343l-.48-.222Z" fill="#fcd53f"/><path d="M24.12,10.404c-.16-.071-.29-.212-.36-.373l-.54-1.28c-.1-.202-.39-.202-.49,0l-.54,1.28c-.07.161-.2.302-.36.373l-.68.312c-.2.101-.2.393,0,.494l.68.312c.16.071.29.212.36.373l.54,1.28c.1.201.39.201.49,0l.54-1.28c.07-.161.2-.302.36-.373l.68-.312c.2-.101.2-.393,0-.494l-.68-.312Z" fill="#fcd53f"/><path d="M12.586,13.63c.139.352.398.635.731.792l1.378.655c.407.215.407.831,0,1.046l-1.378.655c-.324.156-.592.44-.731.792l-1.091,2.708c-.203.43-.786.43-.99,0l-1.091-2.708c-.139-.352-.398-.635-.731-.792l-1.378-.655c-.407-.215-.407-.831,0-1.046l1.378-.655c.324-.156.592-.44.731-.792l1.091-2.708c.203-.43.786-.43.99,0l1.091,2.708Z" fill="#fcd53f"/></svg>