<?xml version="1.0" encoding="UTF-8"?><svg id="a" xmlns="http://www.w3.org/2000/svg" viewBox="0 0 32 32"><path d="M27.819,16.776c-.9.91-1.46,2.11-1.57,3.38-.22,2.54-1.33,4.93-3.13,6.73-4.16,4.15-10.92,4.15-15.07,0l-3.15-3.15,1.6-1.59c-.39-3.15.62-6.45,3.03-8.86,1.8-1.8,4.19-2.91,6.73-3.13.079-.007.157-.015.235-.026-.371-1.208-.077-2.574.882-3.532,1.323-1.323,3.44-1.38,4.831-.171l2.641-2.641,3.15,3.15c2.66,2.66,2.66,7,0,9.66l-.18.18Z" fill="#fbb8ab"/><path d="M24.879,13.836c-.9.91-1.46,2.11-1.57,3.38-.21,2.54-1.33,4.93-3.12,6.74-4.16,4.15-10.92,4.16-15.07,0C.969,19.796.969,13.036,5.119,8.886c1.8-1.8,4.19-2.91,6.72-3.14,1.27-.11,2.48-.67,3.38-1.57l.18-.18c2.66-2.66,7-2.66,9.66,0,2.66,2.66,2.66,7,0,9.66l-.18.18ZM18.669,7.886c-.67.67-.67,1.75,0,2.42.67.67,1.76.67,2.43.01.67-.67.67-1.76,0-2.43-.67-.67-1.76-.67-2.43,0Z" fill="#f4f4f4" fill-rule="evenodd"/><path d="M7.683,8.795c-.656.521-.558,1.578.226,1.941l4.92,2.33c.005,0,.01.003.015.005.005.003.01.005.015.005.97.45,2.11.28,2.87-.48l.74-.74c.47-.47.65-1.16.46-1.79-.32-1.07-.06-2.28.78-3.12,1.26-1.27,3.35-1.22,4.55.15,1.03,1.16,1.03,2.94,0,4.11-.85.96-2.13,1.27-3.25.93-.64-.2-1.33-.02-1.8.45l-.73.73c-.76.76-.93,1.91-.47,2.88,0,.005.002.007.005.01s.005.005.005.01l2.34,4.91c.365.768,1.388.878,1.911.256.838-1.276,1.354-2.751,1.489-4.296.14-1.64.86-3.18,2.02-4.35l.18-.18c1.049-1.049,1.564-2.431,1.545-3.804-.018-1.153-.411-2.302-1.18-3.244-.113-.139-.235-.273-.364-.402-.099-.099-.202-.194-.307-.284-2.084-1.772-5.228-1.618-7.19.33l-.133.133c-1.17,1.17-2.71,1.88-4.35,2.02-1.545.135-3.02.651-4.296,1.489Z" fill="#f8312f"/><path d="M4.954,11.567c.318-.47.929-.634,1.445-.401l6.01,2.82c1.17.55,2.12,1.5,2.68,2.66l2.85,5.98c.25.53.06,1.16-.43,1.47-.94.598-1.964,1.006-3.019,1.225-2.895.595-6.025-.23-8.271-2.475-3.061-3.061-3.483-7.766-1.265-11.279Z" fill="#f8312f"/></svg>