<?xml version="1.0" encoding="UTF-8"?><svg id="a" xmlns="http://www.w3.org/2000/svg" viewBox="0 0 32 32"><path d="M1,16c0,1.105.895,2,2,2,3.314,0,6,1.791,6,4,0,3.866,3.134,7,7,7,.166,0,.179-.237.02-.284-2.902-.854-5.02-3.538-5.02-6.716,1.627-2.869,3.392-6,3.392-6,0,0-1.728-3.064-3.392-6,0-3.178,2.118-5.862,5.02-6.716.159-.047.146-.284-.02-.284-3.866,0-7,3.134-7,7,0,2.209-2.686,4-6,4-1.105,0-2,.895-2,2Z" fill="#fff"/><path d="M17.02,3.284c.159-.047.146-.284-.02-.284-3.866,0-7,3.134-7,7,0,1.552-.848,2.939-2.18,3.856,1.118-.144,2.22-.396,3.293-.754l.229-.076c.262-.087.545.054.632.316.087.262-.054.545-.316.632l-.229.076c-1.886.629-3.862.949-5.85.949h-1.539c-.013,0-.027,0-.04,0h-1c-.552,0-1,.448-1,1s.448,1,1,1h.489s.007,0,.011,0h2.079c1.988,0,3.964.321,5.85.949l.229.076c.262.087.404.371.316.633-.087.262-.37.404-.632.316l-.229-.076c-1.073-.358-2.175-.61-3.293-.754,1.332.917,2.18,2.304,2.18,3.856,0,3.866,3.134,7,7,7,.166,0,.179-.237.02-.284-.864-6.716-1.628-12.716-1.628-12.716,0,0,.858-7.5,1.628-12.716Z" fill="#bebebe"/><path d="M24,10c0,2.546-1.36,4.775-3.392,6,2.033,1.225,3.392,3.454,3.392,6,0,3.866-3.134,7-7,7,.166,0,.179-.237.02-.284-2.902-.854-5.02-3.538-5.02-6.716,0-2.19,1.006-4.146,2.581-5.429v-1.142c-1.575-1.284-2.581-3.239-2.581-5.429,0-3.178,2.118-5.862,5.02-6.716.159-.047.146-.284-.02-.284,3.866,0,7,3.134,7,7Z" fill="#dadada"/><path d="M13,16c0-4.971,4.029-9,9-9,4.978,1.54,7.448,4.029,7.448,9s-2.17,7.261-7.448,9c-4.971,0-9-4.029-9-9Z" fill="#e6e6e6"/><path d="M20.226,9.09c.285-.052.338.358.078.485-2.205,1.076-3.748,3.548-3.748,6.425s1.543,5.348,3.748,6.425c.26.127.208.537-.078.485-.457-.083-.907-.223-1.337-.419-2.28-1.038-3.889-3.554-3.889-6.491s1.609-5.453,3.889-6.491c.43-.196.879-.336,1.337-.419Z" fill="#fff"/><path d="M24.028,4c.552,0,1-.448,1-1s-.448-1-1-1-1,.448-1,1,.448,1,1,1Z" fill="#bebebe"/><path d="M30.028,5c0,1.105-.896,2-2,2s-2-.895-2-2,.895-2,2-2,2,.895,2,2Z" fill="#bebebe"/><path d="M26.028,28.5c0,.828-.672,1.5-1.5,1.5s-1.5-.672-1.5-1.5.672-1.5,1.5-1.5,1.5.672,1.5,1.5Z" fill="#bebebe"/><path d="M21.969,24.614c-.208.067-.188.386.031.386,4.971,0,9-4.029,9-9s-4.029-9-9-9c-.219,0-.239.319-.031.386,3.49,1.12,6.031,4.553,6.031,8.614s-2.541,7.494-6.031,8.614Z" fill="#bebebe"/></svg>