<?xml version="1.0" encoding="UTF-8"?><svg id="a" xmlns="http://www.w3.org/2000/svg" viewBox="0 0 32 32"><path d="M22.207,2.293c.391.391.391,1.024,0,1.414-.049.05-.098.099-.145.148l3.042,3.041v.639l-.707.068-2.989-2.989c-.453.594-.739,1.152-.907,1.679l2.604,2.603v.765l-.707-.057-2.099-2.099c0,.018,0,.035,0,.053-.013,1.185.43,2.349.997,3.673.048.113.098.228.148.344.193.447-.443,1.425-.443,1.425l1.586,2c.022.143.039.287.051.431.136,1.609-.36,3.206-1.93,4.776s-3.184,2.087-4.816,2.011c-.974-.045-1.94-.306-2.852-.612l-1.039.395-1.276-1.22c-1.067-.359-2.058-.605-3.057-.562-.075.003-.151.008-.228.015l2.164,2.164-.104.707h-.604l-2.62-2.62c-.441.154-.898.383-1.373.712l2.951,2.951v.604l-.707.103-3.032-3.032c-.134.12-.27.249-.407.386-.391.391-1.024.391-1.414,0-.391-.39-.391-1.024,0-1.414,1.778-1.778,3.539-2.499,5.29-2.573.837-.036,1.647.079,2.418.264l1-.484s1.256,1.199,1.275,1.206l.254.093c1.087.397,2.027.74,2.933.87l-1.816-1.816v-.707h.707l2.522,2.522c.575-.1,1.162-.342,1.776-.81l-3.005-3.005-.063-.707h.77l3.042,3.042c.659-.685,1.006-1.32,1.161-1.925l-2.66-2.66v-.707h.707l2.022,2.022c-.055-.442-.174-.888-.336-1.356l.336-1.68-1.169-.364c-.558-1.301-1.177-2.824-1.159-4.483.019-1.726.719-3.466,2.496-5.243.39-.391,1.024-.391,1.414,0Z" fill="#f8312f"/><path d="M24.397,7.604l2.992,2.992c-.584.451-1.134.746-1.656.93l-2.629-2.629-.707.707,2.169,2.169c-.052.004-.105.007-.156.009-1.191.052-2.357-.338-3.678-.842-.113-.043-.227-.087-.343-.132-1.169-.45-2.496-.961-3.855-1.026-1.597-.077-3.179.45-4.74,2.01-1.552,1.552-2.109,3.119-2.09,4.704.008.674.123,1.341.284,1.985.789.189,1.536.452,2.229.704l.075.027c-.329-1.001-.578-1.872-.589-2.74,0-.021,0-.042,0-.062l1.944,1.944.707-.707-2.457-2.457c.172-.515.474-1.051.969-1.617l2.781,2.781.707-.707-2.781-2.781c.727-.632,1.4-.932,2.045-1.04l2.278,2.278.707-.707-1.547-1.547c.823.142,1.676.468,2.667.847h.003c.096.038.194.075.292.113,1.304.497,2.826,1.043,4.478.971,1.712-.075,3.439-.802,5.21-2.573.391-.391.391-1.024,0-1.414-.39-.391-1.024-.391-1.414,0-.049.05-.099.098-.148.145l-3.042-3.041-.707.707Z" fill="#46a4fb"/><path d="M12,21.5l-.967.333c.225.802.368,1.564.341,2.333l-1.771-1.771-.707.707,2.28,2.28c-.134.452-.346.925-.664,1.422l-2.659-2.659-.707.707,2.766,2.766c-.184.22-.39.444-.619.674-.391.39-.391,1.024,0,1.414.391.391,1.024.391,1.414,0,1.765-1.765,2.519-3.48,2.649-5.177.043-.56.017-1.106-.054-1.633l-1.302-1.397Z" fill="#46a4fb"/><path d="M10.703,20.773c.123.373.238.733.337,1.087.641.45,1.448.891,2.265,1.064-.06-.453-.152-.892-.261-1.317-.395-.133-.781-.274-1.152-.411-.121-.045-.241-.089-.359-.132-.282-.103-.559-.201-.83-.292,0,0,0,0,0,0Z" fill="#0084ce"/><path d="M19.752,12.707c.088.034.177.068.267.102.679.259,1.417.531,2.201.722.163.49.296.993.371,1.503-.598-.469-1.612-.804-2.301-.97-.149-.43-.334-.878-.538-1.357Z" fill="#ca0b4a"/></svg>