<?xml version="1.0" encoding="UTF-8"?><svg id="a" xmlns="http://www.w3.org/2000/svg" viewBox="0 0 32 32"><path d="M22.909,5.511c.961,0,1.74-.779,1.74-1.74s-.779-1.74-1.74-1.74-1.74.779-1.74,1.74.779,1.74,1.74,1.74Z" fill="#fcd53f"/><path d="M9.353,22.626l-.344-.195c-.82-.47-1.25-1.4-1.08-2.33.09-.5.35-.95.73-1.28.524-.457,1.221-.632,1.876-.503l-.538-.306c-1.01-.573-1.541-1.729-1.333-2.864.115-.614.427-1.166.896-1.572.743-.646,1.765-.833,2.675-.523-.779-.612-1.173-1.611-.996-2.601.11-.6.42-1.15.88-1.55.86-.75,2.11-.87,3.1-.31l.347.198c-.785-.536-1.195-1.491-1.017-2.438.1-.54.38-1.03.79-1.39.78-.67,1.89-.79,2.79-.28l1.632.928c-.526-.341-.807-.965-.692-1.588.06-.35.24-.66.51-.89.5-.43,1.22-.5,1.79-.18l3.13,1.75c.57.33.88.98.76,1.63-.06.34-.24.66-.51.89-.5.44-1.22.51-1.79.18l-.455-.259v.002s2.155,1.226,2.155,1.226c.89.51,1.36,1.53,1.18,2.54-.09.54-.37,1.03-.79,1.39-.742.647-1.792.778-2.659.35l.509.29c1,.56,1.53,1.7,1.32,2.82-.11.6-.42,1.15-.88,1.55-.751.655-1.8.837-2.714.493.709.623,1.053,1.582.878,2.54-.115.614-.427,1.166-.896,1.572-.875.76-2.135.885-3.145.312l-.546-.311c.448.502.658,1.193.532,1.883-.09.5-.35.95-.73,1.28-.71.62-1.73.72-2.55.25l-.402-.229-.683,1.404-4.498-2.699.767-1.182Z" fill="#f9c23c"/><path d="M23.145,3.956l-.526-.299c-.588-.34-1.33-.268-1.846.186-.278.237-.464.567-.526.918-.085.463.041.926.32,1.28l-.279-.16c-.9-.51-2.02-.4-2.8.28-.42.36-.7.86-.8,1.4-.165.886.175,1.772.858,2.324-.969-.492-2.153-.343-2.978.376-.46.4-.77.95-.88,1.55-.184.982.201,1.98.973,2.589-.911-.306-1.939-.117-2.689.527-.469.407-.792.97-.897,1.585-.204,1.124.312,2.257,1.284,2.842-.665-.14-1.37.033-1.902.497-.38.33-.64.78-.73,1.28-.17.93.27,1.86,1.08,2.33l1.47.84c.82.47,1.84.37,2.55-.25.38-.33.64-.78.73-1.28.128-.709-.085-1.413-.55-1.913,1.002.539,2.245.405,3.115-.343.469-.407.792-.97.897-1.585.176-.966-.174-1.932-.899-2.562.916.351,1.972.171,2.727-.488.46-.4.77-.95.88-1.55.199-1.113-.323-2.235-1.3-2.809.815.285,1.732.121,2.4-.462.42-.36.7-.86.8-1.4.19-1.02-.29-2.04-1.19-2.55l-.301-.172c.446.06.909-.072,1.264-.384.278-.237.464-.567.526-.918.124-.67-.186-1.34-.784-1.681Z" fill="#fcd53f"/><path d="M8.669,29.641c-1.2-.68-1.62-2.21-.93-3.41l1.24-2.17,4.35,2.48-1.24,2.17c-.7,1.2-2.22,1.61-3.42.93Z" fill="#008463"/><path d="M6.279,15.701l1.56-3.77c2.98,2.57,3.97,6.77,2.46,10.41l-.137.33,4.447-3.38c3.7-2.82,8.99-2.1,11.81,1.6l-7.17,5.45c-3.188,2.43-7.556,2.231-10.508-.236l-.003.006c-.104-.09-.207-.183-.306-.277-.357-.329-.69-.694-.994-1.093l.007-.006c-1.943-2.551-2.432-5.986-1.167-9.035Z" fill="#44911b"/></svg>