<?xml version="1.0" encoding="UTF-8"?><svg id="a" xmlns="http://www.w3.org/2000/svg" viewBox="0 0 32 32"><path d="M15.999,29.998c9.334,0,13.999-6.267,13.999-13.999S25.333,2,15.999,2,2,8.268,2,15.999s4.664,13.999,13.999,13.999Z" fill="#ffb02e"/><path d="M14.999,14.498c0,2.486-2.015,4.501-4.501,4.501s-4.501-2.015-4.501-4.501,2.015-4.501,4.501-4.501,4.501,2.015,4.501,4.501Z" fill="#fff"/><path d="M16.998,14.498c0,2.486,2.015,4.501,4.5,4.501s4.501-2.015,4.501-4.501-2.015-4.501-4.501-4.501-4.5,2.015-4.5,4.501Z" fill="#fff"/><path d="M14,15c0,1.105-.895,2-2,2s-2-.895-2-2,.895-2,2-2,2,.895,2,2Z" fill="#402a32"/><path d="M18,15c0,1.105.895,2,2,2s2-.895,2-2-.895-2-2-2-2,.895-2,2Z" fill="#402a32"/><path d="M17.132,17.459c-.471-.544-1.307-.615-1.868-.158l-3.504,2.849.295-1.025c.205-.711-.224-1.449-.958-1.647-.738-.2-1.502.221-1.703.938l-.812,2.902-.986,2.299c-.018.042-.034.085-.048.128-.351.657-.55,1.406-.55,2.201,0,2.6,2.128,4.708,4.753,4.708,1.155,0,2.213-.408,3.037-1.086l5.285-3.767c.62-.442.744-1.291.276-1.882-.204-.258-.486-.423-.789-.489l.502-.408c.587-.477.664-1.326.171-1.894-.209-.242-.488-.394-.784-.453l.154-.125c.587-.477.663-1.325.171-1.894-.493-.569-1.368-.643-1.955-.166l-.572.465c.288-.458.258-1.061-.117-1.494Z" fill="#ff822d"/><path d="M10.775,7c.414-.014.738-.361.724-.775-.014-.414-.361-.738-.775-.724-3.051.103-4.725,2.663-4.725,4.75,0,.414.336.75.75.75s.75-.336.75-.75c0-1.413,1.161-3.179,3.275-3.25Z" fill="#402a32"/><path d="M21.725,7c-.414-.014-.738-.361-.724-.775.014-.414.361-.738.775-.724,3.051.103,4.725,2.663,4.725,4.75,0,.414-.336.75-.75.75s-.75-.336-.75-.75c0-1.413-1.161-3.179-3.275-3.25Z" fill="#402a32"/></svg>