<?xml version="1.0" encoding="UTF-8"?><svg id="a" xmlns="http://www.w3.org/2000/svg" viewBox="0 0 32 32"><path d="M15.999,29.998c9.334,0,13.999-6.267,13.999-13.999S25.333,2,15.999,2,2,8.268,2,15.999s4.664,13.999,13.999,13.999Z" fill="#ffb02e"/><path d="M10.487,10.057c-2.193-.478-4.186,1.241-4.529,3.419-.086.546-.598.918-1.144.832-.546-.086-.918-.598-.832-1.144.477-3.022,3.344-5.843,6.931-5.061,2.848.617,4.661,3.429,4.044,6.278-.517,2.391-2.87,3.903-5.259,3.386-2.02-.437-3.303-2.429-2.866-4.449v-.004c.18-.811.621-1.506,1.287-1.946.668-.441,1.484-.572,2.307-.397,1.003.212,1.531,1.112,1.67,1.821.075.381.069.828-.107,1.249-.187.449-.557.832-1.101.996-.529.159-1.087-.14-1.246-.669-.141-.467.077-.957.494-1.175l-.003-.016c-.017-.087-.056-.166-.097-.217-.016-.02-.028-.03-.034-.034-.351-.072-.607-.003-.782.112-.179.118-.352.337-.434.705-.202.94.395,1.866,1.334,2.069,1.312.283,2.598-.545,2.881-1.854.383-1.77-.743-3.518-2.514-3.901h-.001Z" fill="#402a32"/><path d="M11.939,21.646c.586-.586,1.536-.586,2.121,0l1.939,1.939,1.939-1.939c.586-.586,1.536-.586,2.121,0l1.939,1.939,1.793-1.793c.39-.391,1.024-.391,1.414,0,.391.39.391,1.024,0,1.414l-2.146,2.146c-.586.586-1.536.586-2.121,0l-1.939-1.939-1.939,1.939c-.586.586-1.536.586-2.121,0l-1.939-1.939-1.939,1.939c-.586.586-1.536.586-2.121,0l-2.146-2.146c-.391-.39-.391-1.024,0-1.414.391-.391,1.024-.391,1.414,0l1.793,1.793,1.939-1.939Z" fill="#402a32"/><path d="M26.012,13.476c-.343-2.178-2.336-3.897-4.529-3.419h-.001c-1.771.384-2.897,2.132-2.514,3.901.283,1.309,1.57,2.138,2.881,1.854.939-.203,1.537-1.129,1.334-2.069-.081-.368-.255-.587-.434-.705-.175-.115-.431-.184-.782-.112-.006.004-.018.014-.034.034-.041.051-.08.13-.097.217l-.003.016c.417.218.635.707.494,1.175-.159.529-.717.828-1.246.669-.544-.164-.914-.547-1.101-.996-.175-.421-.181-.868-.107-1.249.139-.709.666-1.61,1.67-1.821.823-.174,1.639-.044,2.307.397.666.439,1.107,1.134,1.286,1.946v.004c.438,2.019-.845,4.012-2.865,4.449-2.389.516-4.742-.995-5.259-3.386-.617-2.85,1.196-5.661,4.045-6.278,3.587-.782,6.454,2.039,6.931,5.061.086.546-.286,1.057-.832,1.144-.545.086-1.057-.286-1.143-.832Z" fill="#402a32"/></svg>