<?xml version="1.0" encoding="UTF-8"?><svg id="a" xmlns="http://www.w3.org/2000/svg" viewBox="0 0 32 32"><path d="M15.999,29.998c5.752,0,9.73-2.38,11.937-6.015-.152-.408-.324-1.092-.324-1.092,0,0,.914-.622,1.298-.869.726-1.824,1.088-3.866,1.088-6.022,0-.582-.027-1.156-.079-1.719-.262-.237-.838-.77-.838-.77,0,0,.361-.902.517-1.285-1.311-5.898-5.843-10.226-13.599-10.226S3.708,6.33,2.399,12.232c.126.352.265,1.112.265,1.112,0,0-.342.614-.584.923-.054.568-.081,1.146-.081,1.732,0,2.158.363,4.202,1.09,6.027.41.232,1.269.881,1.269.881,0,0-.181.63-.292,1.084,2.208,3.63,6.185,6.006,11.932,6.006Z" fill="#ffb02e"/><path d="M10.419,16.224c2.323,0,4.206-1.883,4.206-4.206s-1.883-4.206-4.206-4.206-4.206,1.883-4.206,4.206,1.883,4.206,4.206,4.206Z" fill="#fff"/><path d="M21.568,16.301c2.344,0,4.244-1.9,4.244-4.244s-1.9-4.244-4.244-4.244-4.244,1.9-4.244,4.244,1.9,4.244,4.244,4.244Z" fill="#fff"/><path d="M11,15c1.657,0,3-1.343,3-3s-1.343-3-3-3-3,1.343-3,3,1.343,3,3,3Z" fill="#402a32"/><path d="M21,15c1.657,0,3-1.343,3-3s-1.343-3-3-3-3,1.343-3,3,1.343,3,3,3Z" fill="#402a32"/><path d="M8,17.589l-5.922-3.29c.067-.72.177-1.423.33-2.105l6.508,3.616c.151-.092.317-.165.496-.212,1.662-.444,4.465-1.097,6.589-1.097s4.927.653,6.589,1.097c.179.048.345.12.496.212l6.506-3.615c.153.682.263,1.385.33,2.105l-5.92,3.289-.56.692.56.692v3.027h4.918c-.277.701-.608,1.369-.992,2h-3.948c-.101.667-.537,1.242-1.182,1.484-1.576.592-4.417,1.516-6.796,1.516s-5.22-.924-6.796-1.516c-.645-.242-1.081-.817-1.182-1.484h-3.95c-.384-.631-.715-1.299-.992-2h4.92v-3.058l.531-.677-.531-.677Z" fill="#f4f4f4"/><path d="M24,17H8v2h16v-2Z" fill="#aeddff"/><path d="M24,22H8v2h16v-2Z" fill="#aeddff"/></svg>