<?xml version="1.0" encoding="UTF-8"?><svg id="a" xmlns="http://www.w3.org/2000/svg" viewBox="0 0 32 32"><path d="M16,30c9.335,0,14-6.268,14-14S25.335,2,16,2,2,8.268,2,16s4.665,14,14,14Z" fill="#ffb02e"/><path d="M7.185,20.667c1.145,0,2.074-.929,2.074-2.074s-.929-2.074-2.074-2.074-2.074.929-2.074,2.074.929,2.074,2.074,2.074Z" fill="#f8312f" isolation="isolate"/><path d="M30.159,17.176c.936-.661,1.159-1.955.498-2.891-.661-.936-1.955-1.159-2.891-.498l-8.815,6.222c-.254.179-.455.405-.601.657h1.278c1.146,0,2.074.929,2.074,2.074v.404l8.455-5.968Z" fill="#d3d3d3"/><path d="M29.561,16.329c.468-.33.579-.977.249-1.445-.33-.468-.977-.579-1.445-.249l-8.557,6.04c.798.068,1.467.588,1.751,1.303l8.002-5.649Z" fill="#f70a8d"/><path d="M10.069,22.87c.52-.649,2.447-2.203,5.412-2.203s4.893,1.554,5.413,2.203c.358.447,1.01.52,1.458.162.447-.358.52-1.01.162-1.458-.863-1.079-3.361-2.982-7.032-2.982s-6.169,1.903-7.032,2.982c-.358.447-.285,1.1.162,1.458.447.358,1.1.285,1.458-.162Z" fill="#402a32"/><path d="M28.03,15.274l-.82-1.094.557-.393c.099-.07.202-.13.308-.18l.784,1.045c.172.229.125.554-.104.726-.229.172-.554.125-.726-.104Z" fill="#212121"/><path d="M25.325,15.511l-.847.598.693.97c.166.233.49.287.723.121.233-.166.287-.49.121-.723l-.69-.966Z" fill="#212121"/><path d="M21.541,18.182l.795.994c.179.224.505.26.729.081.224-.179.26-.505.081-.729l-.756-.945-.849.599Z" fill="#212121"/><circle cx="11.333" cy="13.375" r="3.606" fill="#fff"/><circle cx="11.842" cy="13.618" r="2.323" fill="#402a32"/><path d="M8.921,10.272c-.03,0-.06,0-.09-.001-.358-.009-.641-.306-.632-.664.009-.358.333-.624.664-.632,1.216.035,2.23-.828,2.43-1.993.061-.353.404-.588.748-.529.353.06.589.395.529.748-.303,1.765-1.863,3.071-3.649,3.071Z" fill="#402a32"/><circle cx="20.643" cy="13.375" r="3.606" fill="#fff"/><circle cx="20.134" cy="13.618" r="2.323" fill="#402a32"/><path d="M22.697,10.272c.03,0,.06,0,.09-.001.358-.009.641-.306.632-.664-.009-.358-.333-.624-.664-.632-1.216.035-2.23-.828-2.43-1.993-.061-.353-.404-.588-.748-.529-.353.06-.589.395-.529.748.303,1.765,1.863,3.071,3.649,3.071Z" fill="#402a32"/></svg>