<?xml version="1.0" encoding="UTF-8"?><svg id="a" xmlns="http://www.w3.org/2000/svg" viewBox="0 0 32 32"><path d="M16,29.999c9.334,0,13.999-6.267,13.999-13.999S25.334,2.001,16,2.001,2.001,8.269,2.001,16s4.664,13.999,13.999,13.999Z" fill="#ffb02e"/><path d="M21.484,16.984c2.752,0,4.983-2.231,4.983-4.983s-2.231-4.983-4.983-4.983-4.983,2.231-4.983,4.983,2.231,4.983,4.983,4.983Z" fill="#fff"/><path d="M10.501,17.001c2.485,0,4.5-2.015,4.5-4.5s-2.015-4.5-4.5-4.5-4.5,2.015-4.5,4.5,2.015,4.5,4.5,4.5Z" fill="#fff"/><path d="M18.778,4.917c.219-.146.637-.38,1.141-.575.507-.196,1.067-.341,1.582-.341s1.075.145,1.582.341c.504.195.921.429,1.141.575.23.153.54.091.693-.139s.091-.54-.139-.693c-.281-.187-.763-.454-1.334-.675-.569-.22-1.258-.409-1.943-.409s-1.375.188-1.943.409c-.571.221-1.054.488-1.334.675-.23.153-.292.464-.139.693.153.23.464.292.693.139Z" fill="#402a32"/><path d="M7.917,6.778c.267-.401,1.194-1.277,2.584-1.277s2.317.877,2.584,1.277c.153.23.464.292.693.139.23-.153.292-.464.139-.693-.4-.599-1.606-1.723-3.416-1.723s-3.016,1.123-3.416,1.723c-.153.23-.091.54.139.693.23.153.54.091.693-.139Z" fill="#402a32"/><path d="M15.001,19.751c-.835,0-1.229.393-1.293.457-.391.391-1.024.391-1.414,0-.391-.39-.391-1.024,0-1.414.27-.27,1.142-1.043,2.707-1.043,2.399,0,4.234,1.483,4.894,2.803.247.494.047,1.095-.447,1.342-.494.247-1.095.047-1.342-.447-.34-.68-1.505-1.697-3.106-1.697Z" fill="#402a32"/><circle cx="10.001" cy="11.501" r="1.521" fill="#402a32"/><circle cx="21.001" cy="11.501" r="2.005" fill="#402a32"/><path d="M27.28,10.5c-.12,0-.23.02-.34.06-.6-2.46-2.83-4.28-5.48-4.28-3.12,0-5.66,2.53-5.66,5.65s2.54,5.66,5.66,5.66c2.03,0,3.82-1.08,4.81-2.7v10.57c0,.56.45,1.01,1.01,1.01.55,0,1-.45,1-1.01v-13.96c0-.55-.45-1-1-1ZM21.46,16.39c-2.46,0-4.46-2-4.46-4.46s2-4.45,4.46-4.45,4.46,2,4.46,4.45-2,4.46-4.46,4.46Z" fill="#402a32"/></svg>