<?xml version="1.0" encoding="UTF-8"?><svg id="a" xmlns="http://www.w3.org/2000/svg" viewBox="0 0 32 32"><path d="M15.999,29.998c9.334,0,13.999-6.267,13.999-13.999S25.333,2,15.999,2,2,8.268,2,15.999s4.664,13.999,13.999,13.999Z" fill="#ffb02e"/><path d="M13,20c-.552,0-1,.448-1,1s.448,1,1,1h6c.552,0,1-.448,1-1s-.448-1-1-1h-6Z" fill="#402a32"/><path d="M10.419,18.155c2.323,0,4.206-1.883,4.206-4.206s-1.883-4.206-4.206-4.206-4.206,1.883-4.206,4.206,1.883,4.206,4.206,4.206Z" fill="#fff"/><path d="M21.568,18.232c2.344,0,4.244-1.9,4.244-4.244s-1.9-4.244-4.244-4.244-4.244,1.9-4.244,4.244,1.9,4.244,4.244,4.244Z" fill="#fff"/><circle cx="10.991" cy="13.925" r="2.029" fill="#402a32"/><circle cx="21.009" cy="13.925" r="2.029" fill="#402a32"/><path d="M19.923,8.767c.102-.162.251-.348.485-.495.231-.145.573-.272,1.093-.272.513,0,.851.131,1.082.281.237.153.39.344.514.514.163.223.475.273.699.11.223-.162.273-.475.11-.698-.147-.202-.387-.511-.779-.765-.398-.258-.926-.441-1.625-.441-.693,0-1.224.172-1.626.426-.399.252-.644.566-.797.807-.148.233-.078.542.155.69.233.148.542.078.69-.155Z" fill="#402a32"/><path d="M9.407,8.728c-.234-.148-.383-.334-.485-.495-.148-.233-.456-.303-.69-.155-.233.148-.303.456-.155.69.152.241.397.555.796.807.403.254.933.426,1.626.426.699,0,1.227-.183,1.625-.441.392-.254.632-.563.779-.765.162-.223.113-.536-.11-.698-.223-.162-.536-.113-.698.11-.123.17-.277.36-.514.514-.231.149-.568.281-1.082.281-.519,0-.862-.127-1.093-.272Z" fill="#402a32"/></svg>