<?xml version="1.0" encoding="UTF-8"?><svg id="a" xmlns="http://www.w3.org/2000/svg" viewBox="0 0 32 32"><path d="M15.999,29.998c9.334,0,13.999-6.267,13.999-13.999S25.333,2,15.999,2,2,8.268,2,15.999s4.664,13.999,13.999,13.999Z" fill="#ffb02e"/><path d="M15.97,22.92c1.104,0,2-.895,2-2s-.896-2-2-2-2,.896-2,2,.895,2,2,2Z" fill="#bb1d80"/><path d="M15,21c0-.552.448-1,1-1s1,.448,1,1v.5c0,1.381,1.119,2.5,2.5,2.5s2.5,1.119,2.5,2.5c0,.111-.156.123-.199.02h-11.601c-.044.103-.199.091-.199-.02,0-1.381,1.119-2.5,2.5-2.5s2.5-1.119,2.5-2.5v-.5Z" fill="#fff"/><path d="M14.95,27c-.232,1.141-1.24,2-2.45,2-1.381,0-2.5-1.119-2.5-2.5,0,.111.156.123.199.02.381-.894,1.268-1.52,2.301-1.52.108,0,.214.007.319.02.189.024.248.254.124.4.342.296.611.267,1.083.1.466.36.802.881.924,1.48Z" fill="#d3d3d3"/><path d="M22,26.5c0,1.381-1.119,2.5-2.5,2.5-1.23,0-2.252-.888-2.461-2.058.003.019.007.038.011.058.122-.599.457-1.12.924-1.48.441,0,.71-.1,1.083-.1-.123-.146-.065-.376.124-.4.104-.013.211-.02.319-.02,1.033,0,1.92.626,2.301,1.52.044.103.199.091.199-.02Z" fill="#d3d3d3"/><path d="M20,28c0,2.209-1.791,4-4,4s-4-1.791-4-4c.448-2.224,1.791-3.465,4-3.465s3.521,1.256,4,3.465Z" fill="#c9c9c9"/><path d="M19.876,28.008c.018.071.124.066.124-.008,0-2.209-1.791-4-4-4s-4,1.791-4,4c0,.074.106.079.124.008.441-1.729,2.009-3.008,3.876-3.008s3.435,1.278,3.876,3.008Z" fill="#f4f4f4"/><path d="M8.069,7.988c-.593.563-.951,1.24-1.095,1.67-.087.262-.37.404-.632.316-.262-.087-.404-.37-.316-.632.19-.57.631-1.392,1.355-2.08.732-.695,1.767-1.262,3.119-1.262.276,0,.5.224.5.5s-.224.5-.5.5c-1.048,0-1.846.433-2.431.988Z" fill="#402a32"/><path d="M23.931,7.988c.593.563.951,1.24,1.095,1.67.087.262.371.404.633.316.262-.087.404-.37.316-.632-.19-.57-.631-1.392-1.355-2.08-.732-.695-1.767-1.262-3.119-1.262-.276,0-.5.224-.5.5s.224.5.5.5c1.048,0,1.846.433,2.431.988Z" fill="#402a32"/><path d="M6.215,13.38c.342-.433.971-.507,1.405-.165.664.524,1.29.785,2.38.785,1.098,0,1.751-.271,2.368-.775.428-.349,1.058-.285,1.407.143.349.428.285,1.058-.143,1.407-.993.81-2.098,1.225-3.632,1.225-1.542,0-2.604-.413-3.62-1.215-.433-.342-.507-.971-.165-1.405Z" fill="#402a32"/><path d="M18.215,13.38c.342-.433.971-.507,1.404-.165.664.524,1.29.785,2.38.785,1.098,0,1.751-.271,2.368-.775.428-.349,1.058-.285,1.407.143.349.428.285,1.058-.143,1.407-.993.81-2.098,1.225-3.632,1.225-1.542,0-2.604-.413-3.62-1.215-.434-.342-.507-.971-.165-1.405Z" fill="#402a32"/></svg>