<?xml version="1.0" encoding="UTF-8"?><svg id="a" xmlns="http://www.w3.org/2000/svg" viewBox="0 0 32 32"><path d="M6.43,29.387v-8.233c0-1.758.963-3.363,2.125-4.54,1.177-1.192,2.797-1.926,4.586-1.926s3.409.749,4.586,1.926c1.162,1.177,2.048,2.782,2.048,4.54v8.233H6.43Z" fill="#ff6723"/><path d="M17.089,12.986c.002-.129.003-.261.026-.393l.079-1.461c.258-.02.698-.119.896-.258v1.005c0,.734-.417,1.389-1.091,1.686.085-.181.087-.377.089-.579h0Z" fill="#f1a11e"/><path d="M8.132,10.879c.218.159.618.258.916.258l.079,1.456c.011.096.015.19.02.284.013.253.025.496.155.728-.714-.298-1.17-.972-1.17-1.726v-1Z" fill="#f1a11e"/><path d="M10.374,9.914c0,.789-.64,1.428-1.428,1.428s-1.428-.64-1.428-1.428.64-1.428,1.428-1.428,1.428.64,1.428,1.428Z" fill="#fdbb11"/><path d="M18.706,9.914c0,.789-.64,1.428-1.428,1.428s-1.428-.64-1.428-1.428.639-1.428,1.428-1.428,1.428.64,1.428,1.428Z" fill="#fdbb11"/><path d="M14.083,3.646h-1.905c-2.143,0-3.75,1.785-3.511,4.007l.317,4.92c.218,1.686,1.647,2.936,3.333,2.936h1.627c1.686,0,3.115-1.25,3.333-2.916l.298-4.92c.298-2.143-1.349-4.027-3.492-4.027Z" fill="#ffc83d"/><path d="M9.996,8.119c.039.028.087.043.135.042.051-.001.1-.019.141-.05.371-.257.828-.361,1.274-.29.061.006.121-.011.17-.048.049-.037.082-.09.092-.15.004-.03.002-.061-.005-.091-.008-.03-.021-.057-.04-.082-.018-.024-.041-.045-.068-.06-.026-.015-.056-.025-.086-.03-.571-.088-1.153.05-1.623.385-.038.03-.066.071-.079.117-.014.046-.012.096.004.142s.046.085.085.113v.002Z" fill="#d37034"/><path d="M15.958,8.111c.041.033.092.05.145.05.035,0,.069-.008.1-.023.031-.015.059-.036.081-.063.038-.049.056-.11.048-.171-.007-.061-.038-.117-.086-.156-.474-.328-1.054-.466-1.625-.385-.03.004-.059.014-.086.03s-.049.036-.068.06-.032.052-.039.082c-.008.03-.01.06-.005.091.004.03.014.06.029.086s.036.05.06.068c.024.018.052.032.082.039.03.008.06.009.091.005.446-.071.902.032,1.274.288h-.001Z" fill="#d37034"/><path d="M9.878,9.657c.119-.516.595-.913,1.17-.913s1.071.417,1.19.972c.02.119-.079.238-.198.238h-1.944c-.159,0-.278-.139-.218-.298h0Z" fill="#fff"/><path d="M16.365,9.657c-.119-.516-.595-.913-1.17-.913-.595,0-1.071.417-1.19.972-.02.119.079.238.198.238h1.944c.159,0,.258-.139.218-.298h0Z" fill="#fff"/><path d="M10.433,9.756c0-.436.357-.794.794-.794.417,0,.774.357.774.794,0,.06-.02.139-.06.198h-1.488c0-.028-.004-.055-.009-.085-.005-.034-.011-.071-.011-.114h0Z" fill="#7d4533"/><path d="M15.79,9.756c0-.417-.337-.774-.774-.774-.417,0-.774.357-.774.794,0,.06,0,.139.02.179h1.508c0-.028.004-.055.009-.085.005-.034.011-.071.011-.114Z" fill="#7d4533"/><path d="M11.227,9.319c.238,0,.436.198.436.436,0,.03-.005.064-.01.099s-.01.069-.01.099h-.794c-.04-.06-.06-.119-.06-.198,0-.238.198-.436.436-.436h.002Z"/><path d="M15.016,9.319c-.238,0-.436.198-.436.436,0,.03.005.064.01.099s.01.069.01.099h.794c.04-.06.06-.119.06-.198,0-.238-.198-.436-.436-.436h-.002Z"/><path d="M11.088,9.438c0,.077-.062.139-.139.139s-.139-.062-.139-.139.062-.139.139-.139.139.062.139.139Z" fill="#fff"/><path d="M14.917,9.438c0,.077-.062.139-.139.139s-.139-.062-.139-.139.062-.139.139-.139.139.062.139.139Z" fill="#fff"/><path d="M12.794,9.676l-.456,1.468c-.079.298.139.595.456.595h.675c.317,0,.536-.298.436-.595l-.456-1.468c-.099-.317-.555-.317-.655,0Z" fill="#ed9200"/><path d="M13.111,12.553c-.456,0-.893-.119-1.25-.298-.119-.06-.258.079-.179.198.298.476.833.774,1.428.774s1.131-.317,1.448-.774c.079-.119-.06-.258-.179-.198-.377.198-.794.298-1.27.298h.002Z" fill="#990839"/><path d="M18.428,5.411c-.258-.436-.655-.754-1.091-.913-.496-.159-.913-.476-1.19-.913-.357-.575-.992-.972-1.726-.972-.278,0-.555.06-.794.159-.337.139-.714.139-1.032,0-.238-.099-.516-.159-.794-.159-.734,0-1.349.377-1.726.952-.278.436-.694.774-1.19.952-.476.159-.873.476-1.131.952-.357.694-.298,1.508.119,2.103.159.218.238.476.238.754v.436c.179-.119.377-.218.595-.238v-.714c0-1.607,1.29-2.896,2.896-2.896h1.111c.238,0,.456.139.536.357.337.754,1.091,1.23,1.924,1.23h1.21c.655.02,1.19.575,1.19,1.23l-.059.794h.059c.198.04.377.119.516.238v-.436c0-.258.079-.536.238-.754.436-.615.516-1.468.099-2.162h.002Z" fill="#f1a11e"/><path d="M25.57,29.385h-11.48c.98-2.2,3.18-3.73,5.74-3.73s4.76,1.53,5.74,3.73Z" fill="#9c9c9c"/><path d="M23.54,18.021l-.135-.073h.331c.243,0,.416-.239.339-.471-.196-.621-.782-1.072-1.468-1.072h-4.173c-.47,0-.851.355-.905.814-.004,0-.009,0-.013.002-.005,0-.01.002-.013.002h-.17c-1.387,0-2.512,1.126-2.512,2.515v1.119c0,.326.156.596.482.596h.223l-.358,1.125h.492l-.068.576v1.636c0,.905.736,1.641,1.641,1.641h.401v-3.853h4.4v3.853h.401c.905,0,1.641-.736,1.641-1.641v-2.212h.416l-.354-1.157h.204c.274,0,.497-.224.497-.498v-.721c.008-.91-.493-1.748-1.298-2.18h0Z" fill="#f1a11e"/><path d="M15.445,21.452c-.319.227-.527.6-.527,1.021,0,.692.561,1.252,1.252,1.252s1.252-.561,1.252-1.252-.561-1.252-1.252-1.252c-.091,0-.179.01-.264.028l.014.514v.023l.027.783c-.212,0-.385-.166-.393-.378l-.027-.739h-.082Z" fill="#fdbb11"/><path d="M23.757,21.248c-.086-.019-.175-.028-.267-.028-.692,0-1.252.561-1.252,1.252s.561,1.252,1.252,1.252,1.252-.561,1.252-1.252c0-.442-.229-.83-.575-1.053h-.03l-.008.201-.023.571c-.008.212-.181.378-.393.378l.043-1.32h.001Z" fill="#fdbb11"/><path d="M15.906,20.939l.081,2.487c.092,2.255,1.785,3.77,3.843,3.77s3.751-1.515,3.843-3.77l.079-2.421c-.058-.42-.416-.743-.851-.743h-1.992c-.936,0-1.757-.494-2.219-1.231-.158.702-.786,1.231-1.537,1.231h-.478c-.396,0-.722.297-.769.678h0Z" fill="#ffc83d"/><path d="M19.831,24.939c-.427,0-.823-.104-1.162-.282-.115-.062-.239.07-.165.182.281.437.773.727,1.327.727s1.046-.29,1.327-.727c.069-.108-.05-.24-.165-.182-.339.182-.735.282-1.162.282Z" fill="#990839"/><path d="M19.827,24.191c.262,0,.489-.133.628-.336.123-.184-.008-.434-.227-.434h-.798c-.22,0-.351.25-.227.434.135.203.366.336.624.336Z" fill="#ed9200"/><path d="M16.821,22.519c.131-.516.601-.902,1.16-.902.582,0,1.063.412,1.171.959.023.119-.073.231-.196.231h-1.903c-.154,0-.27-.143-.231-.289h-.001Z" fill="#fff"/><path d="M22.847,22.519c-.131-.516-.601-.902-1.16-.902-.582,0-1.063.412-1.171.959-.023.119.073.231.196.231h1.903c.154,0,.27-.143.231-.289h0Z" fill="#fff"/><path d="M17.395,22.607c0-.42.343-.763.763-.763s.763.343.763.763c0,.073-.008.139-.027.204h-1.472c-.015-.065-.027-.135-.027-.204Z" fill="#7d4533"/><path d="M22.273,22.607c0-.42-.343-.763-.763-.763s-.763.343-.763.763c0,.073.008.139.027.204h1.472c.015-.065.027-.135.027-.204Z" fill="#7d4533"/><path d="M18.158,22.172c.239,0,.435.193.435.435,0,.073-.019.143-.05.204h-.771c-.031-.062-.05-.131-.05-.204,0-.239.193-.435.435-.435h0Z"/><path d="M21.51,22.172c-.239,0-.435.193-.435.435,0,.073.019.143.05.204h.771c.031-.062.05-.131.05-.204,0-.239-.193-.435-.435-.435h0Z"/><path d="M18.031,22.307c0,.074-.06.135-.135.135s-.135-.06-.135-.135.06-.135.135-.135.135.06.135.135Z" fill="#fff"/><path d="M21.41,22.307c0,.074-.06.135-.135.135s-.135-.06-.135-.135.06-.135.135-.135.135.06.135.135Z" fill="#fff"/><path d="M17.475,21.244c.201-.072.489-.126.869-.09.106.01.2-.068.21-.174.01-.106-.068-.2-.174-.21-.436-.041-.781.02-1.034.111-.1.036-.153.146-.117.246s.146.153.246.117Z" fill="#d37034"/><path d="M22.322,20.88c-.254-.09-.598-.152-1.034-.111-.106.01-.184.104-.174.21.01.106.104.184.21.174.38-.036.668.018.869.09.1.036.21-.017.246-.117.036-.1-.017-.21-.117-.246Z" fill="#d37034"/></svg>