<?xml version="1.0" encoding="UTF-8"?><svg id="a" xmlns="http://www.w3.org/2000/svg" viewBox="0 0 32 32"><path d="M8,17.995c-.01.008-.02.016-.03.025v-.029c-1.539,1.279-2.721,2.976-3.378,4.914-.384,1.118-.592,2.348-.592,3.596v3.47h.03v.01s1.97.02,1.97.02h2l1-6-1-6.005Z" fill="#00d26a"/><path d="M22,30h4v-3.5c0-3.409-1.558-6.462-4-8.483l-1,5.983,1,6Z" fill="#00d26a"/><path d="M20,16.698l1,3.302-1,3-5,1-5-1-1-3,1-3.317c1.497-.763,3.193-1.193,4.99-1.193s3.506.436,5.01,1.208Z" fill="#00d26a"/><path d="M10,16.683c-.716.365-1.386.805-2,1.312v12.005h14v-11.983c-.614-.509-1.285-.952-2-1.319v5.802c0,.276-.224.5-.5.5h-9c-.276,0-.5-.224-.5-.5v-5.817Z" fill="#0084ce"/><path d="M11,27c0-.552.448-1,1-1h6c.552,0,1,.448,1,1v3h-8v-3Z" fill="#46a4fb"/><path d="M11.87,21.53l3.12-2.19,3.12,2.19c.37.26.88,0,.88-.46v-4.83c-1.24-.48-2.59-.75-4-.75s-2.76.27-4,.75v4.84c0,.44.51.71.88.45Z" fill="#008463"/><path d="M15.91,19.68l-.65.58c-.16.14-.39.14-.55,0l-.65-.58c-.72-.65-1.14-1.58-1.14-2.55v-3.09c0-1.14.92-2.06,2.06-2.06s2.06.92,2.06,2.06v3.09c0,.97-.41,1.9-1.13,2.55Z" fill="#fff"/><path d="M14.99,18.66c-1.14,0-2.06-.92-2.06-2.06v-2.56c0-1.14.92-2.06,2.06-2.06s2.06.92,2.06,2.06v2.56c-.01,1.14-.93,2.06-2.06,2.06Z" fill="#fcb100"/><path d="M20.475,4.99h.005c2.48,0,4.5,2.01,4.5,4.5s-2.02,4.5-4.5,4.5h-10.97c-2.48,0-4.5-2.01-4.5-4.5,0-2.47,1.994-4.484,4.471-4.5l1.019-.49-.23-.5c1.217-1.258,2.907-2,4.71-2s3.494.741,4.709,2l-.189.5.975.49Z" fill="#7d4533"/><path d="M20.476,4.99c-.232-.358-.496-.687-.786-.99h-9.42c-.287.301-.552.633-.786.99.009,0,.017,0,.026,0h10.966Z" fill="#533566"/><path d="M9.12,12.87l.01-2.69c1.12-.03,2.24-.03,3.34-.03v5.43l-1.89-.65c-.87-.31-1.46-1.13-1.46-2.06Z" fill="#f1a11e"/><path d="M17.5,15.59v-5.35c1.11.03,2.23.07,3.35.11v2.53c0,.93-.58,1.76-1.46,2.06l-1.89.65Z" fill="#f1a11e"/><path d="M11.76,10.58c0,.922-.748,1.67-1.67,1.67s-1.67-.748-1.67-1.67.748-1.67,1.67-1.67,1.67.748,1.67,1.67Z" fill="#fdbb11"/><path d="M21.55,10.58c0,.922-.748,1.67-1.67,1.67s-1.67-.748-1.67-1.67.748-1.67,1.67-1.67,1.67.748,1.67,1.67Z" fill="#fdbb11"/><path d="M20.23,8.95l.01-.11c.04-1.09-.83-2.04-1.93-2.04h-6.5c-1.14,0-2.03.97-1.93,2.1l.3,4.65c.26,1.97,1.94,3.43,3.92,3.43h1.9c1.98,0,3.66-1.47,3.92-3.43l.31-4.6Z" fill="#ffc83d"/><path d="M11.18,10.27c.15-.62.71-1.08,1.38-1.08.69,0,1.27.5,1.39,1.15.03.15-.08.28-.23.28h-2.27c-.19,0-.32-.17-.27-.35Z" fill="#fff"/><path d="M18.82,10.27c-.15-.62-.71-1.08-1.38-1.08-.7,0-1.27.5-1.39,1.15-.03.15.08.28.23.28h2.27c.18,0,.31-.17.27-.35Z" fill="#fff"/><path d="M11.86,10.37c0-.5.41-.91.91-.91s.91.41.91.91c0,.08-.01.16-.03.24h-1.76c-.02-.08-.03-.16-.03-.24Z" fill="#7d4533"/><path d="M18.14,10.37c0-.5-.41-.91-.91-.91-.51,0-.91.41-.91.91,0,.08.01.16.03.24h1.76c.02-.08.03-.16.03-.24Z" fill="#7d4533"/><path d="M12.77,9.86c.29,0,.52.23.52.52,0,.08-.03.17-.06.24h-.92c-.04-.07-.06-.15-.06-.24,0-.29.23-.52.52-.52Z"/><path d="M17.23,9.86c-.29,0-.52.23-.52.52,0,.08.02.17.06.24h.92c.04-.07.06-.15.06-.24,0-.29-.23-.52-.52-.52Z"/><path d="M12.61,10.02c0,.088-.072.16-.16.16s-.16-.072-.16-.16.072-.16.16-.16.16.072.16.16Z" fill="#fff"/><path d="M17.11,10.02c0,.088-.072.16-.16.16s-.16-.072-.16-.16.072-.16.16-.16.16.072.16.16Z" fill="#fff"/><path d="M14.68,10.3l-.53,1.71c-.11.35.15.7.52.7h.78c.37,0,.63-.35.52-.7l-.52-1.71c-.12-.38-.65-.38-.77,0Z" fill="#ed9200"/><path d="M15,13.68c-.54,0-1.05-.13-1.48-.36-.15-.08-.3.09-.21.23.36.55.98.92,1.69.92s1.33-.37,1.69-.92c.09-.14-.07-.3-.21-.23-.43.23-.94.36-1.48.36Z" fill="#990839"/><path d="M11.332,8.344c-.119.093-.141.265-.048.384.093.119.265.141.384.048l.095-.062c.069-.041.172-.097.305-.149.266-.105.645-.196,1.1-.143.15.018.286-.09.304-.24.018-.15-.09-.286-.24-.304-.565-.066-1.036.047-1.365.177-.165.065-.295.135-.386.189l-.15.1Z" fill="#d37034"/><path d="M18.716,8.728c.093-.119.071-.292-.048-.385h-.002s-.003-.004-.003-.004l-.009-.007c-.007-.005-.017-.013-.03-.021-.025-.017-.061-.041-.106-.068-.091-.054-.221-.124-.386-.189-.33-.13-.8-.244-1.365-.177-.15.018-.258.154-.24.304.018.15.154.258.304.24.455-.054.834.038,1.1.143.133.052.236.108.305.149.034.021.06.038.076.049.008.006.014.01.017.012l.003.002c.119.092.291.071.384-.048Z" fill="#d37034"/><path d="M17.47,7.6h2.38c-.35-.48-.91-.8-1.54-.8h-2.55c.42.5,1.05.8,1.71.8Z" fill="#f1a11e"/><path d="M27,23c.55,0,1,.41,1,.912v2.088h-2v-2.088c0-.502.44-.912,1-.912Z" fill="#f59f00"/><path d="M26,21.76h-1v4h1v-4Z" fill="#7d4533"/><path d="M28.461,10.99c-.27.02-.469.25-.469.52v4.45c0,.54-.409,1-.949,1.03-.569.03-1.049-.43-1.049-1v-4.48c0-.27-.2-.5-.469-.52-.29-.02-.529.21-.529.5v4.47c0,.54-.409,1-.949,1.03-.569.03-1.049-.43-1.049-1v-4.48c0-.27-.2-.5-.469-.52-.289-.02-.529.21-.529.5v7.08c0,.78.629,1.43,1.408,1.43h1.338v1.76c0,.12.1.22.22.22h1.068c.12,0,.22-.1.22-.22v-1.76h1.338c.779,0,1.408-.65,1.408-1.43v-7.08c-.01-.29-.25-.52-.539-.5Z" fill="#d3d3d3"/><path d="M24.209,24.76c-.373,0-.691.32-.7.72-.009.27.118.51.3.65-.182.13-.309.36-.309.62s.118.49.309.62c-.182.13-.309.36-.309.62s.118.49.309.62c-.191.14-.309.38-.3.65.009.42.327.74.7.74h3c.436,0,.791-.39.791-.87v-3.51c0-.48-.354-.87-.791-.87h-3v.01Z" fill="#ffc83d"/></svg>