<?xml version="1.0" encoding="UTF-8"?><svg id="a" xmlns="http://www.w3.org/2000/svg" viewBox="0 0 32 32"><path d="M16.505,27.5c6.351,0,11.5-5.149,11.5-11.5s-5.149-11.5-11.5-11.5-11.5,5.149-11.5,11.5,5.149,11.5,11.5,11.5Z" fill="#cdc4d6"/><path d="M16.505,24c4.418,0,8-3.582,8-8s-3.582-8-8-8-8,3.582-8,8,3.582,8,8,8Z" fill="#e1d8ec"/><path d="M6.825,5.81c-.38,0-.68.31-.68.68v2.69c0,.2-.16.35-.35.35-.2,0-.35-.16-.35-.35v-2.66c0-.37-.29-.7-.66-.71-.39-.01-.71.3-.71.68v2.69c0,.2-.16.35-.35.35-.2,0-.35-.16-.35-.35v-2.66c0-.37-.29-.7-.66-.71-.39-.01-.71.3-.71.68v4.58c0,.903.437,1.707,1.109,2.209.601.339.601,1.891.601,1.891v10.02c0,.52.42.94.94.94h.23c.52,0,.94-.42.94-.94v-10.02s0-1.491.601-1.891c.672-.502,1.109-1.306,1.109-2.209v-4.58c-.02-.37-.33-.68-.71-.68Z" fill="#998ea4"/><path d="M28.365,5.81c.9,0,1.63.73,1.63,1.63v17.76c0,.52-.42.94-.94.94h-.23c-.52,0-.94-.42-.94-.94v-8.617c-1.124-.508-1.85-1.63-1.85-2.883v-5.55c-.01-1.29,1.03-2.34,2.33-2.34Z" fill="#998ea4"/></svg>