<?xml version="1.0" encoding="UTF-8"?><svg id="a" xmlns="http://www.w3.org/2000/svg" viewBox="0 0 32 32"><path d="M26,12.5c0,.276-.224.5-.5.5s-.5-.224-.5-.5.224-.5.5-.5.5.224.5.5ZM26,24.5v-11.5l1,.54v10.96c0,.83-.67,1.5-1.5,1.5s-1.5-.67-1.5-1.5v-7c0-.28-.22-.5-.5-.5-.017,0-.053-.002-.098-.004-.136-.007-.843-.018-.888.004v-1c.032-.008.791-.003.921-.001.033,0,.057.001.065.001.83,0,1.5.67,1.5,1.5v7c0,.28.22.5.5.5s.5-.22.5-.5Z" fill="#212121"/><path d="M7,29.01v-14.01l.321-.5-.321-.5V3.99c0-1.1.89-1.99,1.99-1.99h12.02c1.1,0,1.99.89,1.99,1.99v10.01l-.177.5.177.5v14.01H7Z" fill="#f8312f"/><path d="M10.03,12h9.94c.57,0,1.03-.46,1.03-1.03v-4.97c0-.57-1.57-1.466-2.14-1.466l-7.555.021c-.57,0-2.305.875-2.305,1.445v4.97c0,.57.46,1.03,1.03,1.03ZM7,28h16.01c.55,0,.99.44.99.99v1.01H6v-1c0-.55.45-1,1-1ZM23,7.45c0,.07.01.13.04.19l.92,2.01c.03.06.04.13.04.19v3.1c0,.59.44,1.05.99,1.05h1.59c.23,0,.42-.2.42-.45v-3.58c0-.14-.06-.27-.17-.36l-3.15-2.51c-.28-.22-.68-.01-.68.36ZM25.58,12.93h-.15c-.23,0-.42-.2-.42-.45v-1.65c0-.4.46-.6.72-.32l.15.16c.08.08.12.2.12.32v1.5c0,.24-.19.44-.42.44ZM7,14h16v1H7v-1Z" fill="#d3d3d3"/><path d="M9,6h12v-.97c0-.57-.46-1.03-1.03-1.03h-9.94c-.57,0-1.03.46-1.03,1.03v.97ZM15.5,7h4c.28,0,.5.22.5.5s-.22.5-.5.5h-4c-.28,0-.5-.22-.5-.5s.22-.5.5-.5Z" fill="#212121"/></svg>