<?xml version="1.0" encoding="UTF-8"?><svg id="a" xmlns="http://www.w3.org/2000/svg" viewBox="0 0 32 32"><path d="M2,16c0-7.72,6.28-14,14-14s14,6.28,14,14-6.28,14-14,14S2,23.72,2,16ZM4.041,15h3.99c.107-1.74.494-3.425,1.129-5h-3.551c-.865,1.494-1.418,3.19-1.568,5ZM10.035,15h4.965v-5h-3.654c-.736,1.552-1.186,3.243-1.31,5ZM15,17h-4.965c.124,1.757.574,3.448,1.31,5h3.654v-5ZM15,24h-2.494c.701,1.006,1.537,1.924,2.494,2.73v-2.73ZM19.005,27.619c2.325-.601,4.378-1.883,5.934-3.619h-3.074c-.767,1.328-1.728,2.548-2.859,3.619ZM22.84,22h3.55v.002c.866-1.494,1.419-3.191,1.569-5.002h-3.99c-.107,1.741-.494,3.425-1.129,5ZM21.965,17h-4.965v5h3.654c.736-1.552,1.186-3.243,1.31-5ZM23.969,15h3.99c-.15-1.811-.703-3.508-1.569-5.002v.002h-3.55c.636,1.575,1.022,3.26,1.129,5ZM20.654,10h-3.654v5h4.965c-.124-1.757-.574-3.448-1.31-5ZM21.865,8h3.074c-1.554-1.735-3.604-3.016-5.926-3.618,1.129,1.072,2.087,2.291,2.853,3.618ZM17,5.27v2.73h2.494c-.701-1.005-1.537-1.924-2.494-2.73ZM15,5.27c-.957.806-1.793,1.725-2.494,2.73h2.494v-2.73ZM17,24v2.73c.957-.806,1.794-1.724,2.494-2.73h-2.494ZM5.609,22h3.554c-.637-1.576-1.024-3.26-1.132-5h-3.99c.15,1.81.702,3.506,1.568,5ZM13.001,27.621c-1.133-1.073-2.094-2.293-2.862-3.621h-3.079c1.557,1.738,3.613,3.021,5.941,3.621ZM10.134,8c.766-1.327,1.724-2.546,2.853-3.617-2.322.602-4.372,1.883-5.926,3.617h3.074Z" fill="#83cbff"/></svg>