<?xml version="1.0" encoding="UTF-8"?><svg id="a" xmlns="http://www.w3.org/2000/svg" viewBox="0 0 32 32"><path d="M24.844,27.349H7.146c-1.423,0-2.576-1.153-2.576-2.576v-1.984l11.425-1.139,11.444,1.139v1.974c-.01,1.433-1.173,2.586-2.596,2.586Z" fill="#e19747"/><path d="M19.262,4.651h-6.524c-4.6,0-8.318,3.728-8.318,8.318v1.323h23.17v-1.323c-.01-4.59-3.738-8.318-8.328-8.318Z" fill="#f3ad61"/><path d="M19.202,7.096c0,.426-.345.772-.772.772s-.772-.345-.772-.772.345-.772.772-.772.772.345.772.772Z" fill="#fff3d7"/><path d="M13.56,7.868c.426,0,.772-.345.772-.772s-.345-.772-.772-.772-.772.345-.772.772.345.772.772.772Z" fill="#fff3d7"/><path d="M21.888,9.26c0,.426-.346.772-.772.772s-.772-.345-.772-.772.346-.772.772-.772.772.345.772.772Z" fill="#fff3d7"/><path d="M10.874,10.032c.426,0,.772-.345.772-.772s-.345-.772-.772-.772-.772.345-.772.772.345.772.772.772Z" fill="#fff3d7"/><path d="M15.995,10.914c.426,0,.772-.345.772-.772s-.345-.772-.772-.772-.772.345-.772.772.345.772.772.772Z" fill="#fff3d7"/><path d="M27.429,14.061H4.561v3.207l11.415,1.941,11.454-1.941v-3.207Z" fill="#f8312f"/><path d="M5.834,12.826c.872-.465,1.907-1.011,3.828-1.011s2.954.546,3.825,1.011l.019.01c.705.376,1.259.673,2.5.673s1.796-.296,2.501-.673l.019-.01c.871-.465,1.904-1.011,3.825-1.011s2.954.546,3.824,1.011l.02.011c.704.377,1.255.672,2.49.672.77,0,1.394.624,1.394,1.394s-.624,1.394-1.394,1.394c-1.921,0-2.954-.546-3.824-1.012l-.02-.011c-.704-.376-1.255-.671-2.49-.671s-1.785.295-2.49.671l-.021.011c-.872.466-1.907,1.011-3.832,1.011s-2.96-.545-3.832-1.011l-.021-.011c-.705-.377-1.257-.671-2.49-.671s-1.79.295-2.497.673l-.019.01c-.872.465-1.907,1.011-3.827,1.011-.77,0-1.394-.624-1.394-1.394s.624-1.394,1.394-1.394c1.235,0,1.79-.296,2.497-.673l.019-.01Z" fill="#44911b"/><path d="M27.67,22.79H4.32c-1.283,0-2.325-1.042-2.325-2.325s1.042-2.325,2.325-2.325h23.35c1.283,0,2.325,1.042,2.325,2.325s-1.042,2.325-2.325,2.325Z" fill="#6d4534"/><path d="M27.429,17.268H4.561v.872l7.286,1.634c2.726.611,5.562.611,8.288,0l7.286-1.634v-.872h.01Z" fill="#fcd53f"/></svg>