<?xml version="1.0" encoding="UTF-8"?><svg id="a" xmlns="http://www.w3.org/2000/svg" viewBox="0 0 32 32"><path d="M10,9.332v-5.311c0-.29-.241-.523-.533-.523h-2.925c-.301,0-.543.232-.543.523v8.646l-1,.834v16h22v-15l-10.93-10.23-6.07,5.061Z" fill="#f3c07b" fill-rule="evenodd"/><path d="M15.92,27.501h-7.84c-.04,0-.08-.04-.08-.08v-10.53c0-.75.61-1.36,1.36-1.36h5.29c.75,0,1.36.61,1.36,1.36v10.53c-.01.04-.05.08-.09.08Z" fill="#8c5543"/><path d="M14.5,21.501c.276,0,.5-.224.5-.5s-.224-.5-.5-.5-.5.224-.5.5.224.5.5.5Z" fill="#402a32"/><path d="M15.96,28.501h-7.96c-.55,0-1-.45-1-1s.45-1,1-1h7.96c.55,0,1,.45,1,1s-.45,1-1,1Z" fill="#d3d3d3"/><path d="M30,29.501H2v-.09c0-1.06.85-1.91,1.91-1.91h24.18c1.05,0,1.91.85,1.91,1.91v.09Z" fill="#00f397"/><path d="M16.88,2.851l12.76,12.57c.48.47.48,1.23,0,1.69-.47.47-1.24.47-1.72,0l-11.9-11.72-11.94,11.76c-.47.47-1.24.47-1.72,0-.48-.47-.48-1.23,0-1.7L15.16,2.851c.47-.47,1.24-.47,1.72,0Z" fill="#f8312f"/><path d="M23.14,21.501h-4.28c-.48,0-.86-.38-.86-.86v-4.28c0-.47.38-.86.86-.86h4.28c.47,0,.86.38.86.86v4.28c0,.48-.38.86-.86.86Z" fill="#83cbff"/></svg>