<?xml version="1.0" encoding="UTF-8"?><svg id="a" xmlns="http://www.w3.org/2000/svg" viewBox="0 0 32 32"><path d="M16,2c-3.314,0-6,2.686-6,6v3c0,3.314,2.686,6,6,6s6-2.686,6-6v-3c0-3.314-2.686-6-6-6ZM16,4.5c1.933,0,3.5,1.567,3.5,3.5v3c0,1.933-1.567,3.5-3.5,3.5s-3.5-1.567-3.5-3.5v-3c0-1.933,1.567-3.5,3.5-3.5Z" fill="#d3d3d3"/><path d="M5,14c0-1.657,1.343-3,3-3h16c1.657,0,3,1.343,3,3v13c0,1.657-1.343,3-3,3H8c-1.657,0-3-1.343-3-3v-13Z" fill="#f9c23c"/><path d="M17.5,20.5c.607-.456,1-1.182,1-2,0-1.381-1.119-2.5-2.5-2.5s-2.5,1.119-2.5,2.5c0,.818.393,1.544,1,2v3.5c0,.828.672,1.5,1.5,1.5s1.5-.672,1.5-1.5v-3.5Z" fill="#433b6b"/></svg>