<?xml version="1.0" encoding="UTF-8"?><svg id="a" xmlns="http://www.w3.org/2000/svg" viewBox="0 0 32 32"><path d="M18.618,6.579c-2.66-1.46-5.97-.99-8.12,1.15l-2.77.077v2.703c-2.15,2.15-2.62,5.46-1.15,8.12,1.85,3.36,4.62,6.13,7.98,7.98,2.66,1.46,5.97.99,8.12-1.15l2.78-2.78c2.15-2.15,2.62-5.46,1.15-8.12-1.85-3.36-4.62-6.13-7.99-7.98Z" fill="#6d4534"/><path d="M22.158,14.869c-.99,0-1.91.38-2.61,1.08l-3.6,3.6c-.7.7-1.08,1.62-1.08,2.61s.38,1.91,1.08,2.61c.7.7,1.62,1.08,2.61,1.08s1.91-.38,2.61-1.08l3.6-3.6c.7-.7,1.08-1.62,1.08-2.61s-.38-1.91-1.08-2.61c-.7-.69-1.63-1.08-2.61-1.08Z" fill="#f8312f"/><path d="M10.178,2.949c.91,1.04.92,2.62.01,3.67-.19.21-.17.52.02.72l.34.34c-.017.016-.034.033-.05.05l-2.77,2.78-.045.045-.345-.345c-.2-.19-.51-.21-.72-.02-1.05.91-2.63.9-3.67-.01-1.22-1.08-1.26-2.94-.13-4.07.53-.54,1.23-.81,1.93-.82.29,0,.53-.24.54-.54.01-.7.28-1.4.82-1.94,1.13-1.12,2.99-1.08,4.07.14Z" fill="#d3d3d3"/><path d="M25.328,21.849c1.06-.92,2.65-.96,3.71-.04,1.23,1.08,1.28,2.95.15,4.07-.54.54-1.24.81-1.94.82-.3.01-.54.25-.54.54-.01.71-.28,1.4-.82,1.94-1.14,1.14-3.01,1.09-4.08-.14-.92-1.06-.88-2.65.04-3.71.16-.18.15-.45-.02-.62l-3.19-3.19c-.41-.41-.41-1.08,0-1.49l1.39-1.39c.41-.41,1.08-.41,1.49,0l3.19,3.19c.17.17.44.18.62.02Z" fill="#d3d3d3"/></svg>