<?xml version="1.0" encoding="UTF-8"?><svg id="a" xmlns="http://www.w3.org/2000/svg" viewBox="0 0 32 32"><path d="M15.98,30c-.57,0-1.025-.43-1.046-.98l-.075-2.02h-2.05c-.26,0-.47-.213-.47-.478v-.224c0-1.291,1.029-2.348,2.308-2.348h.098l-.054-1.443h-.973c-2.568,0-4.527-2.673-3.348-5.428.56-1.311,1.909-2.104,3.318-2.104h.723l-.054-1.443h-2.658c-2.568,0-4.527-2.673-3.348-5.428.56-1.311,1.909-2.104,3.318-2.104h2.407l-.075-2c-.042-1.09.86-2,1.999-2,1.129,0,2.03.91,1.999,2l-.075,2h5.606c.26,0,.47.213.47.478,0,1.423-1.129,2.572-2.528,2.572h-3.661l-.054,1.443h1.546c2.568,0,4.527,2.673,3.348,5.428-.56,1.311-1.909,2.104-3.318,2.104h-1.857l-.054,1.443h.811c2.568,0,4.527,2.673,3.348,5.428-.56,1.311-1.909,2.104-3.318,2.104h-1.122l-.075,2.02c-.021.55-.487.98-1.046.98h-.041ZM14.578,19.468l-.054-1.443h-.806c-.39,0-.709.325-.709.722s.33.722.709.722h.86ZM14.243,10.493l-.054-1.443h-2.491c-.39,0-.71.335-.71.722s.32.712.71.722h2.544ZM17.644,13.532l-.054,1.443h1.713c.39,0,.709-.325.709-.722s-.33-.722-.709-.722h-1.659ZM17.31,22.507l-.054,1.443h.978c.38,0,.71-.325.71-.722s-.33-.722-.71-.722h-.924Z" fill="#00a6ed"/><path d="M22.002,7.79c-.28,0-.5-.22-.5-.5s.23-.5.5-.5.5.22.5.5c0,.27-.23.5-.5.5Z" fill="#fff"/></svg>