<?xml version="1.0" encoding="UTF-8"?><svg id="a" xmlns="http://www.w3.org/2000/svg" viewBox="0 0 32 32"><path d="M20.343,2.293c-.188-.188-.442-.293-.707-.293H7c-1.105,0-2,.895-2,2v24c0,1.105.895,2,2,2h18c1.105,0,2-.895,2-2V9.364c0-.265-.105-.52-.293-.707l-6.364-6.364Z" fill="#b4acbc"/><path d="M19.682,3H7c-.552,0-1,.448-1,1v24c0,.552.448,1,1,1h18c.552,0,1-.448,1-1V9.453l-6.318-6.453Z" fill="#f3eef8"/><path d="M9.5,12h13c.276,0,.5.224.5.5s-.224.5-.5.5h-13c-.276,0-.5-.224-.5-.5s.224-.5.5-.5ZM9.5,15c-.276,0-.5.224-.5.5s.224.5.5.5h13c.276,0,.5-.224.5-.5s-.224-.5-.5-.5h-13ZM9,18.5c0-.276.224-.5.5-.5h13c.276,0,.5.224.5.5s-.224.5-.5.5h-13c-.276,0-.5-.224-.5-.5ZM9.5,21c-.276,0-.5.224-.5.5s.224.5.5.5h8c.276,0,.5-.224.5-.5s-.224-.5-.5-.5h-8Z" fill="#998ea4"/><path d="M26,9.453h-4.611c-.943,0-1.707-.764-1.707-1.707V3l6.318,6.453Z" fill="#cdc4d6"/><path d="M26.766,20.172l-1.08-3.231-2.796-2.006-10.608,7.849,1.148,3.156,2.727,2.081,10.608-7.849Z" fill="#ff822d"/><path d="M11.106,26.654l.172.893.835.468,4.039-.006-3.86-5.216-1.186,3.861Z" fill="#ffce7c"/><path d="M10.686,28.018l.419-1.363,1.007,1.361-1.426.002Z" fill="#402a32"/><path d="M26.521,12.248c.888-.657,2.14-.47,2.797.418l1.496,2.022c.657.888.47,2.14-.418,2.797l-2.059,1.523-2.805-2.069-1.071-3.169,2.059-1.523Z" fill="#f92f60"/><path d="M24.462,13.772l3.876,5.238-1.571,1.163-3.876-5.238,1.571-1.163Z" fill="#d3d3d3"/></svg>