<?xml version="1.0" encoding="UTF-8"?><svg id="a" xmlns="http://www.w3.org/2000/svg" viewBox="0 0 32 32"><path d="M4.718,18.023c.397-.565,1.177-.702,1.742-.305l12.071,8.475-1.437,2.047-12.071-8.475c-.565-.397-.702-1.177-.305-1.742Z" fill="#5092ff"/><path d="M18.501,2.803c.329-.444.96-.544,1.41-.223l1.673,1.191c.45.32.548.94.219,1.383l-8.693,11.726c-.667.899-1.946,1.102-2.858.453-.912-.649-1.111-1.905-.444-2.804L18.501,2.803Z" fill="#636363"/><path d="M18.047,3.666c-1.209-.352-2.667.195-3.45,1.251l-2.822,3.807.225,1.276-1.398.306-.203.274c-1.325,1.787-.921,4.289.903,5.587,1.824,1.299,4.376.902,5.701-.885l.16-.215-.162-1.567h1.324l.164-.221c3.504.651,5.38,3.572,5.475,6.576.052,1.65-.442,3.276-1.482,4.535-1.027,1.243-2.669,2.229-5.101,2.459-.834.079-1.449.847-1.373,1.715.076.869.813,1.509,1.648,1.43,3.129-.296,5.531-1.613,7.126-3.544,1.582-1.915,2.289-4.335,2.214-6.698-.123-3.895-2.389-7.767-6.49-9.192l.696-.939c.783-1.057.863-2.584.148-3.603l-3.302-2.351Z" fill="#bebebe"/><path d="M2,29.2c0-1.767,1.433-3.2,3.2-3.2h21.6c1.767,0,3.2,1.433,3.2,3.2,0,.442-.358.8-.8.8H2.8c-.442,0-.8-.358-.8-.8Z" fill="#9b9b9b"/><path d="M11.776,8.709l6.559,4.765-1.175,1.618-6.559-4.765,1.176-1.618Z" fill="#d3d3d3"/></svg>