<?xml version="1.0" encoding="UTF-8"?><svg id="a" xmlns="http://www.w3.org/2000/svg" viewBox="0 0 32 32"><path d="M9.295,7.376c-.59.13-1.17-.25-1.3-.84l-.69-3.21c-.13-.59.25-1.17.84-1.3.59-.13,1.17.25,1.3.84l.69,3.21c.13.59-.25,1.18-.84,1.3Z" fill="#00d26a"/><path d="M11.905,8.256c-.3-.52-.12-1.19.4-1.49l2.84-1.64c.52-.3,1.19-.12,1.49.4s.12,1.19-.4,1.49l-2.84,1.64c-.52.3-1.19.12-1.49-.4Z" fill="#00d26a"/><path d="M14.225,12.606c-.46.39-.5,1.09-.11,1.54.39.45,1.09.5,1.54.11l2.47-2.15c.46-.39.5-1.09.11-1.54-.39-.46-1.09-.5-1.54-.11l-2.47,2.15Z" fill="#00d26a"/><path d="M21.935,15.776c-.58-.14-.94-.74-.8-1.32l.79-3.18c.14-.58.74-.94,1.32-.8s.94.74.8,1.32l-.79,3.18c-.14.59-.74.95-1.32.8Z" fill="#00d26a"/><path d="M25.445,16.306c-.58.17-.91.78-.74,1.36s.78.92,1.36.74l3.15-.92c.58-.17.91-.78.74-1.36s-.78-.91-1.36-.74l-3.15.92Z" fill="#00d26a"/><path d="M24.005,21.976c.43-.43,1.12-.43,1.55,0l2.32,2.32c.43.43.43,1.12,0,1.55s-1.12.43-1.55,0l-2.32-2.32c-.43-.43-.43-1.13,0-1.55Z" fill="#00d26a"/><path d="M20.465,24.705c0-.6-.49-1.09-1.09-1.09s-1.09.49-1.09,1.09v3.28c0,.6.49,1.09,1.09,1.09s1.09-.49,1.09-1.09v-3.28Z" fill="#00d26a"/><path d="M13.855,22.656c.52.3.7.97.4,1.49l-1.64,2.84c-.3.52-.97.7-1.49.4-.52-.3-.7-.97-.4-1.49l1.64-2.84c.3-.52.97-.7,1.49-.4Z" fill="#00d26a"/><path d="M9.715,20.736c.46-.39.5-1.09.11-1.54-.39-.45-1.09-.5-1.54-.11l-2.47,2.15c-.46.39-.5,1.09-.11,1.54.39.46,1.09.5,1.54.11l2.47-2.15Z" fill="#00d26a"/><path d="M7.725,15.005c.17.58-.16,1.19-.74,1.36l-3.15.92c-.58.17-1.19-.16-1.36-.74-.17-.58.16-1.19.74-1.36l3.15-.92c.58-.17,1.19.16,1.36.74Z" fill="#00d26a"/><path d="M6.245,10.656c.6.06,1.13-.38,1.19-.98.06-.6-.39-1.13-.98-1.19l-3.26-.31c-.6-.06-1.13.38-1.19.98-.06.6.38,1.13.98,1.19l3.26.31Z" fill="#00d26a"/><path d="M21.465,13.045c-.18-.01-.49.01-.91.04-1.08.09-3.34.27-4.33-.53-1.05-.85-1.06-1.44-1.09-2.52v-.25l-.02-.33c-.01-.12-.03-.23-.05-.3-.36-2.58-2.57-4.52-5.18-4.52-1.45,0-2.79.59-3.77,1.61l-.02-.02-.14.21c-.19.21-.35.44-.51.69l-.47.95c-.42,1.17-.47,2.59-.47,3.96,0,7.89,6.42,14.31,14.31,14.31,1,0,2.69-.25,3.73-.48.1-.02.2-.04.38-.09.22-.05.46-.12.69-.21,2.53-.94,4.23-3.37,4.23-6.05.01-3.57-2.89-6.47-6.38-6.47Z" fill="#00f397"/><path d="M11.395,9.845c0,.602-.488,1.09-1.09,1.09s-1.09-.488-1.09-1.09.488-1.09,1.09-1.09,1.09.488,1.09,1.09Z" fill="#00a6ed"/><path d="M17.275,20.445c0,.602-.488,1.09-1.09,1.09s-1.09-.488-1.09-1.09.488-1.09,1.09-1.09,1.09.488,1.09,1.09Z" fill="#00a6ed"/><path d="M17.515,17.996c.602,0,1.09-.488,1.09-1.09s-.488-1.09-1.09-1.09-1.09.488-1.09,1.09.488,1.09,1.09,1.09Z" fill="#00a6ed"/><path d="M22.315,19.355c0,.906-.734,1.64-1.64,1.64s-1.64-.734-1.64-1.64.734-1.64,1.64-1.64,1.64.734,1.64,1.64Z" fill="#00a6ed"/></svg>