<?xml version="1.0" encoding="UTF-8"?><svg id="a" xmlns="http://www.w3.org/2000/svg" viewBox="0 0 32 32"><path d="M15.999,29.998c9.334,0,13.999-6.267,13.999-13.999S25.333,2,15.999,2,2,8.268,2,15.999s4.664,13.999,13.999,13.999Z" fill="#ffb02e"/><path d="M15.999,26c-7,0-7-7-7-7h14s0,7-7,7Z" fill="#bb1d80"/><path d="M16.015,31c5,0,4.87-6.2,5-7.25.1-.85-.35-1.28-.84-1.57-.49-.29-1.96-.56-4.16-.56s-3.66.27-4.16.56c-.5.29-.95.72-.84,1.57.13,1.05,0,7.25,5,7.25Z" fill="#00d26a"/><path d="M22.859,20.43c.09-.46.14-.94.14-1.43h-14c0,.49.05.96.14,1.43h13.72Z" fill="#fff"/><path d="M10.75,6c.414,0,.75.336.75.75v.8c1.141.232,2,1.241,2,2.45v.25c0,.414-.336.75-.75.75s-.75-.336-.75-.75v-.25c0-.552-.448-1-1-1h-.5c-.552,0-1,.448-1,1v.205c0,.504.376.93.876.992l.934.117c1.251.156,2.19,1.22,2.19,2.481v.205c0,1.21-.859,2.218-2,2.45v.8c0,.414-.336.75-.75.75s-.75-.336-.75-.75v-.8c-1.141-.232-2-1.241-2-2.45v-.25c0-.414.336-.75.75-.75s.75.336.75.75v.25c0,.552.448,1,1,1h.5c.552,0,1-.448,1-1v-.205c0-.504-.375-.93-.876-.992l-.934-.117c-1.251-.156-2.19-1.22-2.19-2.481v-.205c0-1.209.859-2.218,2-2.45v-.8c0-.414.336-.75.75-.75Z" fill="#402a32"/><path d="M21.25,6c.414,0,.75.336.75.75v.8c1.141.232,2,1.241,2,2.45v.25c0,.414-.336.75-.75.75s-.75-.336-.75-.75v-.25c0-.552-.448-1-1-1h-.5c-.552,0-1,.448-1,1v.205c0,.504.375.93.876.992l.934.117c1.251.156,2.19,1.22,2.19,2.481v.205c0,1.21-.859,2.218-2,2.45v.8c0,.414-.336.75-.75.75s-.75-.336-.75-.75v-.8c-1.141-.232-2-1.241-2-2.45v-.25c0-.414.336-.75.75-.75s.75.336.75.75v.25c0,.552.448,1,1,1h.5c.552,0,1-.448,1-1v-.205c0-.504-.375-.93-.876-.992l-.934-.117c-1.251-.156-2.19-1.22-2.19-2.481v-.205c0-1.209.859-2.218,2-2.45v-.8c0-.414.336-.75.75-.75Z" fill="#402a32"/><path d="M16.5,23c0-.276-.224-.5-.5-.5s-.5.224-.5.5v.5c0,.022.001.043.004.064-.582.18-1.004.722-1.004,1.363,0,.541.305,1.035.789,1.276l.975.488c.145.072.236.22.236.382,0,.236-.191.427-.427.427h-.073c-.276,0-.5-.224-.5-.5s-.224-.5-.5-.5-.5.224-.5.5c0,.656.421,1.213,1.007,1.417-.004.027-.007.055-.007.083v.5c0,.276.224.5.5.5s.5-.224.5-.5v-.5c0-.022-.001-.043-.004-.064.582-.18,1.004-.722,1.004-1.363,0-.541-.305-1.035-.789-1.276l-.975-.488c-.145-.072-.236-.22-.236-.382,0-.236.191-.427.427-.427h.073c.276,0,.5.224.5.5s.224.5.5.5.5-.224.5-.5c0-.656-.421-1.213-1.007-1.417.004-.027.007-.055.007-.083v-.5Z" fill="#402a32"/></svg>