<?xml version="1.0" encoding="UTF-8"?><svg id="a" xmlns="http://www.w3.org/2000/svg" viewBox="0 0 32 32"><path d="M16.922,18.435c.13.3.11.63-.06.91l-.06.1c-.13.22-.44.24-.59.04l-.21-.25-.21.25c-.15.2-.46.18-.59-.04l-.06-.1c-.17-.28-.19-.61-.06-.91l-2.41-6.84,1.56-.55,1.77,5.02,1.77-5.02,1.56.55-2.41,6.84Z" fill="#ffc83d"/><path d="M6.876,19.725c.11.14.32.16.46.05s.16-.32.05-.46l-.35-.44c-.11-.14-.32-.16-.46-.05s-.16.32-.05.46l.35.44Z" fill="#ffa100"/><path d="M8.906,8.975l.1,1.33.09,1.04c-.03.01-1.7,1.39-1.17,6.89.02.24.07.73.1.95.01.17-.38.24-.51.07-.035-.052-.064-.145-.094-.242-.057-.182-.119-.381-.236-.368-.3.03-.17.52-.17.52,0,0,.14.71.16.87.03.32-.43.41-.56.18-.16-.29-.31-.59-.4-1.02-.05-.22-.14-.91-.14-.91-.631-7.673,1.217-8.541,2.452-9.122.135-.063.262-.123.378-.188Z" fill="#ffc83d"/><path d="M11.046,30.015v-1.57l.928-.372,1.022.372s-.25.18.91,1c.22.15.11.57.11.57h-2.97Z" fill="#533566"/><path d="M10.016,30.015v-1.57l-.995-.336-1.015.336s.07.32-.92,1c-.22.15-.11.57-.11.57h3.04Z" fill="#533566"/><path d="M7.536,15.985l.48,12.46h2.01l.27-10.37c0-.38.46-.36.46,0l.29,10.37h1.94l.53-12.468-2.911-.837-3.068.845h-.001Z" fill="#636363"/><path d="M16.525,19.23c-.094.151-.301.194-.452.1s-.204-.299-.1-.452l.3-.476c.094-.151.301-.194.452-.1s.194.301.1.452l-.3.476Z" fill="#ffa100"/><path d="M14.902,12.495c.007.09-.05.14-.1.14h-1.27l-.02,3.35h-5.98v-3.35h-1.39c0-1.15.63-2.2,1.39-2.97.77-.78,1.83-1.26,3-1.26s2.23.49,3,1.26c.73.74,1.33,1.73,1.37,2.83Z" fill="#ff6723"/><path d="M10.516,9.395c-.5,0-.91-.41-.91-.91v-.6h1.82v.6c0,.5-.41.91-.91.91Z" fill="#fcb100"/><path d="M12.521,7.213c0-.065.002-.132.013-.198l.04-.737c.13-.01.352-.06.452-.13v.507c0,.37-.21.7-.55.85.043-.091.044-.19.045-.292Z" fill="#f1a11e"/><path d="M8.006,6.151c.11.08.312.13.462.13l.04.734c.005.048.008.096.01.143.006.128.012.25.078.367-.36-.15-.59-.49-.59-.87v-.504Z" fill="#f1a11e"/><path d="M9.136,5.665c0,.398-.322.72-.72.72s-.72-.322-.72-.72.322-.72.72-.72.72.322.72.72Z" fill="#fdbb11"/><path d="M13.336,5.665c0,.398-.322.72-.72.72s-.72-.322-.72-.72.322-.72.72-.72.72.322.72.72Z" fill="#fdbb11"/><path d="M11.006,2.505h-.96c-1.08,0-1.89.9-1.77,2.02l.16,2.48c.11.85.83,1.48,1.68,1.48h.82c.85,0,1.57-.63,1.68-1.47l.15-2.48c.15-1.08-.68-2.03-1.76-2.03Z" fill="#ffc83d"/><path d="M8.946,4.76c.02.014.044.022.068.021.026,0,.05-.009.071-.025.187-.13.417-.182.642-.146.031.003.061-.006.086-.024.024-.019.041-.046.046-.076.002-.015.001-.031-.003-.046-.004-.015-.011-.029-.02-.041-.009-.012-.021-.023-.034-.03-.013-.008-.028-.013-.043-.015-.288-.044-.581.025-.818.194-.019.015-.033.036-.04.059-.007.023-.006.048.002.071s.023.043.043.057h0Z" fill="#d37034"/><path d="M11.951,4.756c.021.016.046.025.073.025.017,0,.035-.004.05-.011.016-.007.03-.018.041-.032.019-.024.028-.056.024-.086-.003-.031-.019-.059-.043-.079-.239-.166-.531-.235-.819-.194-.015.002-.03.007-.043.015s-.025.018-.034.03-.016.026-.02.041-.005.03-.003.046c.002.015.007.03.015.043s.018.025.03.034c.012.009.026.016.041.02.015.004.03.005.046.002.225-.036.455.016.642.145h0Z" fill="#d37034"/><path d="M8.886,5.535c.06-.26.3-.46.59-.46s.54.21.6.49c.01.06-.04.12-.1.12h-.98c-.08,0-.14-.07-.11-.15Z" fill="#fff"/><path d="M12.156,5.535c-.06-.26-.3-.46-.59-.46-.3,0-.54.21-.6.49-.01.06.04.12.1.12h.98c.08,0,.13-.07.11-.15Z" fill="#fff"/><path d="M9.166,5.585c0-.22.18-.4.4-.4.21,0,.39.18.39.4,0,.03-.01.07-.03.1h-.75c0-.014-.002-.028-.004-.043-.003-.017-.005-.036-.005-.057h-.001Z" fill="#7d4533"/><path d="M11.866,5.585c0-.21-.17-.39-.39-.39-.21,0-.39.18-.39.4,0,.03,0,.07.01.09h.76c0-.014.002-.028.004-.043.003-.017.006-.036.006-.057Z" fill="#7d4533"/><path d="M9.566,5.365c.12,0,.22.1.22.22,0,.015-.002.033-.005.05-.002.017-.005.035-.005.05h-.4c-.02-.03-.03-.06-.03-.1,0-.12.1-.22.22-.22Z"/><path d="M11.476,5.365c-.12,0-.22.1-.22.22,0,.015.002.033.005.05s.005.035.005.05h.4c.02-.03.03-.06.03-.1,0-.12-.1-.22-.22-.22Z"/><path d="M9.496,5.425c0,.039-.031.07-.07.07s-.07-.031-.07-.07.031-.07.07-.07.07.031.07.07Z" fill="#fff"/><path d="M11.426,5.425c0,.039-.031.07-.07.07s-.07-.031-.07-.07.031-.07.07-.07.07.031.07.07Z" fill="#fff"/><path d="M10.356,5.545l-.23.74c-.04.15.07.3.23.3h.34c.16,0,.27-.15.22-.3l-.23-.74c-.05-.16-.28-.16-.33,0Z" fill="#ed9200"/><path d="M10.516,6.995c-.23,0-.45-.06-.63-.15-.06-.03-.13.04-.09.1.15.24.42.39.72.39s.57-.16.73-.39c.04-.06-.03-.13-.09-.1-.19.1-.4.15-.64.15Z" fill="#990839"/><path d="M13.196,3.395c-.13-.22-.33-.38-.55-.46-.25-.08-.46-.24-.6-.46-.18-.29-.5-.49-.87-.49-.14,0-.28.03-.4.08-.17.07-.36.07-.52,0-.12-.05-.26-.08-.4-.08-.37,0-.68.19-.87.48-.14.22-.35.39-.6.48-.24.08-.44.24-.57.48-.18.35-.15.76.06,1.06.08.11.12.24.12.38v.22c.09-.06.19-.11.3-.12v-.36c0-.81.65-1.46,1.46-1.46h.56c.12,0,.23.07.27.18.17.38.55.62.97.62h.61c.33.01.6.29.6.62l-.03.4h.03c.1.02.19.06.26.12v-.22c0-.13.04-.27.12-.38.22-.31.26-.74.05-1.09Z" fill="#f1a11e"/><path d="M25.474,19.285c.11-.14.09-.35-.05-.46s-.35-.09-.46.05l-.35.44c-.11.14-.09.35.05.46s.35.09.46-.05l.35-.44Z" fill="#ffa100"/><path d="M23.472,9.163c1.235.581,3.083,1.449,2.452,9.122,0,0-.09.69-.14.91-.09.43-.24.73-.4,1.02-.13.23-.59.14-.56-.18.02-.16.16-.87.16-.87,0,0,.13-.49-.17-.52-.117-.013-.179.186-.236.368-.03.097-.059.19-.094.242-.13.17-.52.1-.51-.07.03-.22.08-.71.1-.95.53-5.5-1.14-6.88-1.17-6.89l.09-1.04.1-1.33c.116.065.243.125.378.188Z" fill="#ffc83d"/><path d="M17.984,30.015s-.11-.42.11-.57c1.16-.82.91-1,.91-1l1.022-.372.928.372v1.57h-2.97Z" fill="#533566"/><path d="M25.024,30.015s.11-.42-.11-.57c-.99-.68-.92-1-.92-1l-1.015-.336-.995.336v1.57s3.04,0,3.04,0Z" fill="#533566"/><path d="M24.463,15.985l-3.068-.845-2.911.837.53,12.468h1.94s.29-10.37.29-10.37c0-.36.46-.38.46,0l.27,10.37h2.01s.48-12.46.48-12.46h-.001Z" fill="#636363"/><path d="M17.098,12.495c-.007.09.05.14.1.14h1.27l.02,3.35h5.98s0-3.35,0-3.35h1.39c0-1.15-.63-2.2-1.39-2.97-.77-.78-1.83-1.26-3-1.26s-2.23.49-3,1.26c-.73.74-1.33,1.73-1.37,2.83Z" fill="#ff6723"/><path d="M20.574,8.485v-.6h1.82v.6c0,.5-.41.91-.91.91s-.91-.41-.91-.91Z" fill="#fcb100"/><path d="M19.524,7.505c-.34-.15-.55-.48-.55-.85v-.507c.1.07.322.12.452.13l.04.737c.011.066.013.133.013.198,0,.102.002.201.045.292Z" fill="#f1a11e"/><path d="M23.994,6.655c0,.38-.23.72-.59.87.066-.117.072-.239.078-.367.002-.047.005-.095.01-.143l.04-.734c.15,0,.352-.05.462-.13v.504Z" fill="#f1a11e"/><path d="M23.584,4.945c.398,0,.72.322.72.72s-.322.72-.72.72-.72-.322-.72-.72.322-.72.72-.72Z" fill="#fdbb11"/><path d="M19.384,4.945c.398,0,.72.322.72.72s-.322.72-.72.72-.72-.322-.72-.72.322-.72.72-.72Z" fill="#fdbb11"/><path d="M19.234,4.535l.15,2.48c.11.84.83,1.47,1.68,1.47h.82c.85,0,1.57-.63,1.68-1.48l.16-2.48c.12-1.12-.69-2.02-1.77-2.02h-.96c-1.08,0-1.91.95-1.76,2.03Z" fill="#ffc83d"/><path d="M23.054,4.759c.02-.014.035-.034.043-.057s.009-.048.002-.071c-.007-.023-.021-.044-.04-.059-.237-.169-.53-.238-.818-.194-.015.002-.03.007-.043.015-.013.007-.025.018-.034.03-.009.012-.016.026-.02.041-.004.015-.005.031-.003.046.005.03.022.057.046.076.025.018.055.027.086.024.225-.036.455.016.642.146.021.016.045.025.071.025.024,0,.048-.007.068-.021h0Z" fill="#d37034"/><path d="M20.049,4.755c.187-.129.417-.181.642-.145.016.003.031.002.046-.002.015-.004.029-.011.041-.02.012-.009.022-.021.03-.034s.013-.028.015-.043c.002-.016,0-.031-.003-.046s-.011-.029-.02-.041-.021-.022-.034-.03-.028-.013-.043-.015c-.288-.041-.58.028-.819.194-.024.02-.04.048-.043.079-.004.03.005.062.024.086.011.014.025.025.041.032.015.007.033.011.05.011.027,0,.052-.009.073-.025h0Z" fill="#d37034"/><path d="M23.004,5.685h-.98c-.06,0-.11-.06-.1-.12.06-.28.31-.49.6-.49s.53.2.59.46c.03.08-.03.15-.11.15Z" fill="#fff"/><path d="M19.954,5.685h.98c.06,0,.11-.06.1-.12-.06-.28-.3-.49-.6-.49-.29,0-.53.2-.59.46-.02.08.03.15.11.15Z" fill="#fff"/><path d="M22.833,5.585c0,.021-.002.04-.005.057-.002.015-.004.029-.004.043h-.75c-.02-.03-.03-.07-.03-.1,0-.22.18-.4.39-.4.22,0,.4.18.4.4h-.001Z" fill="#7d4533"/><path d="M20.14,5.642c.002.015.004.029.004.043h.76c.01-.02.01-.06.01-.09,0-.22-.18-.4-.39-.4-.22,0-.39.18-.39.39,0,.021.003.04.006.057Z" fill="#7d4533"/><path d="M22.654,5.585c0,.04-.01.07-.03.1h-.4c0-.015-.003-.033-.005-.05-.003-.017-.005-.035-.005-.05,0-.12.1-.22.22-.22.12,0,.22.1.22.22Z"/><path d="M20.304,5.585c0,.04.01.07.03.1h.4c0-.015.002-.033.005-.05s.005-.035.005-.05c0-.12-.1-.22-.22-.22-.12,0-.22.1-.22.22Z"/><path d="M22.574,5.355c.039,0,.07.031.07.07,0,.039-.031.07-.07.07s-.07-.031-.07-.07.031-.07.07-.07Z" fill="#fff"/><path d="M20.644,5.355c.039,0,.07.031.07.07,0,.039-.031.07-.07.07s-.07-.031-.07-.07.031-.07.07-.07Z" fill="#fff"/><path d="M21.314,5.545l-.23.74c-.05.15.06.3.22.3h.34c.16,0,.27-.15.23-.3l-.23-.74c-.05-.16-.28-.16-.33,0Z" fill="#ed9200"/><path d="M20.844,6.845c-.06-.03-.13.04-.09.1.16.23.43.39.73.39s.57-.15.72-.39c.04-.06-.03-.13-.09-.1-.18.09-.4.15-.63.15-.24,0-.45-.05-.64-.15Z" fill="#990839"/><path d="M18.854,4.485c.08.11.12.25.12.38v.22c.07-.06.16-.1.26-.12h.03l-.03-.4c0-.33.27-.61.6-.62h.61c.42,0,.8-.24.97-.62.04-.11.15-.18.27-.18h.56c.81,0,1.46.65,1.46,1.46v.36c.11.01.21.06.3.12v-.22c0-.14.04-.27.12-.38.21-.3.24-.71.06-1.06-.13-.24-.33-.4-.57-.48-.25-.09-.46-.26-.6-.48-.19-.29-.5-.48-.87-.48-.14,0-.28.03-.4.08-.16.07-.35.07-.52,0-.12-.05-.26-.08-.4-.08-.37,0-.69.2-.87.49-.14.22-.35.38-.6.46-.22.08-.42.24-.55.46-.21.35-.17.78.05,1.09Z" fill="#f1a11e"/></svg>