<?xml version="1.0" encoding="UTF-8"?><svg id="a" xmlns="http://www.w3.org/2000/svg" viewBox="0 0 32 32"><path d="M11,30v-2.5l-1.898.5s-.53.38-1.917,1.2c-.307.18-.14.8-.14.8h3.954Z" fill="#533566"/><path d="M21.01,30l-.01-2.5,1.892.5s.359.38,1.92,1.2c.312.16.142.8.142.8h-3.944Z" fill="#533566"/><path d="M14.5,14.878l-2.177,1.122L7.861,7.013c-.254-.516-.059-.665.439-.924l.244-.06c-.488.248,2.314,1.509,1.552-.03l4.403,8.878Z" fill="#ffc83d"/><path d="M17.5,14.878l2.177,1.122,4.462-8.987c.254-.516.059-.665-.439-.924l-.244-.06c.488.248-2.314,1.509-1.552-.03l-4.403,8.878Z" fill="#ffc83d"/><path d="M21.155,13.483c.053-.121.004-.262-.112-.324l-2.543-1.359-.5,2.2.04.07c-.59-.37-1.29-.6-2.04-.6-.74,0-1.43.22-2.02.59l.03-.06-.46-2.2-2.59,1.36c-.118.062-.167.203-.114.325.292.67,1.155,2.744,1.155,3.865v4.65h8v-4.65c0-1.122.864-3.198,1.155-3.867Z" fill="#ff6723"/><path d="M13.4,13c.13.09.28.15.45.15l.05.72c.03.21.08.4.17.58-.4-.16-.67-.55-.67-.99v-.46Z" fill="#f1a11e"/><path d="M18,14.43c.08-.17.13-.36.16-.56l.05-.72c.15-.01.3-.06.42-.15v.46c0,.42-.25.8-.63.97Z" fill="#f1a11e"/><path d="M14.5,12.82c0,.414-.336.75-.75.75s-.75-.336-.75-.75.336-.75.75-.75.75.336.75.75Z" fill="#fdbb11"/><path d="M19,12.82c0,.414-.336.75-.75.75s-.75-.336-.75-.75.336-.75.75-.75.75.336.75.75Z" fill="#fdbb11"/><path d="M16.53,9.28h-1.064c-1.189,0-2.088,1.019-1.953,2.286l.174,2.801c.126.95.918,1.663,1.856,1.663h.909c.938,0,1.731-.713,1.856-1.663l.174-2.801c.155-1.217-.764-2.286-1.953-2.286Z" fill="#ffc83d"/><path d="M15.993,14.681c-.24,0-.453-.06-.64-.17-.062-.04-.133.04-.089.11.16.27.427.45.738.45s.578-.18.738-.45c.036-.07-.027-.15-.089-.11-.205.11-.418.17-.658.17Z" fill="#990839"/><path d="M15.82,13.135l-.26.84c-.05.17.08.35.25.35h.38c.18,0,.31-.17.25-.35l-.26-.84c-.04-.18-.3-.18-.36,0Z" fill="#ed9200"/><path d="M14.253,13.19c.074-.286.323-.49.628-.49.314,0,.582.222.628.517.018.074-.037.129-.102.129h-1.035c-.074,0-.139-.074-.12-.157Z" fill="#fff"/><path d="M17.76,13.19c-.074-.286-.323-.49-.628-.49-.314,0-.582.222-.628.517-.018.074.037.129.102.129h1.035c.074,0,.139-.074.12-.157Z" fill="#fff"/><path d="M14.567,13.236c0-.231.185-.416.416-.416.222,0,.406.185.416.416,0,.037-.009.074-.018.111h-.795c-.009-.037-.019-.074-.019-.111Z" fill="#7d4533"/><path d="M17.446,13.236c0-.231-.185-.416-.416-.416-.222,0-.407.185-.416.416,0,.037.009.074.018.111h.795c.009-.037.018-.074.018-.111Z" fill="#7d4533"/><path d="M14.908,13.069c0,.04-.033.073-.073.073s-.073-.033-.073-.073.033-.074.073-.074.073.033.073.074Z" fill="#fff"/><path d="M16.983,13.069c0,.041-.033.074-.074.074s-.073-.033-.073-.074.033-.073.073-.073.074.033.074.073Z" fill="#fff"/><path d="M14.974,12.996c.139,0,.24.111.24.24,0,.037-.009.074-.037.111h-.416c-.019-.037-.028-.074-.028-.111,0-.139.111-.24.24-.24Z"/><path d="M17.04,12.996c-.139,0-.24.111-.24.24,0,.037.009.074.037.111h.416c.018-.037.028-.074.028-.111,0-.139-.111-.24-.24-.24Z"/><path d="M14.322,12.03h.001s.01-.001.01-.001c.009-.001.025-.002.044-.003.039-.002.097-.002.167.007.139.017.324.066.506.195.062.044.147.029.191-.033.044-.062.029-.147-.033-.191-.228-.161-.458-.222-.632-.243-.087-.01-.16-.011-.212-.009-.026.001-.047.003-.062.005-.007,0-.014.002-.018.002h-.005s-.002.001-.002.001h-.001c-.075.013-.125.083-.113.158.013.075.083.125.158.113Z" fill="#d37034"/><path d="M17.864,11.944c.016-.074-.031-.147-.105-.163h-.001s-.002,0-.002,0h-.005s-.01-.003-.018-.004c-.015-.002-.035-.005-.061-.008-.052-.005-.124-.008-.211-.002-.173.013-.406.062-.644.212-.064.04-.083.125-.043.189.04.064.125.083.189.043.192-.121.379-.161.518-.171.07-.005.127-.003.165.001l.055.007c.074.016.146-.031.163-.105Z" fill="#d37034"/><path d="M23.05,20l-3.12,2h-7.81l-3.12-2,.45,3.17.55.93c2.26,1.35,3.39,1.9,6.02,1.9s3.72-.7,5.98-2.06l.5-.93.55-3.01Z" fill="#9b9b9b"/><path d="M9.14,28l-.46-5.04h2.93l-.61,5.04h-1.86Z" fill="#ffc83d"/><path d="M21,28l-.53-5.04h2.77l-.38,5.04h-1.86Z" fill="#ffc83d"/><path d="M18.853,10.61c-.14-.25-.354-.43-.587-.52-.261-.1-.485-.28-.634-.53-.186-.34-.531-.56-.932-.56-.149,0-.298.03-.429.09-.177.08-.382.08-.559,0-.13-.06-.27-.09-.429-.09-.391,0-.727.22-.923.54-.149.26-.373.45-.643.55-.252.09-.466.28-.606.56-.177.39-.14.86.084,1.21.068.105.111.224.126.345.094-.066.203-.11.322-.127v-.088c0-.92.699-1.67,1.556-1.67h.597c.13,0,.242.08.289.21.186.43.587.71,1.034.71h.652c.354.02.634.33.643.71l-.008.136c.108.023.206.069.292.132.012-.126.057-.249.127-.358.214-.36.242-.84.028-1.25Z" fill="#f1a11e"/><path d="M2,6.13c0-.072.058-.13.13-.13h.87v1h-.87c-.072,0-.13-.058-.13-.13v-.74Z" fill="#9b9b9b"/><path d="M26,6H6v1h20v-1Z" fill="#9b9b9b"/><path d="M29.87,6c.072,0,.13.058.13.13v.74c0,.072-.058.13-.13.13h-.87v-1h.87Z" fill="#9b9b9b"/><path d="M8.515,23h2.96c.283,0,.515-.232.525-.515v-1.485c0-1.101-.899-2-2-2s-2,.899-2,2v1.485c0,.283.232.515.515.515Z" fill="#533566"/><path d="M20.106,23h2.798c.333,0,.606-.273.596-.606v-1.394c0-1.101-.899-2-2-2s-2,.899-2,2v1.394c0,.333.273.606.606.606Z" fill="#533566"/><path d="M9.75,5.375c0-.207-.168-.375-.375-.375s-.375.168-.375.375v.125h-.007c-.035-.171-.186-.3-.368-.3s-.333.129-.368.3h-.029c-.051-.146-.19-.25-.354-.25-.207,0-.375.168-.375.375v.5c0,.207.168.375.375.375.163,0,.302-.104.354-.25h.022c.013.195.175.35.374.35s.361-.155.374-.35v.125c0,.207.169.375.376.375s.375-.168.375-.375c0,.207.168.375.375.375s.375-.168.375-.375v-.75c0-.207-.168-.375-.375-.375-.163,0-.302.104-.354.25h-.021v-.125Z" fill="#ffc83d"/><path d="M22.25,5.375c0-.207.168-.375.375-.375s.375.168.375.375v.125h.007c.035-.171.186-.3.368-.3s.333.129.368.3h.029c.052-.146.19-.25.354-.25.207,0,.375.168.375.375v.5c0,.207-.168.375-.375.375-.163,0-.302-.104-.354-.25h-.022c-.013.195-.176.35-.374.35s-.361-.155-.374-.35v.125c0,.207-.169.375-.376.375s-.375-.168-.375-.375c0,.207-.168.375-.375.375s-.375-.168-.375-.375v-.75c0-.207.168-.375.375-.375.163,0,.302.104.354.25h.021v-.125Z" fill="#ffc83d"/><path d="M10.625,7.5c-.207,0-.375-.168-.375-.375s.168-.375.375-.375.375.168.375.375-.168.375-.375.375Z" fill="#f59f00"/><path d="M21.375,7.5c.207,0,.375-.168.375-.375s-.168-.375-.375-.375-.375.168-.375.375.168.375.375.375Z" fill="#f59f00"/><path d="M5.9,2c-.497,0-.9.403-.9.9v1.5c0-.497-.403-.9-.9-.9h-.2c-.497,0-.9.403-.9.9v4.2c0,.497.403.9.9.9h.2c.497,0,.9-.403.9-.9v1.5c0,.497.403.9.9.9h.2c.497,0,.9-.403.9-.9V2.9c0-.497-.403-.9-.9-.9h-.2Z" fill="#533566"/><path d="M25.9,2c-.497,0-.9.403-.9.9v7.2c0,.497.403.9.9.9h.2c.497,0,.9-.403.9-.9v-1.5c0,.497.403.9.9.9h.2c.497,0,.9-.403.9-.9v-4.2c0-.497-.403-.9-.9-.9h-.2c-.497,0-.9.403-.9.9v-1.5c0-.497-.403-.9-.9-.9h-.2Z" fill="#533566"/></svg>