<?xml version="1.0" encoding="UTF-8"?><svg id="a" xmlns="http://www.w3.org/2000/svg" viewBox="0 0 32 32"><path d="M15,2.62c0-.4-.312-.62-.702-.62l-1.798.1s-.118-.1-.5-.1c-1.106,0-2.439.966-3,1.5l-1.5,1.5,2.5,1.5c.868.579,1.484.237,2.188-.154.513-.285,1.073-.596,1.812-.596,1,0,1.2-.198,1.2-.9.2,0,.7-.35.4-.95,0,0,.456-.175.3-.8-.054-.215-.326-.48-.9-.48Z" fill="#ffc83d"/><path d="M16.933,2.62c0-.4.312-.62.702-.62l1.798.1s.118-.1.5-.1c1.106,0,2.439.966,3,1.5l1.5,1.5-2.5,1.5c-.868.579-1.484.237-2.188-.154-.513-.285-1.073-.596-1.812-.596-1,0-1.2-.198-1.2-.9-.2,0-.7-.35-.4-.95,0,0-.456-.175-.3-.8.054-.215.326-.48.9-.48Z" fill="#ffc83d"/><path d="M10.943,2.518c.01.033.045.052.078.042.802-.27,1.322-.419,1.482-.46,0,0-.028-.024-.101-.048-.038.008-.085.018-.138.031-.112.027-.255.065-.407.107-.304.083-.648.184-.872.25-.033.01-.052.045-.042.078Z" fill="#d67d00"/><path d="M14.405,4.462c.137,0,.301.024.442.088.218.099.356.239.356.299.018,0,.039-.003.062-.009,0-.001,0-.006,0-.011,0-.007,0-.015,0-.016-.057-.214-.203-.303-.366-.377-.162-.073-.346-.099-.496-.099l-1.404.1c-.035.002-.06.032-.058.067.002.034.032.06.067.058l1.398-.1Z" fill="#d67d00"/><path d="M15.307,3.636c-.109-.055-.229-.073-.304-.073h-2c-.035,0-.062-.028-.062-.062s.028-.062.062-.062h2c.091,0,.231.022.361.087.127.064.248.172.296.346-.034.021-.057.03-.057.03,0-.035-.059-.136-.296-.264Z" fill="#d67d00"/><path d="M11.944,3.02c.011.033.046.05.079.04,1.53-.447,2.624-.479,2.98-.439,0-.021,0-.042-.003-.063-.565-.257-2.513.216-3.017.384-.033.011-.05.046-.04.079Z" fill="#d67d00"/><path d="M20.993,2.518c-.01.033-.045.052-.078.042-.802-.27-1.322-.419-1.482-.46,0,0,.028-.024.101-.048.038.008.085.018.138.031.112.027.255.065.407.107.304.083.648.184.872.25.033.01.052.045.042.078Z" fill="#d67d00"/><path d="M17.53,4.462c-.137,0-.301.024-.442.088-.218.099-.356.239-.356.299-.018,0-.039-.003-.062-.009,0-.001,0-.006,0-.011,0-.007,0-.015,0-.016.056-.214.203-.303.366-.377.162-.073.346-.099.496-.099l1.404.1c.035.002.06.032.058.067-.002.034-.032.06-.067.058l-1.398-.1Z" fill="#d67d00"/><path d="M16.628,3.636c.109-.055.229-.073.304-.073h2c.035,0,.062-.028.062-.062s-.028-.062-.062-.062h-2c-.091,0-.231.022-.361.087-.127.064-.248.172-.296.346.034.021.057.03.057.03,0-.035.059-.136.296-.264Z" fill="#d67d00"/><path d="M19.992,3.02c-.011.033-.046.05-.079.04-1.53-.447-2.624-.479-2.98-.439,0-.021,0-.042.003-.063.565-.257,2.513.216,3.017.384.033.011.051.046.04.079Z" fill="#d67d00"/><path d="M25.47,6.27l-3.36,2.09-.88-1.43c-.09-.15-.05-.34.1-.43l2.83-1.76c.15-.09.34-.05.43.1l.88,1.43Z" fill="#f95725"/><path d="M6.54,6.28l3.35,2.08.89-1.42c.09-.15.05-.34-.1-.43l-2.83-1.76c-.15-.09-.34-.05-.43.1l-.88,1.43Z" fill="#f95725"/><path d="M28.67,9.801l-2.36-3.794c-.31-.497-.97-.655-1.47-.348l-2.84,1.738c-.5.308-.66.963-.35,1.46l2.36,3.794c.64,1.033.69,2.344.12,3.426l-3.27,6.187c-.087.167-.22.298-.379.384-1.319-.73-2.849-1.148-4.481-1.148-1.63.003-3.157.42-4.475,1.149-.159-.086-.292-.218-.384-.385l-3.27-6.187c-.57-1.072-.52-2.393.12-3.426l2.36-3.794c.31-.497.15-1.152-.35-1.46l-2.84-1.738c-.5-.308-1.16-.159-1.47.348l-2.36,3.794c-1.66,2.661-1.77,6.038-.31,8.809l3.61,6.822c.28.536.87,1.462.87,2.068,0,0-.5,1.25-.499,2.5h17.997c0-1.25-.499-2.5-.499-2.5,0-.596.62-1.572.9-2.108l3.58-6.773c1.46-2.781,1.35-6.157-.31-8.819Z" fill="#ff6723"/><path d="M9.729,16.646c.278.2.619.324.984.336l.098,1.589c.064.459.191.889.376,1.283-.88-.359-1.458-1.224-1.458-2.196v-1.013Z" fill="#f1a11e"/><path d="M22.271,16.646c-.278.2-.619.324-.984.336l-.098,1.589c-.064.459-.191.889-.376,1.283.88-.359,1.458-1.224,1.458-2.196v-1.013Z" fill="#f1a11e"/><path d="M16,24.5c-1.1,0-2-.841-2-1.886v-2.227c0-1.038.892-1.886,2-1.886,1.1,0,2,.841,2,1.886v2.227c-.008,1.045-.9,1.886-2,1.886Z" fill="#fcb100"/><path d="M12.5,15.333c0,.967-.783,1.75-1.75,1.75s-1.75-.783-1.75-1.75.783-1.75,1.75-1.75,1.75.784,1.75,1.75Z" fill="#fdbb11"/><path d="M23,15.333c0,.967-.784,1.75-1.75,1.75s-1.75-.783-1.75-1.75.784-1.75,1.75-1.75,1.75.784,1.75,1.75Z" fill="#fdbb11"/><path d="M17.205,7.312h-2.419c-2.71,0-4.756,2.269-4.442,5.081l.408,6.236c.28,2.123,2.087,3.704,4.226,3.704h2.052c2.139,0,3.946-1.581,4.226-3.704l.39-6.236c.361-2.689-1.731-5.081-4.442-5.081Z" fill="#ffc83d"/><path d="M11.925,14.964c.167-.657.766-1.148,1.474-1.148.737,0,1.353.525,1.492,1.223.029.156-.092.294-.248.294h-2.425c-.196,0-.34-.179-.294-.369Z" fill="#fff"/><path d="M20.075,14.964c-.167-.657-.766-1.148-1.474-1.148-.743,0-1.353.525-1.492,1.223-.029.156.092.294.248.294h2.425c.196,0,.34-.179.294-.369Z" fill="#fff"/><path d="M12.651,15.075c0-.54.438-.971.973-.971s.967.431.967.971c0,.092-.011.178-.035.259h-1.872c-.023-.086-.035-.167-.035-.259Z" fill="#7d4533"/><path d="M19.349,15.075c0-.54-.438-.971-.973-.971s-.973.431-.968.971c0,.092.012.178.035.259h1.872c.023-.086.035-.167.035-.259Z" fill="#7d4533"/><path d="M13.624,14.523c.305,0,.553.247.553.551,0,.092-.023.178-.063.259h-.979c-.04-.08-.063-.167-.063-.259,0-.304.248-.551.553-.551Z"/><path d="M18.37,14.523c-.305,0-.553.247-.553.551,0,.092.023.178.063.259h.979c.04-.08.063-.167.063-.259,0-.304-.248-.551-.553-.551Z"/><path d="M13.463,14.703c0,.097-.077.175-.173.175s-.173-.078-.173-.175.077-.175.173-.175.173.078.173.175Z" fill="#fff"/><path d="M18.243,14.703c0,.097-.077.175-.173.175s-.173-.078-.173-.175.077-.175.173-.175.173.078.173.175Z" fill="#fff"/><path d="M15.584,15.057l-.578,1.849c-.118.38.165.761.566.761h.855c.401,0,.684-.386.566-.761l-.578-1.849c-.124-.41-.702-.41-.832,0Z" fill="#ed9200"/><path d="M16,18.772c-.552,0-1.071-.13-1.507-.357-.149-.076-.309.092-.215.227.364.552.999.92,1.722.92s1.358-.368,1.722-.92c.094-.141-.066-.303-.215-.227-.436.227-.949.357-1.507.357Z" fill="#990839"/><path d="M21.28,8.398c.559.192,1.061.583,1.379,1.143.508.892.433,1.96-.115,2.747-.19.28-.294.613-.294.951v.657c-.203-.142-.438-.241-.692-.286l.052-1.118c-.012-.834-.669-1.523-1.5-1.557h-1.523c-1.038,0-1.979-.613-2.405-1.569-.11-.274-.375-.455-.669-.455h-1.384c-2.007,0-3.634,1.645-3.634,3.675v1.016c-.276.041-.531.146-.75.299v-.662c0-.338-.104-.671-.294-.951-.519-.764-.611-1.791-.156-2.66.317-.601.831-1.021,1.413-1.225.623-.222,1.154-.642,1.505-1.207.45-.717,1.24-1.196,2.146-1.196.352,0,.686.076.998.204.415.181.883.181,1.298,0,.306-.128.64-.204.992-.204.917,0,1.719.496,2.163,1.231.335.554.86.957,1.471,1.167Z" fill="#f1a11e"/><path d="M20.1,12.917c.102-.131.078-.321-.053-.423h-.002s-.003-.004-.003-.004l-.01-.007c-.008-.006-.019-.014-.032-.023-.027-.019-.066-.044-.115-.074-.098-.059-.239-.134-.417-.204-.356-.14-.865-.262-1.474-.187-.165.02-.283.171-.263.336.02.165.171.283.336.263.488-.06.895.037,1.18.15.143.056.254.116.328.16.037.022.064.04.082.052.009.006.015.01.018.013l.003.002c.132.101.32.078.422-.054Z" fill="#d37034"/><path d="M12.498,12.97c-.131.101-.32.078-.422-.054-.102-.131-.079-.321.053-.423h0s.001-.002.001-.002l.003-.002.01-.007c.008-.006.019-.014.032-.023.027-.019.066-.044.115-.074.098-.059.239-.134.417-.204.356-.14.865-.262,1.474-.187.165.02.283.171.263.336-.02.165-.171.283-.336.263-.488-.06-.895.037-1.18.15-.143.056-.254.116-.328.16-.037.022-.064.04-.082.052-.009.006-.015.01-.018.013l-.003.002Z" fill="#d37034"/></svg>