<?xml version="1.0" encoding="UTF-8"?><svg id="a" xmlns="http://www.w3.org/2000/svg" viewBox="0 0 32 32"><path d="M13.547,9.945c-.127-.053-.265-.072-.401-.053-.136.018-.265.073-.373.158l-2.423,1.888c-.021.311-.118.704-.477.728h-.52s-.17.36-.5.25c-.301-.127-.568-.322-.78-.57-.28-.33-.52-.87-.41-1.14.184-.275.422-.51.7-.69l.7-.52,2.29-1.754c.43-.337.944-.555,1.486-.628.538-.072,1.086,0,1.587.207l3.28,1.296-.289.731.431-.328c.952,1.249,2.36,2.07,3.916,2.282,1.449.197,2.915-.148,4.121-.962.059-.284.2-.659.538-.822.08-.055.177-.078.274-.066.096.013.184.061.247.136,0,0,.19-.36.52-.22.299.153.561.368.77.63.118.174.195.372.225.58.029.208.011.42-.055.62-.145.261-.347.487-.59.66l-.404.222c-1.715,1.249-3.849,1.788-5.955,1.501-2.154-.293-4.104-1.427-5.424-3.152l-2.47-.976-.011-.005Z" fill="#ffc83d"/><path d="M13.732,15.625l.45-.29c-.068.127-.125.259-.172.395l4.267,3.599,2.668-.024.657.561c.474.689.829,1.453,1.05,2.26l2.1,5.62-1.41.93-3.56-6.24-3.759-2.877-2.011,2.827c-.227.317-.543.561-.907.702-.364.14-.762.171-1.143.088l-6.2-1.39.61-1.73,5.45.48,2.044-4.019c.009-.267.057-.532.144-.786l-.278-.105Z" fill="#ffc83d"/><path d="M17.922,7.055l-1.05,2.05,2.1,1.1,1.05-2.1-2.1-1.05Z" fill="#fcb100"/><path d="M19.177,8.466c-.449-.242-.818-.6-1.065-1.034l-.35-1.284-.4-1.331c.003-.467.197-.913.542-1.243.345-.33.811-.516,1.298-.519h1.2c.244,0,.485.046.71.136.225.09.43.221.601.387.172.166.308.362.4.578.092.216.139.448.138.681v.718s0,0,0,0c.155.288.272.444.353.553.092.123.137.183.137.3-.015.114-.073.219-.163.295-.09.076-.207.117-.327.117-.001,0-.003,0-.004,0-.025,1.141-.21,1.983-1.596,1.983-.515.023-1.026-.094-1.475-.336Z" fill="#ffc83d"/><path d="M4.289,23.967l2.363-2.114-.085-1.861-1.145-.408c-.122-.044-.256-.038-.373.017-.117.055-.208.153-.253.275,0,0-1.092,2.995-1.263,3.631-.067.215.554.638.755.46Z" fill="#533566"/><path d="M27.652,27.205h-3.19l-1.11,1.51.54,1c.03.057.07.108.12.149s.107.072.168.091c.062.019.126.025.19.018.064-.007.126-.026.182-.058,0,0,2.8-1.5,3.36-1.86.18-.12,0-.85-.26-.85Z" fill="#533566"/><path d="M17.012,18.265l-2.5,3.44-2.24-1.42c-.261-.17-.446-.436-.516-.74-.069-.304-.017-.624.146-.89l1.93-3.19,3.18,2.8Z" fill="#636363"/><path d="M20.957,19.293l-2.515,2.462c-.13.128-.285.227-.456.289-.171.062-.354.087-.536.071-.182-.015-.358-.07-.516-.16-.159-.09-.296-.213-.402-.361l-2.29-3.19s-1-1.44-.65-2.34c.084-.365.248-.707.48-1l4.84,2.48" fill="#9b9b9b"/><path d="M26.86,10.097c-.046.052-.041.131.011.176.198.175.37.378.51.602.027.072.025.127.013.168-.013.044-.041.081-.077.109-.037.029-.079.046-.112.051-.017.003-.026.002-.03.001-.097-.095-.19-.194-.277-.297-.02-.036-.041-.064-.06-.085-.101-.11-.183-.068-.221-.023-.038.045-.038.111-.001.157.024.031.049.061.074.091.003.006.006.012.009.019.038.088.079.262.06.585-.004.069.048.128.117.132.069.004.128-.048.132-.117.006-.102.007-.193.003-.273.069.064.164.068.233.057.077-.012.159-.047.228-.102.07-.055.132-.134.162-.235.03-.102.025-.218-.024-.341-.003-.007-.006-.013-.01-.019-.154-.249-.344-.474-.564-.668-.034-.03-.078-.038-.118-.026-.022.006-.042.019-.058.037Z" fill="#ed9200" isolation="isolate" opacity=".51"/><path d="M18.912,17.575l-5.18-1.95c.473-.857,1.52-2.883,1.921-4.136.039-2.182,1.269-2.734,1.269-2.734.394-.143.819-.18,1.232-.106.413.074.799.255,1.118.526.286.224.519.509.682.834.08.159.141.326.184.497h.004c.305,1.198.353,2.447.141,3.665s-.679,2.378-1.371,3.404Z" fill="#ff6723"/><path d="M19.002,5.195s0-.95,1.56-.95c1.33,0,1.69-.46,1.67-1.19.01-.134-.008-.269-.055-.395-.047-.126-.12-.241-.215-.336-.095-.095-.21-.168-.336-.215-.126-.047-.261-.065-.395-.055-.45,0-.694.066-.899.121-.267.072-.467.125-.971-.011-1.2-.35-3-.15-3,1.85,0,2.475.828,2.698.977,2.718-.058-.004-.117.003-.173.019-.063.018-.123.049-.174.091-.052.041-.094.092-.126.15-.032.058-.052.122-.059.187s-.001.132.017.196c.018.063.049.123.091.174.041.052.092.094.15.126.058.032.122.052.187.059.049,0,.106.004.168.009.378.029.932.071.932-.789,0-.186.006-.352.017-.501-.057-.061-.104-.131-.138-.207-.043-.097-.066-.201-.066-.307s.022-.21.066-.307c.043-.097.107-.183.186-.253.079-.07.172-.123.273-.155.095-.03.194-.041.292-.032.011,0,.018.002.02.002,0,0,0,0,0,0Z" fill="#f1a11e"/><path d="M21.093,7.046c-.065.022-.101.093-.079.158.056.169.177.308.335.389.159.08.342.095.512.041.066-.021.102-.091.081-.157-.021-.066-.092-.102-.157-.081-.107.034-.222.025-.322-.026-.1-.051-.176-.139-.211-.245-.022-.066-.093-.101-.158-.079Z" fill="#990839"/><path d="M21.782,5.965c.018-.001.036-.006.053-.014.017-.008.031-.02.043-.034.012-.014.021-.03.027-.048.006-.017.008-.036.007-.054-.003-.072-.019-.143-.049-.209-.03-.066-.073-.125-.126-.174-.053-.049-.115-.088-.183-.113-.068-.025-.14-.037-.212-.034-.072-.003-.144.009-.212.034-.068.025-.13.063-.183.113-.053.049-.096.108-.126.174-.03.066-.047.137-.049.209-.001.018,0,.037.007.054.006.018.015.034.027.048.012.014.027.025.043.034.016.008.035.013.053.014h.88Z" fill="#fff"/><path d="M21.68,4.586c-.313-.042-.63.034-.89.211-.059.04-.075.121-.034.181.041.059.121.075.181.034.208-.142.46-.202.71-.169.071.009.136-.041.146-.112s-.041-.137-.112-.146Z" fill="#d37034"/><path d="M21.211,5.965c-.01-.043-.016-.089-.016-.137,0-.255.162-.461.362-.461s.361.206.361.461c0,.048-.006.093-.016.137h-.691Z" fill="#7d4533"/><path d="M21.391,5.965c-.012-.037-.019-.079-.019-.123,0-.161.09-.291.201-.291s.201.13.201.291c0,.044-.007.086-.019.123h-.364Z" fill="#1c1c1c"/><path d="M21.742,5.725c-.039,0-.07-.04-.07-.09s.031-.09.07-.09.07.04.07.09-.031.09-.07.09Z" fill="#fff"/><path d="M17.315,11.312c.8.214,1.623-.26,1.837-1.061.214-.8-.26-1.623-1.061-1.837l-3.381-.906-.776,2.898,3.381.906Z" fill="#ff8101"/></svg>