<?xml version="1.0" encoding="UTF-8"?><svg id="a" xmlns="http://www.w3.org/2000/svg" viewBox="0 0 32 32"><path d="M8.314,15.409l-1.521-.498-1.799.498v1.64h3.32v-1.64Z" fill="#f95725"/><path d="M23.674,15.409l1.555-.607,1.775.607v1.64h-3.33v-1.64Z" fill="#f95725"/><path d="M26.754,16.409h-2.88c-.41,0-.74.33-.74.74v2.44c0,.13-.14.21-.26.15l-2.58-1.39c-.04-.02-.08-.05-.12-.07l-.05-.03c-.62-.31-1.32-.49-2.07-.49h-4.09c-.76,0-1.47.18-2.1.51l-2.77,1.46c-.1.07-.25-.01-.25-.14v-2.44c0-.41-.33-.74-.74-.74h-2.87c-.41,0-.74.33-.74.74v5.07c0,1.05.56,2.03,1.46,2.56.46.27.99.41,1.51.41.5,0,.99-.12,1.44-.37l.48-.25v4.43h13.27v-4.4l.42.22c.45.25.94.37,1.44.37.52,0,1.05-.14,1.51-.41.9-.53,1.46-1.51,1.46-2.56v-5.07c.01-.41-.32-.74-.73-.74Z" fill="#ff6723"/><path d="M14.024,17.598v.731c0,1.09.88,1.97,1.97,1.97s1.97-.88,1.97-1.97v-.923l-1.97-.388-1.97.581Z" fill="#fcb100"/><path d="M2.144,12.929l.248.29c-.22.213-.242.568-.038.81,0,0,.19.22.54.63.41.48,1.01.75,1.64.75h3.78v-1.81c0-.86-.31-1.68-.88-2.33l-.49-.56c-.27-.31-.74-.35-1.05-.08-.31.27-.34.74-.08,1.05l.33.38c.07.07.01.19-.09.19l-.854-.01-.916-1.07c-.21-.25-.59-.28-.83-.06-.064.054-.114.119-.149.189-.215-.192-.543-.2-.771,0-.199.174-.254.458-.147.693-.066.023-.128.059-.183.107-.25.21-.27.58-.06.83Z" fill="#ffc83d"/><path d="M29.854,12.929l-.254.295c.215.213.236.565.044.815,0,0-.19.22-.54.63-.41.48-1.01.75-1.64.75h-3.78v-1.81c0-.85.31-1.68.87-2.33l.49-.56c.27-.31.74-.35,1.05-.08.31.27.35.74.08,1.05l-.33.37c-.07.07-.01.19.09.19l.859-.01.921-1.07c.21-.25.58-.27.83-.06.063.053.111.116.145.184.215-.186.539-.184.765.006.207.174.256.456.149.69.068.024.133.061.191.11.25.21.27.58.06.83Z" fill="#ffc83d"/><path d="M20.854,6.579c-.31-.44-.75-.73-1.24-.85-.53-.13-1-.42-1.32-.86-.43-.58-1.14-.93-1.91-.86-.3.03-.57.11-.82.24-.33.18-.73.21-1.09.1-.27-.09-.55-.12-.85-.1-.76.07-1.39.52-1.71,1.15-.24.49-.65.88-1.16,1.11-.47.21-.87.6-1.1,1.12-.31.75-.16,1.59.33,2.19.18.22.29.48.32.76l.33,3.72c.067.794,1.365,1.691,1.365,1.691,0,0,4.741-.748,8.126-.748,0,0,1.044-1.098.979-1.863l-.33-3.72c-.02-.28.04-.56.18-.81.41-.68.39-1.57-.1-2.27Z" fill="#f1a11e"/><path d="M10.95,10.724c-.653.163-1.136.753-1.136,1.455,0,.828.672,1.5,1.5,1.5.03,0,.06,0,.09-.003l.576-1.497-1.03-1.455Z" fill="#fdbb11"/><path d="M20.291,12.9c.716-.114,1.263-.734,1.263-1.481,0-.773-.585-1.41-1.337-1.491l-1.03,1.708,1.104,1.265Z" fill="#fdbb11"/><path d="M17.544,8.029l1.273-.113c.689-.029,1.288.478,1.378,1.157l.129,5.146c-.08,1.78-1.47,3.22-3.24,3.38l-1.7.14c-1.78.16-3.39-1.02-3.78-2.76l-.664-4.323-.056-.667c-.15-1.68,1.1-3.16,2.78-3.31l1.249-.111c.208.014.405.139.501.341.43.76,1.26,1.2,2.13,1.12Z" fill="#ffc83d"/><path d="M15.964,15.479c.293,0,.53-.237.53-.53s-.237-.53-.53-.53-.53.237-.53.53.237.53.53.53Z" fill="#990839"/><path d="M15.334,11.579l-.34,1.57c-.07.32.19.62.52.59l.7-.06c.33-.03.53-.37.41-.67l-.61-1.49c-.13-.33-.61-.29-.68.06Z" fill="#ed9200"/><path d="M19.094,11.229c-.19-.55-.72-.91-1.32-.86-.62.05-1.1.54-1.16,1.14-.01.13.1.24.23.23l2.03-.18c.16-.01.27-.18.22-.33Z" fill="#fff"/><path d="M12.254,11.819c.09-.56.55-1.02,1.15-1.07.62-.06,1.18.34,1.34.92.03.12-.06.25-.19.26l-2.03.18c-.16.01-.3-.13-.27-.29Z" fill="#fff"/><path d="M18.494,11.369c-.04-.45-.44-.78-.89-.74s-.78.43-.74.89c.01.07.03.14.05.21l1.57-.14c.01-.07.02-.15.01-.22Z" fill="#7d4533"/><path d="M12.874,11.869c-.04-.45.29-.85.74-.89s.85.29.89.74c.01.08,0,.15-.01.22l-1.57.14c-.028-.057-.039-.131-.048-.198,0-.004-.001-.008-.002-.012Z" fill="#7d4533"/><path d="M17.634,10.979c-.26.02-.45.25-.42.5,0,.08.03.15.08.21l.82-.07c.02-.07.04-.14.03-.22-.03-.25-.25-.44-.51-.42Z"/><path d="M13.644,11.329c.26-.03.49.16.51.42.01.08-.01.15-.04.23l-.82.07c-.04-.06-.06-.13-.07-.21-.03-.26.16-.49.42-.51Z"/><path d="M17.544,11.139c0,.083-.067.15-.15.15s-.15-.067-.15-.15.067-.15.15-.15.15.067.15.15Z" fill="#fff"/><path d="M13.534,11.489c0,.083-.067.15-.15.15s-.15-.067-.15-.15.067-.15.15-.15.15.067.15.15Z" fill="#fff"/><path d="M18.464,9.109c.04.03.08.04.13.04.08,0,.17-.04.22-.11.07-.12.04-.28-.08-.35-.03-.02-.75-.48-1.74-.27-.13.03-.22.16-.19.3.03.13.17.22.3.19.712-.146,1.248.141,1.345.192.009.005.015.008.015.008Z" fill="#d37034"/><path d="M12.164,9.619c.04.05.11.08.18.08.06,0,.12-.02.16-.06,0,0,.007-.004.017-.013.094-.075.571-.454,1.293-.417.14,0,.26-.1.26-.24.01-.14-.1-.26-.24-.26-.948-.037-1.542.461-1.645.548-.008.007-.013.011-.015.012-.1.09-.1.25-.01.35Z" fill="#d37034"/></svg>