<?xml version="1.0" encoding="UTF-8"?><svg id="a" xmlns="http://www.w3.org/2000/svg" viewBox="0 0 32 32"><path d="M12.992,29.007l.5-.39v-6.6l.91-4,1.09.68v10.32c0,.49-.43,1-.92,1h-1.59c-.27,0-.49-.25-.49-.52.01-.27.23-.49.5-.49ZM26.299,25.22c.053.058.158.172.492.534.017.012.034.027.05.043l.61.65c.11.13.1.32-.02.43-.13.11-.32.1-.43-.02l-.02-.02c-.001-.008-.003-.016-.004-.024l-.002-.002c.009.094-.026.19-.104.256-.13.11-.319.09-.419-.029-.004-.004-.007-.007-.011-.011l-.007-.008-.104-.112-.002-.011-.008-.009c.01.1-.03.2-.11.27-.13.1-.31.08-.42-.04l-.27-.3c-.058-.058-.134-.097-.22-.091l.01.091c.03.2-.12.39-.32.41-.21.02-.39-.13-.41-.33l-.087-.682c-.067-.075-.113-.128-.113-.128l-6.02-6.32.94-1.03,1.55.73,5.253,5.544h0c.1.108.129.138.157.169l.038.041h0Z" fill="#ffc83d"/><path d="M20.492,14.017h-6v3.735c-.322.772-1.05,2.691-1.05,4.265h2l1.067-2h1.95l1.953,1.9,1.5-1.3c-.552-1.563-1.323-2.521-1.42-2.63v-3.97Z" fill="#ff6723"/><path d="M14.444,14.067l-10.68-.03c-.22,0-.35-.26-.22-.44l.39-.54c.43-.59.94-.6,1.67-.68l9.89-1.36c1.91-.35,2.9-.33,3.56-.97l7.21-6.62c.6-.56,1.568-1.41,2.028-1.41h.7c.21,0,.322.24.192.41l-8.64,11.64h-6.1Z" fill="#ffc83d"/><path d="M14.444,14.067h-1.95v-2.64l4.03-.67c.98-.22,2.15-.46,2.62-.89l1.7-1.47,2.32,2.14-2.62,3.53h-6.1Z" fill="#9b9b9b"/><path d="M30.352,2.907c-1.13.63-2.77,1.55-2.77,1.55l-1.69-.72-.04-1.17c-.01-.27.37-.55.64-.55,0,0,3.17-.06,3.83-.02.22.01.26.78.03.91ZM1.962,14.707c1.26-.27,3.1-.66,3.1-.66l.79-1.66-.74-.91c-.18-.21-.49-.24-.69-.06,0,0-2.42,2.05-2.89,2.51-.15.16.17.83.43.78Z" fill="#533566"/><path d="M16.352,20.427c0-.04.53-1.18.85-1.56.12-.14.34-.15.46,0,.33.38.88,1.56.88,1.56,0,.65-.45.56-1.11.56-.67-.01-1.08.1-1.08-.56Z" fill="#fcb100"/><path d="M16.162,22.547c0,.37-.3.67-.67.67s-.67-.3-.67-.67.3-.67.67-.67.67.3.67.67ZM20.102,22.547c0,.37-.3.67-.67.67s-.67-.3-.67-.67.3-.67.67-.67.67.3.67.67Z" fill="#fdbb11"/><path d="M17.002,25.507h.9c1.01,0,1.78-.85,1.66-1.9l-.15-2.33c-.11-.79-.78-1.38-1.58-1.38h-.76c-.8,0-1.47.59-1.58,1.38l-.15,2.33c-.14,1.01.64,1.9,1.66,1.9Z" fill="#ffc83d"/><path d="M19.452,21.877c.14,0,.27.05.37.12v-.38c0-.36-.22-.68-.55-.81.07.15.12.31.14.47l.04.6ZM14.942,24.677c.12.21.31.36.52.43.23.08.43.23.56.44.17.28.47.46.82.46.13,0,.26-.03.38-.08.16-.07.33-.07.49,0,.12.05.24.08.38.08.34,0,.64-.18.81-.45.13-.21.33-.37.57-.45.22-.08.41-.23.53-.46.17-.32.14-.71-.06-.99-.07-.1-.11-.23-.11-.36v-.21c-.08.06-.18.1-.28.12h-.021l.021.34c0,.76-.61,1.37-1.37,1.37h-.52c-.11,0-.21-.07-.25-.17-.16-.36-.52-.59-.91-.59h-.57c-.31-.01-.56-.27-.57-.58l.02-.37h-.02c-.09-.02-.17-.06-.25-.11v.21c0,.13-.04.25-.11.35-.22.29-.25.69-.06,1.02ZM15.622,20.827c-.07.14-.12.3-.14.46l-.03.59c-.13.01-.25.06-.35.13v-.38c0-.35.21-.66.52-.8Z" fill="#f1a11e"/><path d="M17.452,21.297c.22,0,.42.05.6.14.06.03.12-.04.09-.09-.14-.22-.4-.37-.68-.37s-.54.15-.68.37c-.04.06.03.12.09.09.16-.09.36-.14.58-.14Z" fill="#990839"/><path d="M17.612,22.657l.21-.69c.04-.14-.06-.28-.21-.28h-.32c-.15,0-.25.14-.21.28l.21.69c.06.15.27.15.32,0Z" fill="#ed9200"/><path d="M15.912,22.677c.07.25.29.43.56.43.28,0,.51-.2.56-.46.02-.06-.03-.11-.09-.11h-.92c-.07,0-.13.07-.11.14ZM19.002,22.677c-.07.25-.29.43-.56.43-.28,0-.52-.2-.56-.46-.02-.06.03-.11.09-.11h.92c.07,0,.13.07.11.14Z" fill="#fff"/><path d="M16.182,22.627c0,.21.17.37.37.37.21,0,.37-.17.36-.37,0-.04,0-.07-.01-.1h-.71c-.01.03-.01.07-.01.1ZM18.722,22.627c0,.21-.17.37-.37.37s-.37-.17-.36-.37c0-.04,0-.07.01-.1h.71c.01.03.01.07.01.1Z" fill="#7d4533"/><path d="M16.552,22.837c.12,0,.21-.09.21-.21,0-.04,0-.07-.03-.1h-.37c-.01.03-.02.06-.02.1,0,.12.09.21.21.21ZM18.352,22.837c-.12,0-.21-.09-.21-.21,0-.04.01-.07.03-.1h.37c.01.03.02.06.02.1,0,.12-.09.21-.21.21Z"/><path d="M16.742,22.767c0,.039-.031.07-.07.07s-.07-.031-.07-.07.031-.07.07-.07.07.031.07.07ZM18.552,22.767c0,.039-.031.07-.07.07s-.07-.031-.07-.07.031-.07.07-.07.07.031.07.07Z" fill="#fff"/></svg>