<?xml version="1.0" encoding="UTF-8"?><svg id="a" xmlns="http://www.w3.org/2000/svg" viewBox="0 0 32 32"><path d="M24.087,6.231c-.389-.665-.988-1.132-1.677-1.371-.739-.248-1.378-.725-1.787-1.39-.539-.884-1.517-1.47-2.626-1.47-.429,0-.839.089-1.208.248-.499.218-1.068.218-1.577,0-.369-.159-.779-.248-1.208-.248-1.098,0-2.057.566-2.606,1.43-.429.675-1.068,1.182-1.827,1.44-.709.238-1.328.745-1.717,1.46-.549,1.033-.439,2.264.19,3.178.23.338.359.735.359,1.132v5.363c0,1.192.759,2.254,1.897,2.652l2.446.844v-9.564c.19-.189.359-.397.499-.636.22-.377.349-.785.389-1.192.12.01.24.02.359.02.759,0,1.458-.278,1.997-.735.539.457,1.238.735,1.997.735.12,0,.24-.01.359-.02.05.407.17.814.389,1.192.14.238.309.457.499.636v9.564l2.446-.844c1.138-.387,1.897-1.45,1.897-2.652v-5.363c0-.407.12-.804.359-1.132.669-.934.769-2.215.15-3.278Z" fill="#f1a11e"/><path d="M9.133,11l-.015-.635c-.064-2.668,2.08-4.865,4.749-4.865h1.626c.307,0,.582.187.696.471l.057.143c.456,1.139,1.559,1.886,2.785,1.886h2.278c.81,0,1.473.643,1.499,1.452l.05,1.548h.004l-.005.083c.948.265,1.643,1.135,1.643,2.167,0,1.132-.836,2.069-1.925,2.227l-.102,1.588c-.347,2.542-2.575,4.435-5.2,4.435h-2.534c-2.626,0-4.853-1.894-5.2-4.435l-.106-1.587c-1.092-.154-1.932-1.093-1.932-2.228,0-1.031.693-1.899,1.638-2.166l-.005-.084Z" fill="#ffc83d"/><path d="M15.49,12.367l-.69,2.22c-.14.45.2.91.67.91h1.01c.48,0,.81-.46.67-.91l-.69-2.22c-.13-.49-.82-.49-.97,0Z" fill="#ed9200"/><path d="M14.938,12.505c.068.268-.162.495-.438.495h-3c-.276,0-.506-.227-.438-.495.22-.865,1.005-1.505,1.938-1.505s1.718.64,1.938,1.505Z" fill="#fff"/><path d="M20.938,12.505c.068.268-.162.495-.438.495h-3c-.276,0-.506-.227-.438-.495.22-.865,1.004-1.505,1.938-1.505s1.718.64,1.938,1.505Z" fill="#fff"/><path d="M14.5,12.75c0,.086-.009.169-.025.25h-2.45c-.016-.081-.025-.164-.025-.25,0-.69.56-1.25,1.25-1.25s1.25.56,1.25,1.25Z" fill="#7d4533"/><path d="M20,12.75c0,.086-.009.169-.025.25h-2.45c-.016-.081-.025-.164-.025-.25,0-.69.56-1.25,1.25-1.25s1.25.56,1.25,1.25Z" fill="#7d4533"/><path d="M14,12.75c0,.088-.015.172-.043.25h-1.415c-.028-.078-.043-.162-.043-.25,0-.414.336-.75.75-.75s.75.336.75.75Z"/><path d="M19.5,12.75c0,.088-.015.172-.043.25h-1.415c-.028-.078-.043-.162-.043-.25,0-.414.336-.75.75-.75s.75.336.75.75Z"/><path d="M16,19c.828,0,1.5-.672,1.5-1.5s-.672-1.5-1.5-1.5-1.5.672-1.5,1.5.672,1.5,1.5,1.5Z" fill="#990839"/><path d="M11.28,9.91c.04.16.18.27.34.27.03,0,.06,0,.1-.01,0,0,1.06-.27,2.12-.51.19-.04.3-.23.26-.42-.04-.19-.23-.31-.42-.26-1.07.24-2.14.51-2.14.51-.19.05-.31.24-.26.42Z" fill="#d37034"/><path d="M20.04,10.17c.03.01.06.01.09.01.16,0,.3-.1.35-.26.04-.19-.07-.38-.26-.43,0,0-1.07-.27-2.14-.51-.19-.05-.38.07-.42.26-.05.19.07.38.26.42,1.06.24,2.12.51,2.12.51Z" fill="#d37034"/><path d="M13,12.25c0,.138-.112.25-.25.25s-.25-.112-.25-.25.112-.25.25-.25.25.112.25.25Z" fill="#fff"/><path d="M18.5,12.25c0,.138-.112.25-.25.25s-.25-.112-.25-.25.112-.25.25-.25.25.112.25.25Z" fill="#fff"/><path d="M25.5,30H6.5c-.83,0-1.5-.67-1.5-1.5v-4.33c0-2.3,1.87-4.17,4.17-4.17h13.66c2.3,0,4.17,1.87,4.17,4.17v4.33c0,.83-.67,1.5-1.5,1.5Z" fill="#f24827"/><path d="M6.81,20.57l2.28,1.06,2.11-4.52-2.23-1.05-2.16,4.51Z" fill="#ff8101"/><path d="M11.56,16.098l15.407,7.177c1.761.827,2.526,2.924,1.701,4.688-.825,1.764-2.918,2.53-4.68,1.704l-15.407-7.188c-.503-.232-.725-.837-.483-1.341l2.123-4.566c.231-.494.835-.716,1.338-.474Z" fill="#ff6723"/><path d="M25.19,20.57l-2.28,1.06-2.11-4.52,2.26-1.07,2.13,4.53Z" fill="#ff6723"/><path d="M20.44,16.098l-15.407,7.173c-1.761.827-2.526,2.926-1.701,4.691.825,1.765,2.918,2.532,4.679,1.705l15.407-7.183c.503-.232.724-.837.483-1.342l-2.123-4.57c-.231-.494-.835-.716-1.338-.474Z" fill="#ff8101"/><path d="M25.83,20.23l3.07-1.79c.26-.15.42-.43.42-.74,0-.56-.53-.97-1.07-.83l-2.2.57-.22,2.79Z" fill="#f59f00"/><path d="M6.17,20.23l-3.07-1.8c-.27-.15-.43-.43-.43-.73,0-.56.53-.97,1.07-.83l2.2.57.23,2.79Z" fill="#f59f00"/><path d="M9,16.07l-2.12,4.54-.72-.38c-.74-.39-1.27-1.08-1.44-1.9l-.29-1.39c-.08-.42-.29-.8-.59-1.1l-1.51-1.3c-.21-.18-.33-.44-.33-.71,0-.71.76-1.16,1.38-.82l5.62,3.06Z" fill="#ffc83d"/><path d="M23,16.07l2.12,4.54.72-.38c.74-.39,1.27-1.08,1.44-1.9l.29-1.39c.08-.42.29-.8.59-1.1l1.51-1.3c.21-.18.33-.44.33-.71,0-.71-.76-1.16-1.38-.82l-5.62,3.06Z" fill="#ffc83d"/></svg>