<?xml version="1.0" encoding="UTF-8"?><svg id="a" xmlns="http://www.w3.org/2000/svg" viewBox="0 0 32 32"><path d="M16,28c9.75,0,12-6.596,12-13.5S22.627,2,16,2,4,7.596,4,14.5s2.5,13.5,12,13.5Z" fill="#aeddff"/><path d="M5,14.5c0-6.213,4.692-11.216,10.502-11.488.166-.008.332-.012.498-.012s.333.004.499.012c5.809.272,10.501,5.275,10.501,11.488,0,.273-.009.544-.027.812-.408-5.202-5.405-7.312-10.973-7.312s-10.565,2.11-10.973,7.312c-.018-.268-.027-.539-.027-.812Z" fill="#83cbff"/><path d="M16,27c6.474,0,11.751-5.341,11.992-12.024l.008.024v3c0,5.799-4,12-12,12s-12-6.201-12-12c0,0,.022-3.08,0-3l.008-.031c.237,6.686,5.515,12.031,11.992,12.031Z" fill="#83cbff"/><path d="M26.973,15.312c-.399,6.005-5.194,10.688-10.973,10.688s-10.574-4.682-10.973-10.688c.408-5.202,5.405-9.312,10.973-9.312s10.565,4.11,10.973,9.312Z" fill="#00a6ed"/><path d="M11.5,13c.828,0,1.5-.672,1.5-1.5s-.672-1.5-1.5-1.5-1.5.672-1.5,1.5.672,1.5,1.5,1.5Z" fill="#e2ff92"/><path d="M19.5,17c1.381,0,2.5-1.119,2.5-2.5s-1.119-2.5-2.5-2.5-2.5,1.119-2.5,2.5,1.119,2.5,2.5,2.5Z" fill="#e2ff92"/><path d="M16,19.5c0,1.381-1.119,2.5-2.5,2.5s-2.5-1.119-2.5-2.5,1.119-2.5,2.5-2.5,2.5,1.119,2.5,2.5Z" fill="#e2ff92"/></svg>