<?xml version="1.0" encoding="UTF-8"?><svg id="a" xmlns="http://www.w3.org/2000/svg" viewBox="0 0 32 32"><path d="M24.109,14.609c1.345-.994,3.094-.797,4.188.594,1.952,2.485-.543,4.613-2.447,6.237-.462.394-.889.758-1.209,1.091-.871.81-1.576,1.511-2.219,2.152-.672.67-1.278,1.273-1.937,1.863-2.415,2.165-4.868,3.391-8.078,3.391-6.375,0-10.156-4.375-10.156-10.991l-.074-4.041c-.044-.187-.067-.381-.067-.58v-3.649c0-1.475,1.261-2.675,2.812-2.675.881,0,1.669.387,2.185.993.329-1.133,1.375-1.963,2.613-1.963,1.032,0,1.932.573,2.393,1.42.485-.864,1.411-1.45,2.47-1.45,1.236,0,2.291.791,2.675,1.901,2.049-3.544,5.283-4.954,9.243-3.292,1.578.75,1.532,2.388,1.328,3.141-.292,1.075-1.418,2.54-3.148,2.102-1.106-.28-2.234-.32-2.234,1l-.031,2.641c0,1.67.554,1.152,1.179.567.17-.159.345-.323.516-.45Z" fill="#ffc83d"/><path d="M17.27,8.879c.136.397.245.946.245,1.808v1.211c.37-1.768,1.809-5.605,4.609-6.805h-.289c-1.848.457-3.399,1.776-4.566,3.785Z" fill="#d67d00"/><path d="M2.158,14.82c.245,1.24,1.391,2.18,2.764,2.18.655,0,1.258-.214,1.737-.572-.352-.575-.659-1.443-.659-2.318v-4.297c0-.647.142-1.152.296-1.471.314.168.591.392.816.657l-.004.013c-.058.194-.108.464-.108.802v4.297c0,.548.163,1.11.369,1.534v.002c.418.719,1.156,1.229,2.017,1.335.281-.014.576-.026.882-.035.43-.088.824-.279,1.154-.544-.307-.564-.516-1.307-.516-2.095,0-.559.014-1.61.029-2.613l.004-.266c.013-.907.025-1.733.025-2.082,0-.748.169-1.319.462-1.715.278.223.511.5.684.814-.082.198-.146.487-.146.901,0,.357-.012,1.19-.025,2.092l-.004.271c-.014,1.006-.029,2.049-.029,2.599,0,.453.089.88.223,1.238v-.002c.491.848,1.407,1.419,2.454,1.419,1.336,0,2.459-.931,2.754-2.179h.038c0,1.029-.071,2.047-.425,2.828.399.133.772.29,1.111.476.185.101.286.308.253.516-.033.208-.192.373-.399.413h-.002s-.009.002-.009.002l-.041.009c-.037.008-.094.021-.168.039-.149.036-.367.092-.641.174-.547.163-1.311.427-2.172.825-1.727.799-3.817,2.127-5.343,4.252-.161.224-.474.276-.698.114s-.275-.474-.114-.698c1.661-2.312,3.915-3.734,5.735-4.576.098-.045.195-.089.291-.131-.077.004-.156.006-.237.006-1.438,0-2.157-.649-2.415-1.098-.054-.001-.109-.002-.163-.003-.314.575-1.221,1.101-2.141,1.101-1.15,0-2.078-.719-2.328-1.281-.391.562-1.094,1.281-2.344,1.281-2.346,0-2.923-3.151-2.967-4.212Z" fill="#d67d00"/></svg>