<?xml version="1.0" encoding="UTF-8"?><svg id="a" xmlns="http://www.w3.org/2000/svg" viewBox="0 0 32 32"><path d="M24.021,10.604c.18-.379.279-.798.279-1.236,0-.578-.179-1.127-.478-1.575-.299-.459-.459-.987-.459-1.535v-.01c0-1.575-1.276-2.851-2.851-2.851-.16,0-.299-.07-.389-.199-.518-.728-1.366-1.196-2.323-1.196s-1.804.469-2.323,1.196c-.09.12-.239.199-.389.199-1.575,0-2.851,1.276-2.851,2.851v.01c0,.548-.16,1.077-.459,1.535-.299.449-.478.997-.478,1.575,0,.439.1.857.279,1.236.06.13.06.269,0,.399-.179.369-.279.778-.279,1.216,0,1.535,1.246,2.781,2.781,2.781h7.427c1.535,0,2.781-1.246,2.781-2.781,0-.439-.1-.847-.279-1.216-.05-.13-.05-.279.01-.399Z" fill="#f1a11e"/><path d="M22,16.009c0-1.725-1.66-3.009-3.431-3.009h-2.656l-3.431,3.671c-.332.351-.533.822-.533,1.344,0,.501.191.963.493,1.304.09.1.03.271-.101.291-3.028.511-5.342,3.139-5.342,6.309v.572c0,1.936,1.579,3.51,3.521,3.51h9.728c.966,0,1.75-.782,1.75-1.745v-12.246Z" fill="#8b62bf"/><path d="M15.5,9.5c0,.828-.672,1.5-1.5,1.5s-1.5-.672-1.5-1.5.672-1.5,1.5-1.5,1.5.672,1.5,1.5Z" fill="#fdbb11"/><path d="M23.5,9.5c0,.828-.672,1.5-1.5,1.5s-1.5-.672-1.5-1.5.672-1.5,1.5-1.5,1.5.672,1.5,1.5Z" fill="#fdbb11"/><path d="M21.41,6.544h-2.763c-1.091,0-2.122-.542-2.733-1.447-.1-.151-.33-.121-.4.05l-.07.151c-.2.482-.601.783-1.021,1.065-.48.321-.773.648-.781,1.286l.11,2.763c.1,2.441,1.982,4.089,4.265,4.089s4.165-1.637,4.265-4.089l.11-2.622c-.02-1.165-.821-1.246-.981-1.246Z" fill="#ffc83d"/><path d="M20.291,8.25c-.49,0-.89.34-1.14.72.254.08.499.152.741.223.331.097.658.192.999.307l.42-.39c.17-.15.16-.43-.03-.56-.28-.19-.64-.3-.99-.3Z"/><path d="M15.751,8.261c.49,0,.89.33,1.14.71-.254.08-.499.152-.741.223-.331.097-.658.192-.999.307l-.41-.37c-.18-.16-.16-.43.02-.57.28-.19.64-.3.99-.3Z"/><path d="M14.741,9.26c.13-.53.6-.92,1.17-.92.58,0,1.07.42,1.19.98.02.12-.08.23-.2.23h-1.94c-.15,0-.27-.14-.22-.29Z" fill="#fff"/><path d="M21.311,9.26c-.13-.53-.6-.92-1.17-.92-.59,0-1.08.42-1.19.98-.02.12.08.23.2.23h1.93c.15,0,.27-.14.23-.29Z" fill="#fff"/><path d="M15.311,9.34c0-.42.34-.77.77-.77s.78.35.78.77c0,.08-.01.14-.03.21h-1.49c-.02-.07-.03-.14-.03-.21Z" fill="#7d4533"/><path d="M20.731,9.34c0-.42-.34-.77-.77-.77s-.78.35-.78.77c0,.08.01.14.03.21h1.49c.02-.07.03-.14.03-.21Z" fill="#7d4533"/><path d="M16.091,8.9c.24,0,.44.2.44.44,0,.07-.02.14-.05.21h-.78c-.03-.07-.05-.14-.05-.21,0-.24.2-.44.44-.44Z"/><path d="M19.961,8.9c-.24,0-.44.2-.44.44,0,.07.01.14.05.21h.78c.03-.07.05-.14.05-.21,0-.24-.2-.44-.44-.44Z"/><path d="M15.961,9.04c0,.077-.063.14-.14.14s-.14-.063-.14-.14.063-.14.14-.14.14.063.14.14Z" fill="#fff"/><path d="M19.841,9.04c0,.077-.063.14-.14.14s-.14-.063-.14-.14.063-.14.14-.14.14.063.14.14Z" fill="#fff"/><path d="M18.011,11.96c-.45,0-.87-.11-1.23-.3-.12-.06-.25.08-.18.2.3.46.82.77,1.41.77s1.11-.3,1.41-.77c.07-.12-.05-.25-.18-.19-.36.18-.78.29-1.23.29Z" fill="#990839"/><path d="M17.676,9.151l-.425,1.425c-.087.291.126.592.416.592h.628c.3,0,.503-.301.416-.592l-.425-1.425c-.087-.311-.513-.311-.609,0Z" fill="#ed9200"/><path d="M20.961,7.78c.04.02.08.03.12.03.08,0,.16-.04.21-.12.06-.11.02-.26-.09-.32-.003,0-.01-.005-.023-.011-.134-.067-.831-.416-1.627-.269-.13.02-.21.14-.19.27s.15.21.27.19c.626-.118,1.202.167,1.312.221.011.006.017.009.018.009Z" fill="#d37034"/><path d="M14.741,7.691c.04.08.12.12.2.12.04,0,.08,0,.12-.03,0,0,.63-.36,1.33-.23.12.03.25-.06.27-.18.02-.13-.06-.25-.19-.27-.87-.16-1.62.26-1.65.28-.11.06-.15.21-.08.31Z" fill="#d37034"/><path d="M18.155,20.01c-.389,1.262-1.098,2.746-2.396,3.868-1.598,1.393-3.665,2.074-4.903,2.385-.28.07-.569-.01-.769-.21l-.539-.541c-.25-.25-.669-.25-.919,0-.25.25-.25.671,0,.922l.3.301h-1.258c-.34,0-.639.26-.669.601-.02.331.19.611.489.681-.14.12-.23.301-.23.501,0,.291.19.541.449.621-.04.11-.05.24-.02.371.07.291.349.491.659.491h1.038c.05,0,.609,0,.849-.04.18-.03,4.533-.621,7.799-3.457,2.267-1.974,3.275-4.569,3.715-6.503l-1.569-.665-2.026.665v.01Z" fill="#ffc83d"/><path d="M20.244,15.62c-.975,0-1.766.77-1.766,1.73,0,.02.08,1.21-.377,2.67h3.65c.345-1.48.25-2.56.25-2.66.01-.95-.782-1.74-1.756-1.74Z" fill="#774aa6"/></svg>