<?xml version="1.0" encoding="UTF-8"?><svg id="a" xmlns="http://www.w3.org/2000/svg" viewBox="0 0 32 32"><path d="M23.623,21.425l.995.996c.537.538,1.403.538,1.94,0l3.144-3.147c.398-.398.398-1.036,0-1.434l-5.83-5.836c-.179-.179-.179-.458,0-.637.109-.109.259-.149.398-.12.945.159,1.95-.12,2.676-.846,1.204-1.205,1.194-3.167-.03-4.362l-.856-.866-.388.129c-.975-.289-2.069-.08-2.875.617-.836.727-1.174,1.793-1.015,2.789.02.149-.02.289-.129.398l-.02.02c-.179.179-.458.179-.637,0l-5.83-5.826c-.398-.398-1.035-.398-1.433,0l-3.114,3.117c-.08.08-.139.169-.199.259l-.209-.209-.736.737,1.144,1.145.02.02c.278.279.657.428,1.045.408.895-.04,1.811.309,2.457,1.056.985,1.135.995,2.858,0,4.004-1.174,1.354-3.223,1.414-4.477.169-.647-.647-.945-1.504-.885-2.351.02-.388-.119-.767-.398-1.046-.01-.02-.02-.03-.03-.04l-.975-.976-.428.438.189.189c-.259.05-.497.179-.696.378l-3.144,3.147c-.398.398-.398,1.036,0,1.434l5.84,5.846c.179.179.179.458,0,.637-.109.11-.259.149-.398.12-1.005-.169-2.079.159-2.815.996-.995,1.135-1.005,2.868-.01,4.014,1.174,1.354,3.223,1.414,4.477.159.716-.717,1.005-1.713.856-2.639-.02-.149.02-.289.129-.398l.02-.02c.179-.179.458-.179.637,0l5.8,5.806c.398.398,1.035.398,1.433,0l3.114-3.117c.537-.538.537-1.404,0-1.942l-.02-.02-.885-.886-.388.388.109.11c-.856,0-1.711-.349-2.328-1.056-.985-1.135-.995-2.858,0-4.004,1.174-1.355,3.223-1.414,4.477-.169.517.518.816,1.185.875,1.862l-.02-.02-.577.578Z" fill="#d3d3d3"/><path d="M21.77,4.909c-.835.727-1.174,1.793-1.014,2.79.02.149-.02.289-.129.399l-.02.02c-.179.179-.457.179-.636,0l-5.818-5.818c-.398-.399-1.034-.399-1.432,0l-3.113,3.118c-.537.538-.537,1.405,0,1.943l.03.02c.269.269.646.418,1.034.399.895-.04,1.81.309,2.456,1.056.985,1.136.995,2.859,0,4.005-1.173,1.355-3.222,1.415-4.475.169-.636-.658-.935-1.514-.885-2.361.03-.389-.119-.777-.398-1.046-.537-.538-1.402-.538-1.939,0l-3.133,3.138c-.398.398-.398,1.036,0,1.435l5.838,5.848c.179.179.179.458,0,.638-.109.11-.259.149-.398.119-1.004-.169-2.078.16-2.814.996-.994,1.136-1.004,2.869-.01,4.015,1.173,1.355,3.222,1.415,4.475.159.716-.717,1.004-1.714.855-2.64-.02-.149.02-.289.129-.399l.02-.02c.179-.179.457-.179.636,0l5.798,5.809c.398.399,1.034.399,1.432,0l3.113-3.118c.537-.538.537-1.405,0-1.943l-.02-.02c-.269-.269-.646-.418-1.034-.399-.895.04-1.81-.309-2.456-1.056-.985-1.136-.995-2.859,0-4.005,1.174-1.355,3.222-1.415,4.475-.169.646.648.945,1.504.885,2.351-.02.389.119.767.398,1.046.537.538,1.402.538,1.939,0l3.143-3.148c.398-.399.398-1.036,0-1.435l-5.828-5.838c-.179-.179-.179-.458,0-.638.109-.11.259-.149.398-.12.945.159,1.949-.12,2.675-.847,1.243-1.245,1.193-3.308-.169-4.483-1.154-.956-2.874-.956-4.008.03Z" fill="#c3ef3c"/></svg>