<?xml version="1.0" encoding="UTF-8"?><svg id="a" xmlns="http://www.w3.org/2000/svg" viewBox="0 0 32 32"><path d="M29.967,3.963c0-1.105-.897-2.007-1.998-1.929-6.692.479-13.025,3.352-17.802,8.129C5.39,14.939,2.517,21.272,2.038,27.964c-.079,1.102.824,1.998,1.929,1.998,0,0,.61.018,1,0,2-8.5,2.64-11.99,7.32-16.68,4.69-4.69,11.18-7.32,17.68-8.32v-1Z" fill="#f8312f"/><path d="M29.967,7.963v-3c-6.63,0-12.99,2.63-17.68,7.32-4.68,4.69-7.32,11.05-7.32,17.68h3c1-4,3.32-10.43,7.44-14.56,4.12-4.12,8.06-5.94,14.56-7.44Z" fill="#ffb02e"/><path d="M29.967,7.963v3c-5,.5-8.88,3-12.44,6.56-3.56,3.57-5.56,7.44-6.56,12.44h-3c0-5.83,2.32-11.43,6.44-15.56,4.12-4.12,9.72-6.44,15.56-6.44Z" fill="#fff478"/><path d="M19.657,19.653c-3,3-4.69,6.31-5.69,10.31h-3c0-5.04,2-9.87,5.56-13.44,3.56-3.56,8.4-5.56,13.44-5.56v3c-4.5,1-7.31,2.69-10.31,5.69Z" fill="#00d26a"/><path d="M29.967,16.963v-3c-4.24,0-8.31,1.69-11.31,4.69-3,3-4.69,7.07-4.69,11.31h3c.547-3.362,1.698-6.515,4.138-8.945,2.44-2.44,5.609-3.555,8.862-4.055Z" fill="#3f5fff"/><path d="M29.967,17.963c0,1.105-.904,1.979-1.987,2.198-3.929.792-7.023,3.887-7.815,7.815-.218,1.083-1.093,1.987-2.198,1.987h-1c0-3.45,1.37-6.76,3.81-9.19,2.44-2.44,5.75-3.81,9.19-3.81v1Z" fill="#8d65c5"/></svg>