<?xml version="1.0" encoding="UTF-8"?><svg id="a" xmlns="http://www.w3.org/2000/svg" viewBox="0 0 32 32"><path d="M15.999,29.998c9.334,0,13.999-6.267,13.999-13.999S25.333,2,15.999,2,2,8.268,2,15.999s4.664,13.999,13.999,13.999Z" fill="#ffb02e"/><path d="M6.974,10.658c.143-.43.502-1.108,1.095-1.67.584-.555,1.383-.988,2.431-.988.276,0,.5-.224.5-.5s-.224-.5-.5-.5c-1.352,0-2.387.567-3.119,1.262-.724.687-1.165,1.51-1.355,2.08-.087.262.054.545.316.632.262.087.545-.054.632-.316Z" fill="#402a32"/><path d="M25.026,10.658c-.143-.43-.502-1.108-1.095-1.67-.584-.555-1.383-.988-2.431-.988-.276,0-.5-.224-.5-.5s.224-.5.5-.5c1.352,0,2.387.567,3.119,1.262.724.687,1.165,1.51,1.355,2.08.087.262-.054.545-.316.632-.262.087-.545-.054-.632-.316Z" fill="#402a32"/><path d="M7.707,16.293c-.391-.391-1.024-.391-1.414,0-.391.39-.391,1.024,0,1.414.525.525,1.847,1.293,3.707,1.293s3.182-.768,3.707-1.293c.391-.39.391-1.024,0-1.414-.391-.391-1.024-.391-1.414,0-.142.142-.953.707-2.293.707s-2.151-.565-2.293-.707Z" fill="#402a32"/><path d="M19.707,16.293c-.39-.391-1.024-.391-1.414,0-.391.39-.391,1.024,0,1.414.525.525,1.847,1.293,3.707,1.293s3.182-.768,3.707-1.293c.391-.39.391-1.024,0-1.414-.39-.391-1.024-.391-1.414,0-.142.142-.953.707-2.293.707s-2.151-.565-2.293-.707Z" fill="#402a32"/><path d="M11.8,23.4c-.331-.442-.958-.531-1.4-.2-.442.331-.531.958-.2,1.4.691.921,2.688,2.4,5.8,2.4s5.109-1.479,5.8-2.4c.331-.442.242-1.069-.2-1.4-.442-.331-1.069-.242-1.4.2-.309.413-1.712,1.6-4.2,1.6s-3.891-1.188-4.2-1.6Z" fill="#402a32"/></svg>