<?xml version="1.0" encoding="UTF-8"?><svg id="a" xmlns="http://www.w3.org/2000/svg" viewBox="0 0 32 32"><path d="M25.824,2.076c-1.319.242-2.324,1.854-2.324,1.854,0,0-1.015-1.612-2.324-1.854-3.258-.59-4.598,2.37-4.06,4.571.697,2.834,3.726,5.415,5.348,6.626.62.463,1.452.463,2.072,0,1.623-1.211,4.651-3.792,5.348-6.626.538-2.201-.802-5.161-4.06-4.571ZM2.96,11.697c1.391-3.246,6.146-6.187,12.502-5.698.275.021.516-.185.537-.46.021-.275-.185-.516-.46-.537-6.644-.511-11.889,2.547-13.498,6.302-.109.254.009.548.263.657.254.109.548-.009.657-.263ZM28.88,11.202c-.172-.216-.486-.253-.702-.081-.216.172-.253.486-.081.703.72.908.979,1.82.939,2.682-.04.872-.389,1.733-.95,2.518-1.133,1.585-3.053,2.753-4.656,2.982-.273.039-.463.292-.424.566.039.273.292.463.566.424,1.897-.271,4.051-1.603,5.328-3.39.644-.901,1.084-1.944,1.135-3.053.052-1.118-.293-2.264-1.154-3.35ZM12.006,14.894s1.558-2.415,3.586-2.779c5.014-.889,7.071,3.547,6.223,6.851-1.123,4.444-6.139,8.747-8.536,10.593-.762.587-1.803.587-2.565,0-2.396-1.848-7.413-6.155-8.536-10.592-.829-3.304,1.239-7.74,6.242-6.851,2.028.364,3.586,2.779,3.586,2.779Z" fill="#f92f60" fill-rule="evenodd"/></svg>