<?xml version="1.0" encoding="UTF-8"?><svg id="a" xmlns="http://www.w3.org/2000/svg" viewBox="0 0 32 32"><path d="M2,6c0-2.209,1.791-4,4-4h20c2.209,0,4,1.791,4,4v20c0,2.209-1.791,4-4,4H6c-2.209,0-4-1.791-4-4V6Z" fill="#00a6ed"/><path d="M19.003,7c3.865.002,6.997,3.359,6.997,7.5s-3.134,7.5-7,7.5h-6.75c-.138,0-.25.112-.25.25v2.41c0,.683-.838,1.01-1.301.509l-4.229-4.578c-.265-.287-.265-.73,0-1.018l4.229-4.578c.463-.501,1.301-.174,1.301.509v2.246c0,.138.112.25.25.25h6.75c1.401,0,3-1.303,3-3.5s-1.599-3.5-3-3.5h-6c-.552,0-1-.448-1-1v-2c0-.552.448-1,1-1h6.003Z" fill="#fff"/></svg>