<?xml version="1.0" encoding="UTF-8"?><svg id="a" xmlns="http://www.w3.org/2000/svg" viewBox="0 0 32 32"><path d="M5,3.5c0,.653-.417,1.209-1,1.415v7.085l2.161,5.487-2.161,5.513c-1.1,0-2-.899-2-1.998v-7.004c0-.736.403-1.382,1-1.729v-7.355c-.583-.206-1-.762-1-1.415,0-.828.672-1.5,1.5-1.5s1.5.672,1.5,1.5Z" fill="#f8312f"/><path d="M30.05,3.55c0,.681-.439,1.26-1.05,1.468v7.182c.597.347,1,.994,1,1.73v7.01c0,1.1-.9,2-2,2l-2.941-5.679,2.941-5.331v-6.913c-.611-.208-1.05-.786-1.05-1.468,0-.856.694-1.55,1.55-1.55s1.55.694,1.55,1.55Z" fill="#f8312f"/><path d="M11,4.5c0-.828.672-1.5,1.5-1.5h7c.828,0,1.5.672,1.5,1.5,0,.679-.452,1.253-1.071,1.438-.277.082-.57.104-.846.186l-3.053.904-3.119-.908c-.273-.079-.561-.1-.833-.18-.623-.182-1.078-.758-1.078-1.44Z" fill="#ffb02e"/><path d="M22.05,30h-12.1c-3.29,0-5.95-2.66-5.95-5.95v-12.02c0-3.33,2.7-6.03,6.03-6.03h11.95c3.32,0,6.02,2.7,6.02,6.03v12.03c0,3.28-2.66,5.94-5.95,5.94Z" fill="#cdc4d6"/><path d="M9.247,18.5h13.505c2.33,0,4.247-1.919,4.247-4.25s-1.908-4.25-4.247-4.25h-13.505c-2.34,0-4.247,1.909-4.247,4.25s1.908,4.25,4.247,4.25Z" fill="#212121"/><path d="M13.472,26h5.056c.811,0,1.472-.674,1.472-1.5s-.661-1.5-1.472-1.5h-5.056c-.811,0-1.472.674-1.472,1.5s.661,1.5,1.472,1.5Z" fill="#212121"/><path d="M10.25,12c-.69,0-1.25.56-1.25,1.25v2.5c0,.69.56,1.25,1.25,1.25s1.25-.56,1.25-1.25v-2.5c0-.69-.56-1.25-1.25-1.25Z" fill="#00a6ed"/><path d="M21.75,12c-.69,0-1.25.56-1.25,1.25v2.5c0,.69.56,1.25,1.25,1.25s1.25-.56,1.25-1.25v-2.5c0-.69-.56-1.25-1.25-1.25Z" fill="#00a6ed"/></svg>