<?xml version="1.0" encoding="UTF-8"?><svg id="a" xmlns="http://www.w3.org/2000/svg" viewBox="0 0 32 32"><path d="M26.217,8.65l1.71,1.97c1.34,1.53,2.07,3.5,2.07,5.53v12.91c0,.52-.42.94-.94.94h-14.13c-.52,0-.94-.42-.94-.94v-12.91c0-2.03.74-4,2.07-5.53l1.71-1.97c.55-.64.48-1.61-.18-2.13-.204-.162-.399-.336-.584-.52l4.958-.93,5.021.93c-.185.184-.38.358-.584.52-.65.53-.73,1.5-.18,2.13Z" fill="#cdc4d6"/><path d="M28.392,4c.208-.44.371-.906.485-1.39.08-.31-.16-.61-.48-.61h-12.8c-.32,0-.56.3-.49.61.114.484.278.95.485,1.39l6.368.821,6.431-.821Z" fill="#cdc4d6"/><path d="M2.151,23l-.144-1.16c-.06-.45.29-.84.74-.84h11.81c.45,0,.8.39.74.84l-.144,1.16-6.466.723-6.535-.723Z" fill="#b4acbc"/><path d="M2.4,25l.316,2.54c.17,1.4,1.37,2.46,2.79,2.46h6.29c1.42,0,2.62-1.06,2.79-2.46l.316-2.54-6.217-.824-6.285.824Z" fill="#b4acbc"/><path d="M15.597,4h12.8c-.35.75-.83,1.42-1.41,2h-9.98c-.58-.58-1.06-1.25-1.41-2Z" fill="#0084ce"/><path d="M14.906,25H2.396l-.25-2h13.01l-.25,2Z" fill="#0084ce"/></svg>