<?xml version="1.0" encoding="UTF-8"?><svg id="a" xmlns="http://www.w3.org/2000/svg" viewBox="0 0 32 32"><path d="M30,16.005H2l1.72-4.31c.17-.43.58-.71,1.04-.71h22.48c.46,0,.87.28,1.04.71l1.72,4.31Z" fill="#8c5543"/><path d="M17.51,3.325h2.69c.16,0,.29.13.29.29v1.42c0,.16-.13.29-.29.29h-2.08c-.33,0-.6-.27-.6-.6v-1.4h-.01Z" fill="#c3ef3c"/><path d="M19.1,4.325h-3.1v-2h3.1c.22,0,.4.18.4.4v1.19c.01.23-.17.41-.4.41Z" fill="#00f397"/><path d="M2,15.995h7v14H2v-14ZM30,15.995h-7v14h7v-14Z" fill="#ffdea7" isolation="isolate" opacity=".7"/><path d="M22.72,13.955l-6.15-6.06c-.31-.31-.81-.31-1.12,0l-6.15,6.06c-.18.18-.29.43-.29.68v15.37h3.967l3.014-1.207,3.014,1.207h4.005v-15.38c-.01-.25-.11-.49-.29-.67Z" fill="#ffce7c"/><path d="M4.72,20.995h-1.44c-.15,0-.28-.13-.28-.28v-2.44c0-.15.13-.28.28-.28h1.44c.15,0,.28.13.28.28v2.44c0,.16-.12.28-.28.28ZM8,20.715v-2.44c0-.15-.13-.28-.28-.28h-1.44c-.15,0-.28.13-.28.28v2.44c0,.15.13.28.28.28h1.44c.16,0,.28-.12.28-.28ZM5,24.715v-2.44c0-.15-.13-.28-.28-.28h-1.44c-.15,0-.28.13-.28.28v2.44c0,.15.13.28.28.28h1.44c.16,0,.28-.12.28-.28ZM8,24.715v-2.44c0-.15-.13-.28-.28-.28h-1.44c-.15,0-.28.13-.28.28v2.44c0,.15.13.28.28.28h1.44c.16,0,.28-.12.28-.28ZM25.72,20.995h-1.44c-.15,0-.28-.13-.28-.28v-2.44c0-.15.13-.28.28-.28h1.44c.15,0,.28.13.28.28v2.44c0,.16-.12.28-.28.28ZM27.28,20.995h1.44c.16,0,.28-.12.28-.28v-2.44c0-.15-.13-.28-.28-.28h-1.44c-.15,0-.28.13-.28.28v2.44c0,.15.13.28.28.28ZM25.72,24.995h-1.44c-.15,0-.28-.13-.28-.28v-2.44c0-.15.13-.28.28-.28h1.44c.15,0,.28.13.28.28v2.44c0,.16-.12.28-.28.28ZM27.28,24.995h1.44c.16,0,.28-.12.28-.28v-2.44c0-.15-.13-.28-.28-.28h-1.44c-.15,0-.28.13-.28.28v2.44c0,.15.13.28.28.28Z" fill="#83cbff"/><path d="M16,17.995c1.657,0,3-1.343,3-3s-1.343-3-3-3-3,1.343-3,3,1.343,3,3,3Z" fill="#fff"/><path d="M15.51,6.194v-3.729c0-.26.21-.47.47-.47h.06c.26,0,.47.21.47.47v3.743c.046.031.09.067.13.107l7.03,7.03c.21.21.33.49.33.79l-.01,1.82c.01.01.01.03.01.05,0,.28-.22.5-.5.5s-.5-.22-.5-.5c0-.01.003-.017.005-.025.003-.007.005-.015.005-.025h-.01v-1.21c0-.26-.11-.51-.29-.69l-6.15-6.15c-.31-.31-.81-.31-1.12,0l-6.15,6.15c-.19.18-.29.43-.29.69v1.21h-.01c0,.01.003.017.005.025.003.008.005.015.005.025,0,.28-.22.5-.5.5s-.5-.22-.5-.5c0-.01.002-.017.005-.025.002-.007.005-.015.005-.025h-.01v-1.82c0-.29.12-.58.33-.79l7.03-7.03c.046-.046.097-.087.15-.121ZM15.5,14.905c0,.018,0,.036.003.054-.015.144.034.293.147.406l1.48,1.48c.09.1.22.15.35.15s.25-.05.36-.15c.2-.2.2-.51,0-.71l-1.34-1.34v-1.3c0-.28-.22-.5-.5-.5s-.5.22-.5.5v1.41ZM19.01,29.995h-6.05v-5.3c0-.39.31-.7.7-.7h4.65c.39,0,.7.31.7.7v5.3Z" fill="#7d4533"/></svg>