<?xml version="1.0" encoding="UTF-8"?><svg id="a" xmlns="http://www.w3.org/2000/svg" viewBox="0 0 32 32"><path d="M2,6c0-2.209,1.791-4,4-4h20c2.209,0,4,1.791,4,4v20c0,2.209-1.791,4-4,4H6c-2.209,0-4-1.791-4-4V6Z" fill="#00a6ed"/><path d="M25.835,11.845c.195-.195.195-.511,0-.706l-3.012-3.02c-.315-.316-.854-.093-.854.353v1.527h-1.601c-.164,0-.465.024-.725.046-1.95.165-3.754,1.253-4.692,3.071-.091.177-.182.355-.274.533h0c-.579,1.131-1.166,2.276-1.805,3.253-.784,1.2-1.414,1.766-1.841,1.907-.304.1-.792.161-1.324.184-.391.017-.699.012-.912.008-.07-.001-.13-.002-.179-.002h-2.115c-.276,0-.5.224-.5.5v2c0,.276.224.5.5.5h2.125s.028,0,.028,0l.09.002c.073.001.167.003.277.003.219.001.503,0,.816-.014.593-.026,1.421-.098,2.133-.333,1.495-.493,2.609-1.885,3.413-3.114.733-1.121,1.401-2.426,1.974-3.544.089-.174.176-.344.261-.509.425-.823,1.267-1.372,2.278-1.457.141-.012.261-.021.353-.028.046-.003.081-.005.107-.007h.022s1.591-.001,1.591-.001v1.512c0,.446.539.669.854.353l3.012-3.019Z" fill="#fff"/><path d="M19.643,21.96c.26.022.561.046.725.046h1.601v1.514c0,.446.539.669.854.353l3.012-3.019c.195-.195.195-.511,0-.706l-3.012-3.02c-.315-.316-.854-.093-.854.353v1.526h-1.613c-.025-.002-.061-.004-.107-.008-.092-.006-.212-.016-.353-.028-.851-.072-1.555-.437-2.01-1.042-.116-.154-.359-.164-.463-.003l-1.385,2.149c-.063.098-.05.228.034.308.967.918,2.235,1.464,3.572,1.577Z" fill="#fff"/><path d="M9.632,10c.164,0,.465.024.725.046,1.412.119,2.606.595,3.571,1.59.141.145.166.364.074.543-.257.499-.79,1.519-1.206,2.198-.138.226-.456.202-.577-.033-.425-.823-1.103-1.223-2.114-1.308-.141-.012-.261-.021-.353-.028-.046-.003-.081-.005-.107-.007h-.022s-3.123-.001-3.123-.001c-.276,0-.5-.224-.5-.5v-2c0-.276.224-.5.5-.5h3.132Z" fill="#fff"/></svg>