<?xml version="1.0" encoding="UTF-8"?><svg id="a" xmlns="http://www.w3.org/2000/svg" viewBox="0 0 32 32"><path d="M15.999,29.998c9.334,0,13.999-6.267,13.999-13.999S25.333,2,15.999,2,2,8.268,2,15.999s4.664,13.999,13.999,13.999Z" fill="#ffb02e"/><path d="M8.982,11.191c.048-.247.158-.55.367-.778.179-.195.498-.413,1.151-.413.642,0,.969.222,1.157.429.218.24.323.545.358.742.094.544.612.909,1.156.814.544-.094.909-.612.814-1.156-.079-.455-.305-1.149-.849-1.747-.574-.63-1.44-1.082-2.636-1.082-1.184,0-2.047.431-2.624,1.06-.547.596-.769,1.293-.857,1.749-.105.542.249,1.067.791,1.172s1.067-.249,1.172-.791Z" fill="#402a32"/><path d="M19.982,11.191c.048-.247.158-.55.367-.778.179-.195.498-.413,1.151-.413.642,0,.969.222,1.157.429.218.24.323.545.358.742.094.544.612.909,1.156.814.544-.094.909-.612.814-1.156-.079-.455-.305-1.149-.849-1.747-.574-.63-1.44-1.082-2.636-1.082-1.184,0-2.047.431-2.624,1.06-.547.596-.769,1.293-.857,1.749-.105.542.249,1.067.791,1.172.542.105,1.067-.249,1.173-.791Z" fill="#402a32"/><path d="M12,15c.552,0,1,.448,1,1,0,.507.16,1.289.611,1.916.415.576,1.114,1.084,2.389,1.084s1.974-.508,2.389-1.084c.451-.627.611-1.409.611-1.916,0-.552.448-1,1-1s1,.448,1,1c0,.827-.24,2.045-.989,3.084-.785,1.091-2.086,1.916-4.011,1.916s-3.226-.825-4.012-1.916c-.749-1.04-.988-2.258-.988-3.084,0-.552.448-1,1-1Z" fill="#402a32"/><path d="M3,1.1c1.213-.36,2.5.4,3,.9.5-.5,2.168-1.832,3.75-.25,1.275,1.275.75,3.25-.25,4.75-.589.883-2.116,2.272-3.347,3.209-.644.491-1.54.345-2.086-.253-.925-1.013-2.095-2.311-2.667-3.457-1-2,0-4.425,1.6-4.9Z" fill="#f70a8d"/><path d="M4,28c-1.118-1.118-1.5-3-.5-4,1-1,3-.5,3-.5,0,0,.5-1.25,2-1,2,.25,2.25,2.5,1.75,4-.382,1.146-1.307,2.369-1.979,3.156-.432.506-1.168.579-1.718.204-.925-.631-2.237-1.544-2.553-1.86Z" fill="#f70a8d"/><path d="M26.5,18.5c-.333-.5-2-1.9-3.5-1.4-1.897.632-2,2.9-1,4.4.625.938,2.392,3.034,3.355,4.16.356.417.979.463,1.381.09,1.204-1.114,3.534-3.425,4.264-5.25.557-1.393,0-3.5-2-3.5-1.6,0-2.333,1-2.5,1.5Z" fill="#f70a8d"/></svg>