<?xml version="1.0" encoding="UTF-8"?><svg id="a" xmlns="http://www.w3.org/2000/svg" viewBox="0 0 32 32"><path d="M21.018,4.16c-2.84.5-5.02,3.84-5.02,3.84,0,0-2.18-3.34-5.02-3.84C3.978,2.93,1.078,9.07,2.248,13.65c2.09,8.14,13.75,15.26,13.75,15.26,0,0,11.67-7.12,13.75-15.26,1.18-4.58-1.72-10.72-8.73-9.49Z" fill="#f92f60"/><path d="M24.618,8.99c.1.23.28.42.51.52l.96.42c.29.14.29.55,0,.69l-.97.43c-.23.1-.41.29-.51.52l-.76,1.79c-.14.28-.55.28-.69,0l-.76-1.79c-.1-.23-.28-.42-.51-.52l-.97-.43c-.29-.14-.29-.55,0-.69l.97-.43c.23-.1.41-.29.51-.52l.77-1.78c.14-.28.55-.28.69,0l.76,1.79Z" fill="#fcd53f"/><path d="M10.548,18.88c.19.43.52.78.95.97l1.78.8c.53.26.53,1.01,0,1.27l-1.78.8c-.43.2-.77.54-.95.97l-1.41,3.31c-.26.53-1.01.53-1.27,0l-1.41-3.31c-.19-.43-.52-.78-.95-.97l-1.78-.8c-.53-.26-.53-1.01,0-1.27l1.78-.8c.43-.2.77-.54.95-.97l1.41-3.31c.26-.53,1.01-.53,1.27,0l1.41,3.31Z" fill="#fcd53f"/></svg>