<?xml version="1.0" encoding="UTF-8"?><svg id="a" xmlns="http://www.w3.org/2000/svg" viewBox="0 0 32 32"><path d="M22.171,8.877l6.579-5.924c.237-.203.56.12.357.357l-5.924,6.579-1.012-1.012Z" fill="#9b9b9b"/><path d="M8.885,26.029l-2.902-2.902-2.124,2.124,2.902,2.902,2.124-2.124Z" fill="#9b9b9b"/><path d="M19.46,7.097c-.391-.391-1.024-.391-1.414,0l-1.345,1.345-.133.903-.907.137-.978.978-.147.917-.921.151-.913.913-.135.905-.909.139-5.352,5.352c-.391.39-.391,1.024,0,1.414l5.432,5.432c.391.391,1.024.391,1.414,0l11.739-11.739c.391-.391.391-1.024,0-1.414l-1.218-1.218.886-.886c.391-.39.391-1.024,0-1.414l-1.414-1.414c-.39-.391-1.024-.391-1.414,0l-.886.886-1.386-1.386Z" fill="#aeddff"/><path d="M16.707,8.436l-1.061,1.061,1.191,1.191c.293.293.768.293,1.061,0s.293-.768,0-1.061l-1.191-1.191Z" fill="#0074ba"/><path d="M14.676,10.466l1.161,1.161c.293.293.293.768,0,1.061s-.768.293-1.061,0l-1.161-1.161,1.061-1.061Z" fill="#0074ba"/><path d="M12.707,12.436l1.191,1.191c.293.293.293.768,0,1.061s-.768.293-1.061,0l-1.191-1.191,1.061-1.061Z" fill="#0074ba"/><path d="M5.993,18.925c-.391-.391-1.024-.391-1.414,0l-.707.707c-.391.39-.391,1.024,0,1.414l7.071,7.071c.391.39,1.024.39,1.414,0l.707-.707c.39-.391.39-1.024,0-1.414l-7.071-7.071Z" fill="#5092ff"/><path d="M4.109,24.648c-.293-.293-.768-.293-1.061,0-.293.293-.293.768,0,1.061l3.182,3.182c.293.293.768.293,1.061,0,.293-.293.293-.768,0-1.061l-3.182-3.182Z" fill="#5092ff"/></svg>