<?xml version="1.0" encoding="UTF-8"?><svg id="a" xmlns="http://www.w3.org/2000/svg" xmlns:xlink="http://www.w3.org/1999/xlink" viewBox="0 0 32 32"><defs><clipPath id="b"><rect width="32" height="32" fill="none"/></clipPath></defs><g clip-path="url(#b)"><path d="M3,7l7.5,12,17,5,2.306.806c.111-.114.179-.271.174-.446V4.62c0-.34-.27-.62-.62-.62H2.62c-.17,0-.325.07-.438.182l.818,2.818Z" fill="#ffce7c"/><path d="M2.62,24.99h26.75c.17,0,.325-.07.436-.184l-.806-.806L3,5l-.818-.818c-.112.112-.182.267-.182.438v19.75c0,.34.28.62.62.62Z" fill="#e19747"/><path d="M3,23.99V5h25.99v18.99H3Z" fill="#44911b"/><path d="M9,18.014c1.903-1.571,4.342-2.514,7-2.514s5.099.945,7,2.518l1.5,5.982-1.5,6h-14l-1.5-6,1.5-5.986Z" fill="#8c5543"/><path d="M11.29,18.94l1.36-2.94h1.35v14l-2.8-7.87c-.13-.35-.03-.74.23-1l1.36-1.33c.16-.16.05-.45-.19-.45h-1.05c-.21,0-.35-.22-.26-.41Z" fill="#6d4534"/><path d="M20.76,18.94l-1.36-2.94h-1.4v14l2.85-7.87c.13-.35.03-.74-.23-1l-1.36-1.33c-.16-.16-.05-.45.19-.45h1.05c.21,0,.35-.22.26-.41Z" fill="#6d4534"/><path d="M9,18c-2.43,2.03-4.01,5.09-4,8.5v3.5h4v-12Z" fill="#6d4534"/><path d="M23,18v12h4v-1l-.01-2.51c0-3.41-1.54-6.47-3.99-8.49Z" fill="#6d4534"/><path d="M18.05,16.82h-4.11v13.18h4.11v-13.18Z" fill="#e6e6e6"/><path d="M16,18.67c-1.107,0-2-.92-2-2.06v-2.56c0-1.14.893-2.06,2-2.06s2,.92,2,2.06v2.56c-.01,1.14-.903,2.06-2,2.06Z" fill="#fcb100"/><path d="M22.25,5.29c-.3-.52-.77-.88-1.29-1.06-.57-.19-1.07-.57-1.38-1.08-.43-.69-1.18-1.15-2.04-1.15-.33,0-.65.07-.93.19-.39.17-.83.17-1.22,0-.29-.12-.6-.19-.94-.19-.85,0-1.59.44-2.01,1.11-.33.52-.83.92-1.41,1.12-.55.19-1.03.58-1.33,1.13-.43.8-.34,1.76.15,2.47.18.26.28.57.28.88v4.17c0,.93.59,1.75,1.47,2.06l1.89.65v-7.42c.15-.14.27-.31.38-.5.17-.29.27-.61.3-.92.09.01.19.02.28.02.59,0,1.13-.21,1.54-.57.42.35.95.57,1.54.57.1,0,.19-.01.28-.02.04.32.13.63.3.92.11.19.24.35.38.5v7.43l1.89-.65c.88-.3,1.47-1.13,1.47-2.06v-4.17c0-.31.1-.62.28-.88.52-.74.59-1.73.12-2.55Z" fill="#f1a11e"/><path d="M12.77,10.59c0,.922-.748,1.67-1.67,1.67s-1.67-.748-1.67-1.67.748-1.67,1.67-1.67,1.67.748,1.67,1.67Z" fill="#fdbb11"/><path d="M22.56,10.59c0,.922-.748,1.67-1.67,1.67s-1.67-.748-1.67-1.67.748-1.67,1.67-1.67,1.67.748,1.67,1.67Z" fill="#fdbb11"/><path d="M10.83,8.076c.018-1.865,1.541-3.376,3.41-3.376h1.3c.28,0,.52.17.63.42.4.89,1.29,1.45,2.26,1.45h1.43c.8.04,1.43.71,1.41,1.52l-.012.518-.308,4.952c-.27,1.97-1.94,3.44-3.93,3.44h-1.9c-1.98,0-3.66-1.47-3.93-3.44l-.36-5.484Z" fill="#ffc83d"/><path d="M12.332,8.034c-.119.093-.141.265-.048.384.093.119.265.141.384.048l.095-.062c.069-.041.172-.097.305-.149.266-.105.645-.196,1.1-.143.15.018.286-.09.304-.24.018-.15-.09-.286-.24-.304-.565-.066-1.036.047-1.365.177-.165.065-.295.135-.386.189-.045.027-.081.051-.106.068-.012.009-.023.016-.03.021l-.014.01Z" fill="#d37034"/><path d="M19.726,8.418c.093-.119.071-.292-.048-.385h-.002s-.003-.004-.003-.004l-.009-.007c-.007-.005-.017-.013-.03-.021-.025-.017-.061-.041-.106-.068-.091-.054-.221-.124-.386-.189-.33-.13-.801-.244-1.365-.177-.15.018-.258.154-.24.304.018.15.154.258.304.24.455-.054.834.038,1.1.143.133.052.236.108.305.149.034.021.06.038.076.049.008.006.014.01.017.012l.003.002c.119.092.291.071.384-.048Z" fill="#d37034"/><path d="M12.18,10.28c.15-.62.71-1.08,1.38-1.08.69,0,1.27.49,1.4,1.15.03.15-.08.28-.23.28h-2.28c-.18,0-.31-.17-.27-.35Z" fill="#fff"/><path d="M19.83,10.28c-.15-.62-.71-1.08-1.38-1.08-.7,0-1.27.49-1.4,1.15-.03.15.08.28.23.28h2.28c.18,0,.31-.17.27-.35Z" fill="#fff"/><path d="M12.86,10.39c0-.5.41-.91.91-.91.51,0,.91.41.91.91,0,.08-.01.16-.03.24h-1.76c-.02-.08-.03-.16-.03-.24Z" fill="#7d4533"/><path d="M19.15,10.39c0-.5-.41-.91-.91-.91-.51,0-.92.41-.91.91,0,.08.01.16.03.24h1.76c.02-.08.03-.16.03-.24Z" fill="#7d4533"/><path d="M13.77,9.87c.29,0,.52.23.52.52,0,.09-.02.17-.06.24h-.92c-.04-.07-.06-.15-.06-.24,0-.29.23-.52.52-.52Z"/><path d="M18.24,9.87c-.29,0-.52.23-.52.52,0,.09.02.17.06.24h.92c.04-.07.06-.15.06-.24,0-.29-.23-.52-.52-.52Z"/><path d="M13.62,10.02c0,.088-.072.16-.16.16s-.16-.072-.16-.16.072-.16.16-.16.16.072.16.16Z" fill="#fff"/><path d="M18.11,10.02c0,.088-.072.16-.16.16s-.16-.072-.16-.16.072-.16.16-.16.16.072.16.16Z" fill="#fff"/><path d="M15.69,10.31l-.53,1.71c-.11.35.15.71.52.71h.78c.37,0,.63-.36.52-.71l-.53-1.71c-.11-.38-.64-.38-.76,0Z" fill="#ed9200"/><path d="M16,13.68c-.54,0-1.05-.13-1.48-.36-.15-.08-.3.09-.21.23.36.55.98.92,1.69.92s1.33-.37,1.69-.92c.09-.14-.07-.3-.21-.23-.43.23-.93.36-1.48.36Z" fill="#990839"/><path d="M9.32,24.1c0-.55.45-1,1-1,.56,0,1,.45,1,1v2.29h-2v-2.29Z" fill="#f59f00"/><path d="M22.67,24.1c0-.55-.45-1-1-1-.56,0-1,.45-1,1v2.29h2v-2.29Z" fill="#f59f00"/><path d="M20.83,8.49h-3.47c-.3,0-.58.14-.77.37-.12.15-.3.24-.51.24s-.39-.09-.51-.24c-.19-.23-.47-.37-.77-.37h-3.48c-.19,0-.34.15-.34.34v.22c0,.11.05.2.13.26.04.03.07.08.07.13v1.1c0,1.05.85,1.91,1.91,1.91h.71c1.05,0,1.91-.85,1.91-1.91v-.61c.01-.2.17-.35.37-.35s.36.16.37.36v.6c0,1.05.85,1.91,1.91,1.91h.71c1.05,0,1.91-.85,1.91-1.91v-1.11c0-.05.02-.1.06-.13.08-.06.13-.16.13-.26v-.21c0-.19-.15-.34-.34-.34ZM15.37,10.44c0,.91-.74,1.65-1.65,1.65h-.55c-.91,0-1.65-.74-1.65-1.65v-.72c0-.49.39-.88.88-.88h2.08c.49,0,.88.39.88.88v.72h.01ZM20.65,10.44c0,.91-.74,1.65-1.65,1.65h-.55c-.91,0-1.65-.74-1.65-1.65v-.72c0-.49.39-.88.88-.88h2.09c.49,0,.88.39.88.88v.72Z" fill="#433b6b"/><path d="M11.31,22.88v7.12h10.34v-8.19c0-.45-.36-.81-.81-.81h-7.64c-1.05-.01-1.89.84-1.89,1.88Z" fill="#f92f60"/><path d="M10.31,30v-8.12c0-1.04.84-1.89,1.89-1.88h8.64c.45,0,.81.36.81.81v.625h-9.65v8.565h-1.69Z" fill="#433b6b"/><path d="M21.64,20.86h-9.54c-.48,0-.87.39-.87.87s.39.87.87.87h9.54v-1.74Z" fill="#e6e6e6"/><path d="M14.26,25.49c-.01-.41-.36-.73-.77-.73v-.01h-3.3c-.48,0-.87.39-.87.87v3.51c0,.48.39.87.87.87h3.3c.41,0,.76-.32.77-.73,0-.27-.13-.51-.34-.65.21-.13.34-.36.34-.62s-.14-.49-.34-.62c.21-.13.34-.36.34-.62s-.14-.49-.34-.62c.21-.14.35-.38.34-.65Z" fill="#ffc83d"/><path d="M17.73,25.49c.01-.41.36-.73.77-.73v-.01h3.3c.48,0,.87.39.87.87v3.51c0,.48-.39.87-.87.87h-3.3c-.41,0-.76-.32-.77-.73,0-.27.13-.51.34-.65-.21-.13-.34-.36-.34-.62s.14-.49.34-.62c-.21-.13-.34-.36-.34-.62s.14-.49.34-.62c-.21-.14-.35-.38-.34-.65Z" fill="#ffc83d"/></g></svg>