<?xml version="1.0" encoding="UTF-8"?><svg id="a" xmlns="http://www.w3.org/2000/svg" viewBox="0 0 32 32"><path d="M11.475,7.019c1.381,0,2.5-1.119,2.5-2.5s-1.119-2.5-2.5-2.5-2.5,1.119-2.5,2.5,1.119,2.5,2.5,2.5Z" fill="#d3883e"/><path d="M20.475,7.019c1.381,0,2.5-1.119,2.5-2.5s-1.119-2.5-2.5-2.5-2.5,1.119-2.5,2.5,1.119,2.5,2.5,2.5Z" fill="#d3883e"/><path d="M17.537,15.51c.863-1.414,2.709-1.861,4.124-.998l6.829,4.167c1.414.863,1.861,2.709.999,4.124-.863,1.414-2.709,1.861-4.124.998l-6.829-4.167c-1.414-.863-1.861-2.709-.999-4.123Z" fill="#d3883e"/><path d="M3.573,18.628c-1.435.828-1.927,2.663-1.098,4.098.828,1.435,2.663,1.926,4.098,1.098l6.928-4c1.435-.828,1.926-2.663,1.098-4.098-.828-1.435-2.663-1.926-4.098-1.098l-6.928,4Z" fill="#d3883e"/><path d="M23.975,10.101c0,4.418-3.582,5.918-8,5.918s-8-1.5-8-5.918S12.475,2.519,15.975,2.519s8,3.163,8,7.582Z" fill="#e19747"/><path d="M23.975,10.101c0,4.418-3.582,5.918-8,5.918s-8-1.5-8-5.918S12.475,2.519,15.975,2.519s8,3.163,8,7.582Z" fill="#ff822d"/><path d="M21.205,14.966c1.696-.902,2.769-2.446,2.769-4.865,0-4.418-4.5-7.582-8-7.582s-8,3.163-8,7.582c0,2.419,1.073,3.963,2.769,4.865-1.696,1.467-2.769,3.635-2.769,6.053,0,4.418,3.582,8,8,8s8-3.582,8-8c0-2.418-1.073-4.586-2.769-6.053Z" fill="#e19747"/><path d="M7.515,22.47c1.551-1.154,3.743-.833,4.897.718l.896,1.203c1.154,1.551.833,3.743-.718,4.898-1.55,1.154-3.743.833-4.897-.718l-.896-1.203c-1.154-1.55-.833-3.743.718-4.897ZM24.446,22.47c-1.551-1.154-3.743-.833-4.897.718l-.896,1.203c-1.154,1.551-.833,3.743.718,4.898,1.551,1.154,3.743.833,4.898-.718l.896-1.203c1.154-1.55.833-3.743-.718-4.897Z" fill="#d3883e"/><path d="M21.831,5.162c.092-.195.144-.412.144-.642,0-.828-.672-1.5-1.5-1.5-.396,0-.756.153-1.024.404.863.44,1.682,1.028,2.38,1.738ZM12.499,3.423c-.268-.25-.628-.404-1.024-.404-.828,0-1.5.672-1.5,1.5,0,.23.052.447.144.642.698-.71,1.517-1.299,2.38-1.738ZM19.475,11.449c0,1.381-1.567,3-3.5,3s-3.5-1.619-3.5-3,1.567-2.5,3.5-2.5,3.5,1.119,3.5,2.5ZM20.975,22.019v.041c-.549.235-1.044.613-1.426,1.126l-.896,1.203c-.495.665-.719,1.449-.69,2.218-.609.264-1.282.411-1.988.411-.702,0-1.37-.145-1.976-.406.03-.771-.194-1.556-.69-2.223l-.896-1.203c-.385-.517-.885-.897-1.438-1.131v-.036c0-2.761,2.238-5,5-5s5,2.239,5,5ZM11.239,24.1c-.66-.886-1.913-1.07-2.799-.41-.886.659-1.07,1.912-.41,2.799l.896,1.203c.66.886,1.912,1.07,2.799.41.886-.66,1.07-1.913.41-2.799l-.896-1.203ZM23.521,23.69c-.886-.66-2.139-.476-2.799.41l-.896,1.203c-.66.886-.476,2.139.41,2.799.886.66,2.139.476,2.799-.41l.896-1.203c.66-.886.476-2.139-.41-2.799Z" fill="#ffdea7"/><path d="M13.975,8.449c0,.276-.224.5-.5.5s-.5-.224-.5-.5.224-.5.5-.5.5.224.5.5Z"/><path d="M18.975,8.449c0,.276-.224.5-.5.5s-.5-.224-.5-.5.224-.5.5-.5.5.224.5.5Z"/><path d="M15.017,10.248c.077-.176.253-.299.458-.299h1c.205,0,.38.123.458.299.053.121-.01.254-.104.348l-.5.5c-.195.195-.512.195-.707,0l-.5-.5c-.094-.094-.158-.226-.104-.348Z"/></svg>