<?xml version="1.0" encoding="UTF-8"?><svg id="a" xmlns="http://www.w3.org/2000/svg" viewBox="0 0 32 32"><path d="M15.999,29.998c9.334,0,13.999-6.267,13.999-13.999S25.333,2,15.999,2,2,8.268,2,15.999s4.664,13.999,13.999,13.999Z" fill="#ffb02e"/><path d="M10,21.5v-3.061c0-.795-.644-1.439-1.439-1.439-.841,0-1.505.718-1.517,1.559-.02,1.361-.208,3.163-1.043,3.441-3,1-4,5.5-1.5,7.5,2,1.6,4,1.5,5.5,1.5h2.764c.683,0,1.236-.553,1.236-1.236,0-.468-.264-.896-.683-1.106l-.317-.158h.719c.459,0,.859-.312.97-.757l.068-.272c.123-.493-.249-.97-.757-.97l.329-.165c.411-.206.671-.626.671-1.085s-.26-.88-.671-1.085l-.329-.165h1.75c.69,0,1.25-.56,1.25-1.25s-.56-1.25-1.25-1.25h-5.75Z" fill="#ffb02e"/><path d="M10.419,16.224c2.323,0,4.206-1.883,4.206-4.206s-1.883-4.206-4.206-4.206-4.206,1.883-4.206,4.206,1.883,4.206,4.206,4.206Z" fill="#fff"/><path d="M21.568,16.301c2.344,0,4.244-1.9,4.244-4.244s-1.9-4.244-4.244-4.244-4.244,1.9-4.244,4.244,1.9,4.244,4.244,4.244Z" fill="#fff"/><path d="M10,21.5v-3.061c0-.795-.644-1.439-1.439-1.439-.841,0-1.505.718-1.517,1.559-.02,1.361-.208,3.163-1.043,3.441-3,1-4,5.5-1.5,7.5,2,1.6,4,1.5,5.5,1.5h2.764c.683,0,1.236-.553,1.236-1.236,0-.468-.264-.896-.683-1.106l-.317-.158h.719c.459,0,.859-.312.97-.757l.068-.272c.123-.493-.249-.97-.757-.97l.329-.165c.411-.206.671-.626.671-1.085s-.26-.88-.671-1.085l-.329-.165h1.75c.69,0,1.25-.56,1.25-1.25s-.56-1.25-1.25-1.25h-5.75Z" fill="#ff822d"/><path d="M7.146,4.146c.397-.397,1.484-1.146,2.854-1.146s2.457.75,2.854,1.146c.195.195.195.512,0,.707-.195.195-.512.195-.707,0-.27-.27-1.116-.854-2.146-.854s-1.877.584-2.146.854c-.195.195-.512.195-.707,0-.195-.195-.195-.512,0-.707Z" fill="#402a32"/><path d="M18.18,8.116c.471-.392,1.74-1.116,3.32-1.116s2.849.724,3.32,1.116c.212.177.241.492.064.704s-.492.241-.704.064c-.329-.274-1.38-.884-2.68-.884s-2.351.61-2.68.884c-.212.177-.527.148-.704-.064s-.148-.527.064-.704Z" fill="#402a32"/><path d="M16.081,18.986c-1.17-.2-2.019.366-2.374.721-.391.391-1.024.391-1.414,0-.391-.39-.391-1.024,0-1.414.645-.645,2.112-1.623,4.126-1.279,1.963.336,2.974,1.456,3.488,2.565.233.501.015,1.096-.486,1.328-.501.233-1.096.015-1.328-.486-.281-.605-.791-1.227-2.012-1.435Z" fill="#402a32"/><circle cx="10" cy="11.5" r="2.009" fill="#402a32"/><circle cx="21" cy="11.5" r="2.009" fill="#402a32"/></svg>