<?xml version="1.0" encoding="UTF-8"?><svg id="a" xmlns="http://www.w3.org/2000/svg" viewBox="0 0 32 32"><path d="M19.688,26.44c0,2.9-2.125,3.583-3.312,3.562-2.413,0-3.082-2.009-3.281-3.078-.247-1.329-.005-4.509.106-5.969l.003-.042c-.159.037-.33.057-.515.057h-3.858c-1.56,0-2.83-1.27-2.83-2.83,0-.806.259-1.535.765-2.051-1.044-.461-1.765-1.428-1.765-2.543,0-1.023.463-1.921,1.364-2.418-.823-.511-1.364-1.366-1.364-2.332,0-1.108.543-2.069,1.598-2.534-.374-.386-.598-.96-.598-1.794,0-1.379.969-2.502,2.83-2.502h3.858c.045,0,.09.001.134.003h3.131c10.438-.172,11.047,6.594,11.047,9.344,0,5.156-2.298,6.689-4.341,8.051-.966.644-1.874,1.25-2.456,2.183-.488.783-.516,1.5-.516,4.891Z" fill="#ffc83d"/><path d="M14.394,6.913h-5.394c-.276,0-.5-.224-.5-.5s.224-.5.5-.5h5.549c.333-.509.467-1.084.467-1.443,0-1.085-.606-2.228-1.855-2.459,2.562.105,3.87,1.279,3.87,2.68,0,1.175-.708,1.868-1.062,2.068.654.469,1.062,1.156,1.062,2.088,0,1.234-1.062,2.266-1.062,2.266,0,0,1.062.938,1.062,2.219,0,1.15-.5,2.078-1.062,2.328.562.391,1.031,1.094,1.031,2.344,0,2.375-2.979,2.938-4,2.969v-.02c1.573-.21,2.016-2,2.016-2.81,0-.686-.279-1.573-.842-2.17h-5.173c-.276,0-.5-.224-.5-.5s.224-.5.5-.5h5.62c.28-.519.396-1.066.396-1.424,0-.751-.252-1.527-.766-2.076h-5.249c-.276,0-.5-.224-.5-.5s.224-.5.5-.5h5.47c.39-.585.546-1.258.546-1.674,0-.466-.14-1.258-.621-1.885Z" fill="#d67d00"/></svg>