<?xml version="1.0" encoding="UTF-8"?><svg id="a" xmlns="http://www.w3.org/2000/svg" viewBox="0 0 32 32"><path d="M12.312,5.531c0-2.9,2.125-3.583,3.312-3.562,2.413,0,3.082,2.009,3.281,3.078.247,1.329.005,4.509-.106,5.969l-.003.042c.159-.037.33-.057.515-.057h3.858c1.56,0,2.83,1.27,2.83,2.83,0,.806-.259,1.535-.765,2.051,1.044.461,1.765,1.428,1.765,2.543,0,1.023-.463,1.921-1.364,2.418.823.511,1.364,1.366,1.364,2.332,0,1.108-.543,2.069-1.598,2.534.374.386.598.96.598,1.794,0,1.379-.969,2.502-2.83,2.502h-3.858c-.045,0-.09,0-.134-.003h-3.131c-10.438.172-11.047-6.594-11.047-9.344,0-5.156,2.298-6.689,4.341-8.051.966-.644,1.874-1.25,2.456-2.183.488-.783.516-1.5.516-4.891Z" fill="#ffc83d"/><path d="M19,11c-1.021.031-4,.594-4,2.969,0,1.25.469,1.953,1.031,2.344-.562.25-1.062,1.178-1.062,2.328,0,1.281,1.062,2.219,1.062,2.219,0,0-1.062,1.031-1.062,2.266,0,.932.409,1.62,1.062,2.088-.354.2-1.062.893-1.062,2.068,0,1.401,1.308,2.575,3.87,2.68-1.248-.231-1.855-1.375-1.855-2.459,0-.358.134-.934.467-1.443h5.549c.276,0,.5-.224.5-.5s-.224-.5-.5-.5h-5.411c-.405-.53-.604-1.218-.604-1.885,0-.415.156-1.088.546-1.674h5.47c.276,0,.5-.224.5-.5s-.224-.5-.5-.5h-5.249c-.514-.549-.766-1.325-.766-2.076,0-.357.116-.905.396-1.424h5.62c.276,0,.5-.224.5-.5s-.224-.5-.5-.5h-5.173c-.563-.597-.842-1.484-.842-2.17,0-.81.442-2.6,2.016-2.81v-.02Z" fill="#d67d00"/></svg>