<?xml version="1.0" encoding="UTF-8"?><svg id="a" xmlns="http://www.w3.org/2000/svg" viewBox="0 0 32 32"><path d="M16.01,3.505c.552,0,1,.448,1,1v4.42c0,.552-.448,1-1,1s-1-.448-1-1v-4.42c0-.552.448-1,1-1Z" fill="#008463"/><path d="M19.99,8.495h-7.97c-5.53,0-10,4.48-10,10s4.48,10,10,10h7.96c5.53,0,10-4.48,10-10,.01-5.52-4.47-10-9.99-10Z" fill="#f8312f"/><path d="M15.42,11.165h-5.76c-3.13,0-5.66-2.53-5.66-5.66h5.76c3.13,0,5.66,2.53,5.66,5.66Z" fill="#00d26a"/><path d="M27.99,5.505h-5.76c-3.13,0-5.66,2.53-5.66,5.66h5.76c3.13,0,5.66-2.53,5.66-5.66Z" fill="#00d26a"/><path d="M5.77,13.575h5.77c1.814,0,3.433-.856,4.467-2.188,1.035,1.332,2.652,2.188,4.472,2.188h5.76c0-3.12-2.54-5.66-5.66-5.66h-9.15c-3.13,0-5.66,2.53-5.66,5.66Z" fill="#00f397"/></svg>