<?xml version="1.0" encoding="UTF-8"?><svg id="a" xmlns="http://www.w3.org/2000/svg" viewBox="0 0 32 32"><path d="M2,6c0-2.209,1.791-4,4-4h20c2.209,0,4,1.791,4,4v20c0,2.209-1.791,4-4,4H6c-2.209,0-4-1.791-4-4V6Z" fill="#8d65c5"/><path d="M10.031,5c.552,0,1,.448,1,1s-.448,1-1,1h-1.772l1.932,1.984,1.102-1.102c.391-.391,1.024-.391,1.414,0,.391.391.391,1.024,0,1.414l-1.121,1.121.854.877c.996-.735,2.227-1.169,3.559-1.169,1.346,0,2.589.443,3.59,1.192l4.137-4.317h-1.774c-.552,0-1-.448-1-1s.448-1,1-1h4.047c.552,0,1,.448,1,1v4.047c0,.552-.448,1-1,1s-1-.448-1-1v-1.485l-4.028,4.203c.649.958,1.028,2.115,1.028,3.36,0,2.973-2.162,5.441-5,5.917v1.958h1.5c.552,0,1,.448,1,1s-.448,1-1,1h-1.5v1c0,.552-.448,1-1,1s-1-.448-1-1v-1h-1.5c-.552,0-1-.448-1-1s.448-1,1-1h1.5v-1.958c-2.838-.476-5-2.944-5-5.917,0-1.259.388-2.427,1.05-3.392l-.878-.902-1.001,1.001c-.391.391-1.024.391-1.414,0-.391-.391-.391-1.024,0-1.414l1.019-1.019-1.808-1.857v1.521c0,.552-.448,1-1,1s-1-.448-1-1v-4.062c0-.552.448-1,1-1h4.062ZM12,16.125c0,2.209,1.791,4,4,4s4-1.791,4-4-1.791-4-4-4-4,1.791-4,4Z" fill="#fff"/></svg>