<?xml version="1.0" encoding="UTF-8"?><svg id="a" xmlns="http://www.w3.org/2000/svg" viewBox="0 0 32 32"><path d="M17.015,3.015c0-.552-.448-1-1-1s-1,.448-1,1v19.964h2V3.015Z" fill="#433b6b"/><path d="M5.535,14.995c1.28,0,2.4.7,3,1.73.1.16.27.26.46.26h.06c.19,0,.36-.1.46-.26.61-1.03,1.72-1.73,3-1.73s2.4.7,3,1.73c.1.16.27.26.46.26h.06c.19,0,.36-.1.46-.26.61-1.03,1.72-1.73,3-1.73s2.4.7,3,1.73c.1.16.27.26.46.26h.06c.19,0,.36-.1.46-.26.61-1.03,1.72-1.73,3-1.73,1.34,0,2.5.76,3.08,1.88.04.07.11.12.19.12.12,0,.22-.1.22-.22-.1-7.62-6.31-13.76-13.96-13.76S2.155,9.155,2.035,16.765c0,.12.1.22.22.22.08,0,.16-.05.19-.12.59-1.11,1.75-1.87,3.09-1.87Z" fill="#8d65c5"/><path d="M16.015,21.975c.552,0,1,.448,1,1v3.54c0,1.922-1.548,3.47-3.47,3.47s-3.47-1.56-3.47-3.47c0-.552.448-1,1-1s1,.448,1,1c0,.81.655,1.47,1.47,1.47s1.47-.652,1.47-1.47v-3.54c0-.552.448-1,1-1Z" fill="#8c5543"/><path d="M3.255,4.155c-.56.55-.56,1.46,0,2.02.56.56,1.47.56,2.03,0l1.71-1.72c.56-.55.56-1.46,0-2.02-.55-.56-1.46-.56-2.02,0l-1.72,1.72ZM25.675,8.155c-.56.55-.56,1.46,0,2.02.56.56,1.47.56,2.02,0l1.72-1.72c.56-.55.56-1.46,0-2.02-.55-.56-1.46-.56-2.02,0l-1.72,1.72ZM18.675,6.175c-.56-.56-.56-1.47,0-2.02l1.72-1.72c.56-.56,1.47-.56,2.02,0,.56.56.56,1.47,0,2.02l-1.72,1.72c-.55.56-1.46.56-2.02,0ZM9.675,8.155c-.56.55-.56,1.46,0,2.02.56.56,1.47.56,2.03,0l1.71-1.72c.56-.55.56-1.46,0-2.02-.55-.56-1.46-.56-2.02,0l-1.72,1.72Z" fill="#00a6ed"/></svg>