<?xml version="1.0" encoding="UTF-8"?><svg id="a" xmlns="http://www.w3.org/2000/svg" viewBox="0 0 32 32"><path d="M2,6c0-.552.448-1,1-1h.14c.475,0,.86.385.86.86,0,.092.015.184.044.272l.85,2.551c.068.205.068.427,0,.632l-.85,2.551c-.029.088-.044.18-.044.272,0,.475-.385.86-.86.86h-.14c-.552,0-1-.448-1-1v-6ZM29,11h-1l-1,4,1,4h1c.552,0,1-.448,1-1v-6c0-.552-.448-1-1-1ZM16.5,22l-9.5,1v2c0,1.105.895,2,2,2h15c1.105,0,2-.895,2-2v-2l-9.5-1ZM18,7H6l1,4,7.752.862,7.248-.862c0-2.209-1.791-4-4-4Z" fill="#321b41"/><polygon points="26 11 28 11 28 19 26 19 25.032 14.794 26 11" fill="#e6e6e6"/><path d="M4,6h1.5c.828,0,1.5.672,1.5,1.5v3c0,.828-.672,1.5-1.5,1.5h-1.5v-6ZM7,11h19v12H7v-12ZM13.5,24c-.276,0-.5.224-.5.5s.224.5.5.5h1c.276,0,.5-.224.5-.5s-.224-.5-.5-.5h-1Z" fill="#d3d3d3"/><path d="M19,24.5c0,.276-.224.5-.5.5s-.5-.224-.5-.5.224-.5.5-.5.5.224.5.5Z" fill="#ca0b4a"/><path d="M9,13c0-.552.448-1,1-1h10c.552,0,1,.448,1,1v2h1c.552,0,1,.448,1,1v1c0,.552-.448,1-1,1h-1v2c0,.552-.448,1-1,1h-10c-.552,0-1-.448-1-1v-7Z" fill="#e6e6e6"/><path d="M11,15c0-.552.448-1,1-1h6c.552,0,1,.448,1,1v3c0,.552-.448,1-1,1h-6c-.552,0-1-.448-1-1v-3Z" fill="#321b41"/></svg>