<?xml version="1.0" encoding="UTF-8"?><svg id="a" xmlns="http://www.w3.org/2000/svg" viewBox="0 0 32 32"><path d="M4.434,12.79l9.13-4.67-1.93-2.12c-7.2,0-7.2,6.79-7.2,6.79Z"/><path d="M27.13,12.79l-9.13-4.67,1.93-2.12c7.2,0,7.2,6.79,7.2,6.79Z"/><path d="M27.178,10.511c-.51-2.14-2.359-3.511-4.577-3.511h-13.232c-2.209,0-4.068,1.371-4.577,3.511,0,0-3.638,11.655-2.608,15.208.33,1.143,1.409,1.808,2.199,2.161.49.218,1.069.135,1.489-.208,0,0,4.632-3.965,5.002-4.246.37-.281.819-.426,1.279-.426h7.695c.46,0,.909.156,1.279.426l5.012,4.246c.42.343,1.126.367,1.489.208.779-.343,1.859-1.018,2.199-2.161.999-3.553-2.648-15.208-2.648-15.208Z" fill="#533566"/><path d="M22.714,11.59c.552,0,1-.448,1-1s-.448-1-1-1-1,.448-1,1,.448,1,1,1Z" fill="#fcd53f"/><path d="M22.714,16.11c.552,0,1-.448,1-1s-.448-1-1-1-1,.448-1,1,.448,1,1,1Z" fill="#86d72f"/><path d="M20.454,13.85c.552,0,1-.448,1-1s-.448-1-1-1-1,.448-1,1,.448,1,1,1Z" fill="#00a6ed"/><path d="M24.974,13.85c.552,0,1-.448,1-1s-.448-1-1-1-1,.448-1,1,.448,1,1,1Z" fill="#f8312f"/><path d="M9.674,15.04c1.187,0,2.15-.963,2.15-2.15s-.963-2.15-2.15-2.15-2.15.963-2.15,2.15.963,2.15,2.15,2.15Z" fill="#a4aeeb"/><path d="M19.674,20.86c1.187,0,2.15-.963,2.15-2.15s-.963-2.15-2.15-2.15-2.15.963-2.15,2.15.962,2.15,2.15,2.15Z" fill="#a4aeeb"/><path d="M14.294,18.06h.4c.28,0,.55.19.58.47.07.36-.21.68-.56.68h-.43c-.32,0-.58.26-.58.58v.43c0,.35-.32.63-.68.56-.28-.05-.47-.32-.47-.6v-.4c0-.32-.26-.58-.58-.58h-.43c-.35,0-.63-.32-.56-.68.05-.28.32-.47.6-.47h.4c.32,0,.58-.26.58-.58v-.43c0-.35.32-.63.68-.56.28.05.47.32.47.6v.4c0,.32.26.58.58.58Z" fill="#a4aeeb"/><path d="M16,11.462c.726,0,1.315-.589,1.315-1.315s-.589-1.315-1.315-1.315-1.315.589-1.315,1.315.589,1.315,1.315,1.315Z" fill="#d3d3d3"/></svg>