<?xml version="1.0" encoding="UTF-8"?><svg id="a" xmlns="http://www.w3.org/2000/svg" viewBox="0 0 32 32"><path d="M13.52,2.3l-1.79.94.18.342-1.902,3.621-2.148-4.084-1.79.94,2.796,5.317-1.857,3.535-.427-.812-1.022-8.49-2.8.33,3.1,25.75,2.8-.34-.393-3.262,1.694-3.221,1.904,3.62-1.196,2.273,1.79.94.685-1.303,1.575-.827-.571-1.085,1.857-3.533,1.859,3.534-1.095,2.084,1.79.94.448-.852.022.042,1.79-.94-.67-1.274,1.903-3.62,1.634,3.106-.407,3.378,2.8.34,3.1-25.75-2.8-.33-1.044,8.665-.332.632-1.861-3.535,2.266-4.312-1.78-.94-1.625,3.089-2.515-4.779-1.78.94.111.212-1.814,3.448-2.488-4.73ZM24.657,17.911l-.545,4.527-.917-1.744,1.463-2.782ZM7.841,22.554l-.581-4.822,1.559,2.963-.978,1.859ZM23.863,15.078l-1.811,3.444-1.859-3.535,1.811-3.446,1.859,3.537ZM20.91,20.694l-1.903,3.62-1.859-3.535,1.903-3.621,1.859,3.535ZM14.866,20.783l-1.858,3.532-1.904-3.62,1.858-3.532,1.904,3.62ZM17.911,14.992l-1.904,3.619-1.904-3.62,1.904-3.619,1.904,3.619ZM20.866,9.375l-1.812,3.445-1.904-3.619,1.813-3.447,1.903,3.62ZM8.148,15.077l1.858-3.533,1.813,3.447-1.858,3.532-1.813-3.447ZM11.149,9.373l1.903-3.619,1.813,3.448-1.904,3.619-1.813-3.448Z" fill="#bebebe"/><path d="M4,6h24c1.1,0,2-.9,2-2s-.9-2-2-2H4c-1.1,0-2,.9-2,2s.9,2,2,2Z" fill="#9b9b9b"/><path d="M7,30h18c1.1,0,2-.9,2-2s-.9-2-2-2H7c-1.1,0-2,.9-2,2s.9,2,2,2Z" fill="#9b9b9b"/></svg>