<?xml version="1.0" encoding="UTF-8"?><svg id="a" xmlns="http://www.w3.org/2000/svg" viewBox="0 0 32 32"><path d="M16,29.999c9.334,0,13.999-6.267,13.999-13.999S25.334,2.001,16,2.001,2.001,8.269,2.001,16s4.664,13.999,13.999,13.999Z" fill="#ffb02e"/><path d="M25.239,13.11c.201.237.269.554.241.863-.246,2.734-2.613,4.501-4.979,4.028-2.3-.46-3.753-2.612-3.582-4.9.029-.394.222-.763.553-.978,2.115-1.369,6.412-.613,7.767.987Z" fill="#fff"/><path d="M7.001,15.001c.167,1.167,1.172,3,4,3,4.5,0,4-6,4-6l-8,3Z" fill="#fff"/><path d="M19.563,6.997c.596-.074,1.554-.029,2.441.351.869.372,1.664,1.059,2.016,2.29.076.266.353.419.618.343.266-.076.419-.353.343-.618-.448-1.568-1.487-2.465-2.584-2.935-1.079-.462-2.221-.516-2.959-.424-.274.034-.468.284-.434.558.034.274.284.468.558.434Z" fill="#402a32"/><path d="M12.986,9.622c.067-.268-.096-.539-.364-.606-.268-.067-.539.096-.606.364-.361,1.442-1.164,2.149-2,2.482-.865.345-1.805.302-2.394.154-.268-.067-.539.096-.606.364-.067.268.096.539.364.606.744.186,1.905.243,3.006-.196,1.131-.45,2.16-1.41,2.6-3.168Z" fill="#402a32"/><path d="M14.385,22.402c-.774.903-1.909,2.099-3.884,2.099s-3.608-1.194-4.207-1.793c-.391-.39-.391-1.024,0-1.414.391-.391,1.024-.391,1.414,0,.401.401,1.561,1.207,2.793,1.207,1.025,0,1.64-.554,2.366-1.401.062-.072.127-.149.194-.229.294-.349.638-.758,1.001-1.076.48-.42,1.111-.794,1.94-.794,1.282,0,2.138.63,2.764,1.091.047.034.093.068.137.1.643.468,1.176.809,2.099.809,1.665,0,2.52-.832,2.668-1.055.306-.46.927-.584,1.387-.277.459.306.584.927.277,1.387-.518.778-1.997,1.945-4.332,1.945-1.577,0-2.544-.659-3.276-1.191l-.033-.024c-.716-.521-1.079-.785-1.691-.785-.172,0-.352.063-.623.299-.237.207-.453.464-.736.798-.08.094-.165.196-.257.303Z" fill="#402a32"/><path d="M21.001,15.001c1.104,0,2-.896,2-2,0-.512-.193-.979-.509-1.333-.879-.215-1.839-.305-2.736-.233-.46.366-.755.932-.755,1.566,0,1.104.895,2,2,2ZM11.001,16.001c1.104,0,2-.895,2-2,0-.415-.127-.801-.344-1.121l-3.642,1.366c.121.989.963,1.756,1.985,1.756Z" fill="#402a32" fill-rule="evenodd"/></svg>