<?xml version="1.0" encoding="UTF-8"?><svg id="a" xmlns="http://www.w3.org/2000/svg" viewBox="0 0 32 32"><path d="M15.999,29.998c9.334,0,13.999-6.267,13.999-13.999S25.333,2,15.999,2,2,8.268,2,15.999s4.664,13.999,13.999,13.999Z" fill="#ffb02e"/><path d="M31.23,26.74l-2.97-5.33c-.33-.6-.87-1.02-1.47-1.22-.62-.21-1.3-.19-1.93.09-.13.06-.25.12-.36.2v-1.23c0-.69-.56-1.25-1.25-1.25s-1.25.56-1.25,1.25v.75h-2.5v-.75c0-.69-.56-1.25-1.25-1.25s-1.25.56-1.25,1.25v.75h-2.5v-.75c0-.69-.56-1.25-1.25-1.25s-1.25.56-1.25,1.25v.75h-2.5v-.75c0-.69-.56-1.25-1.25-1.25s-1.25.56-1.25,1.25v2.75h2.5v.75c0,.69.56,1.25,1.25,1.25s1.25-.56,1.25-1.25v-.75h2.5v.75c0,.69.56,1.25,1.25,1.25s1.25-.56,1.25-1.25v-.75h2.5v.75c0,.69.56,1.25,1.25,1.25s1.25-.56,1.25-1.25v-.75h1.38c-.14.5-.14,1.03.04,1.55l1.95,5.79c.45,1.34,1.96,2.01,3.26,1.43l1.47-.65c1.3-.57,1.82-2.14,1.13-3.38ZM26.45,23.88c-.64.29-1.39,0-1.68-.65-.28-.64.01-1.4.65-1.68.65-.29,1.4,0,1.68.64.29.65,0,1.41-.65,1.69Z" fill="#9b9b9b"/><path d="M10.406,16.224c2.323,0,4.206-1.883,4.206-4.206s-1.883-4.206-4.206-4.206-4.206,1.883-4.206,4.206,1.883,4.206,4.206,4.206Z" fill="#fff"/><path d="M21.556,16.301c2.344,0,4.244-1.9,4.244-4.244s-1.9-4.244-4.244-4.244-4.244,1.9-4.244,4.244,1.9,4.244,4.244,4.244Z" fill="#fff"/><circle cx="10.978" cy="12.468" r="1.495" fill="#402a32"/><circle cx="20.984" cy="12.469" r="1.495" fill="#402a32"/></svg>