<?xml version="1.0" encoding="UTF-8"?><svg id="a" xmlns="http://www.w3.org/2000/svg" viewBox="0 0 32 32"><path d="M2,6c0-2.209,1.791-4,4-4h20c2.209,0,4,1.791,4,4v20c0,1.481-.804,2.773-2,3.465l-1.446-.465c-.996-.32-2.078-.238-3.014.23l-1.54.77h-3l-3-1.5-3,1.5h-3l-1.54-.77c-.936-.468-2.018-.551-3.014-.23l-1.446.465c-1.196-.692-2-1.984-2-3.465V6Z" fill="#e1d8ec"/><path d="M10,11v10H2v1h8v8h1v-8h10v8h1v-8h8v-1h-8v-10h8v-1h-8V2h-1v8h-10V2h-1v8H2v1h8ZM11,11h10v10h-10v-10Z" fill="#b4acbc"/><path d="M6,30h4V10.214c0-.672-.547-1.214-1.226-1.214h-3.547c-.679,0-1.226.542-1.226,1.214v19.251c.588.34,1.271.535,2,.535Z" fill="#00d26a"/><path d="M17.774,17h-3.547c-.679,0-1.226.542-1.226,1.214v11.786h6v-11.786c0-.672-.547-1.214-1.226-1.214Z" fill="#f70a8d"/><path d="M22,30h4c.729,0,1.412-.195,2-.535V7.209c0-.669-.547-1.209-1.226-1.209h-3.547c-.679,0-1.226.54-1.226,1.209v22.791Z" fill="#00a6ed"/></svg>