<?xml version="1.0" encoding="UTF-8"?><svg id="a" xmlns="http://www.w3.org/2000/svg" viewBox="0 0 32 32"><path d="M4.5,1c-1.381,0-2.5,1.119-2.5,2.5v23c0,1.381,1.119,2.5,2.5,2.5h2.5v.5c0,.828.672,1.5,1.5,1.5h17c.828,0,1.5-.672,1.5-1.5V6.5c0-.828-.672-1.5-1.5-1.5h-4.586l-3.268-3.268c-.469-.469-1.105-.732-1.768-.732H4.5Z" fill="#b4acbc"/><path d="M3,3.5c0-.828.672-1.5,1.5-1.5h11.379c.398,0,.779.158,1.061.439l5.621,5.621c.281.281.439.663.439,1.061v17.379c0,.828-.672,1.5-1.5,1.5H4.5c-.828,0-1.5-.672-1.5-1.5V3.5Z" fill="#f3eef8"/><path d="M6.5,11c-.276,0-.5.224-.5.5s.224.5.5.5h13c.276,0,.5-.224.5-.5s-.224-.5-.5-.5H6.5ZM6.5,14c-.276,0-.5.224-.5.5s.224.5.5.5h13c.276,0,.5-.224.5-.5s-.224-.5-.5-.5H6.5ZM6,17.5c0-.276.224-.5.5-.5h13c.276,0,.5.224.5.5s-.224.5-.5.5H6.5c-.276,0-.5-.224-.5-.5ZM6.5,20c-.276,0-.5.224-.5.5s.224.5.5.5h8c.276,0,.5-.224.5-.5s-.224-.5-.5-.5H6.5Z" fill="#998ea4"/><path d="M16,2.005c.353.029.687.182.939.434l5.621,5.621c.253.253.406.586.434.939h-5.495c-.828,0-1.5-.672-1.5-1.5V2.005Z" fill="#cdc4d6"/><path d="M22.361,13.118c.09-.076.204-.118.322-.118h2.817c.276,0,.5.224.5.5v2c0,.276-.224.5-.5.5h-2.817c-.118,0-.232-.042-.322-.118l-1.187-1c-.237-.2-.237-.565,0-.765l1.187-1Z" fill="#f70a8d"/><path d="M25.361,20.118c.09-.076.204-.118.322-.118h2.817c.276,0,.5.224.5.5v2c0,.276-.224.5-.5.5h-2.817c-.118,0-.232-.042-.322-.118l-1.187-1c-.237-.2-.237-.565,0-.765l1.187-1Z" fill="#f9c23c"/></svg>