<?xml version="1.0" encoding="UTF-8"?><svg id="a" xmlns="http://www.w3.org/2000/svg" viewBox="0 0 32 32"><path d="M17.045,27.286h12.955v-14.286c0-1.105-.896-2-2-2h-10.955v16.286Z" fill="#00a6ed"/><path d="M15.682,27.964h14.318v1.357h-14.318v-1.357Z" fill="#d3d3d3"/><path d="M16.023,11c-.565,0-1.023.456-1.023,1.018v16.625h.682c0-.375.305-.679.682-.679h.682V11h-1.023Z" fill="#0074ba"/><path d="M16.023,27.286c-.565,0-1.023.456-1.023,1.018v.679c0,.562.458,1.018,1.023,1.018h12.955c.445,0,.824-.283.964-.679h-13.578c-.377,0-.682-.304-.682-.679s.305-.679.682-.679h13.636v-.678h-13.977Z" fill="#0074ba"/><path d="M10.045,23.286h12.955v-14.286c0-1.105-.896-2-2-2h-10.955v16.286Z" fill="#ca0b4a"/><path d="M8.682,23.964h14.318v1.357h-14.318v-1.357Z" fill="#d3d3d3"/><path d="M9.023,7c-.565,0-1.023.456-1.023,1.018v16.625h.682c0-.375.305-.679.682-.679h.682V7h-1.023Z" fill="#990838"/><path d="M9.023,23.286c-.565,0-1.023.456-1.023,1.018v.679c0,.562.458,1.018,1.023,1.018h12.955c.445,0,.824-.283.964-.679h-13.578c-.377,0-.682-.304-.682-.679s.305-.679.682-.679h13.636v-.678h-13.977Z" fill="#990838"/><path d="M4.045,20.286h12.955V6c0-1.105-.896-2-2-2H4.045v16.286Z" fill="#86d72f"/><path d="M2.682,20.964h14.318v1.357H2.682v-1.357Z" fill="#d3d3d3"/><path d="M3.023,4c-.565,0-1.023.456-1.023,1.018v16.625h.682c0-.375.305-.679.682-.679h.682V4h-1.023Z" fill="#44911b"/><path d="M3.023,20.286c-.565,0-1.023.456-1.023,1.018v.679c0,.562.458,1.018,1.023,1.018h12.955c.445,0,.824-.283.964-.679H3.364c-.377,0-.682-.304-.682-.679s.305-.679.682-.679h13.636v-.678H3.023Z" fill="#008463"/></svg>