<?xml version="1.0" encoding="UTF-8"?><svg id="a" xmlns="http://www.w3.org/2000/svg" viewBox="0 0 32 32"><path d="M26.27,2H5.75c-2.07,0-3.75,1.68-3.75,3.75v20.48c0,2.07,1.68,3.75,3.75,3.75h20.52c2.07,0,3.75-1.68,3.75-3.75V5.75c0-2.07-1.68-3.75-3.75-3.75Z" fill="#bebebe"/><path d="M18.17,11.09c0,2.49,2.03,4.52,4.52,4.52s4.52-2.03,4.52-4.52-2.03-4.52-4.52-4.52-4.52,2.03-4.52,4.52ZM6.22,14.28c.88.88,2.04,1.32,3.2,1.32s2.31-.44,3.19-1.32c1.76-1.76,1.76-4.63,0-6.39-1.76-1.76-4.63-1.76-6.39,0-1.76,1.76-1.76,4.63,0,6.39ZM9.42,27.5c-2.49,0-4.52-2.03-4.52-4.52s2.03-4.52,4.52-4.52,4.52,2.03,4.52,4.52-2.03,4.52-4.52,4.52ZM19.49,26.18c.88.88,2.04,1.32,3.2,1.32,1.15,0,2.31-.44,3.19-1.32,1.76-1.76,1.76-4.63,0-6.39s-4.63-1.76-6.39,0-1.76,4.63,0,6.39Z" fill="#d3d3d3" fill-rule="evenodd"/><path d="M12.83,11.09c0,1.883-1.527,3.41-3.41,3.41s-3.41-1.527-3.41-3.41,1.527-3.41,3.41-3.41,3.41,1.527,3.41,3.41ZM26.1,11.09c0,1.883-1.527,3.41-3.41,3.41s-3.41-1.527-3.41-3.41,1.527-3.41,3.41-3.41,3.41,1.527,3.41,3.41ZM9.42,26.39c1.883,0,3.41-1.527,3.41-3.41s-1.527-3.41-3.41-3.41-3.41,1.527-3.41,3.41,1.527,3.41,3.41,3.41ZM26.1,22.98c0,1.883-1.527,3.41-3.41,3.41s-3.41-1.527-3.41-3.41,1.527-3.41,3.41-3.41,3.41,1.527,3.41,3.41Z" fill="#0092e7" fill-rule="evenodd"/><path d="M9.42,4.23c-.308,0-.56.252-.56.56v.93c0,.308.252.56.56.56s.56-.252.56-.56v-.93c0-.308-.252-.56-.56-.56Z" fill="#636363"/><path d="M6.757,5.356c-.146-.255-.489-.366-.766-.2-.267.16-.355.49-.199.767l.465.809.005.007c.101.152.275.261.478.261.086,0,.181-.018.276-.074.265-.153.342-.495.204-.753l-.464-.816Z" fill="#636363"/><path d="M12.072,5.368c.151-.277.497-.361.762-.206.277.152.36.499.203.764l-.458.797c-.097.173-.293.277-.477.277-.066,0-.186-.011-.288-.082-.253-.159-.348-.491-.199-.752l.459-.798Z" fill="#636363"/><path d="M22.69,4.24c-.308,0-.56.252-.56.56v.92c0,.308.252.56.56.56.316,0,.542-.257.559-.534v-.008s0-.938,0-.938c0-.308-.252-.56-.56-.56Z" fill="#636363"/><path d="M19.264,5.164c.276-.164.618-.053.763.201l.464.807c.138.258.061.6-.204.753-.095.057-.191.074-.276.074-.203,0-.377-.11-.478-.261l-.005-.007-.468-.814c-.138-.258-.061-.6.204-.753Z" fill="#636363"/><path d="M25.352,5.368c.15-.277.497-.361.762-.206.277.152.36.499.203.764l-.463.805-.005.007c-.104.155-.289.261-.478.261-.065,0-.182-.01-.283-.078-.269-.154-.349-.497-.193-.759l.457-.795Z" fill="#636363"/><path d="M9.42,16.12c-.308,0-.56.252-.56.56v.93c0,.308.252.56.56.56s.56-.252.56-.56v-.93c0-.308-.252-.56-.56-.56Z" fill="#636363"/><path d="M6.003,17.049c.259-.138.602-.061.755.206l.464.807c.138.258.061.6-.204.753-.095.056-.191.074-.276.074-.203,0-.377-.11-.478-.261l-.005-.007-.468-.814c-.138-.259-.061-.602.207-.755l.006-.003Z" fill="#636363"/><path d="M12.082,17.258c.151-.277.497-.361.762-.206.277.152.36.499.203.764l-.461.802c-.111.185-.309.271-.484.271-.065,0-.182-.01-.283-.078-.269-.154-.349-.497-.193-.759l.457-.795Z" fill="#636363"/><path d="M22.69,16.12c-.308,0-.56.252-.56.56v.93c0,.308.252.56.56.56.321,0,.543-.262.56-.545v-.007s0-.937,0-.937c0-.308-.252-.56-.56-.56Z" fill="#636363"/><path d="M19.272,17.049c.259-.138.602-.061.755.206l.464.807c.138.258.061.6-.204.753-.095.056-.191.074-.276.074-.203,0-.377-.11-.478-.261l-.005-.007-.468-.814c-.138-.259-.061-.602.206-.755l.006-.003Z" fill="#636363"/><path d="M25.352,17.258c.15-.277.497-.361.762-.206.277.152.36.499.203.764l-.463.806-.005.007c-.104.155-.289.261-.478.261-.065,0-.182-.01-.283-.078-.269-.154-.349-.497-.193-.759l.457-.795Z" fill="#636363"/><path d="M11.554,9.664c.195-.195.195-.512,0-.707-.195-.195-.512-.195-.707,0l-1.78,1.78c-.195.195-.195.512,0,.707.195.195.512.195.707,0l1.78-1.78ZM20.17,10.59c-.276,0-.5.224-.5.5s.224.5.5.5h2.52c.276,0,.5-.224.5-.5s-.224-.5-.5-.5h-2.52ZM9.42,22.48h2.51c.276,0,.5.224.5.5s-.224.5-.5.5h-2.51c-.276,0-.5-.224-.5-.5s.224-.5.5-.5ZM21.264,20.847c-.195-.195-.512-.195-.707,0-.195.195-.195.512,0,.707l1.78,1.78c.195.195.512.195.707,0s.195-.512,0-.707l-1.78-1.78Z" fill="#f4f4f4" fill-rule="evenodd"/></svg>