<?xml version="1.0" encoding="UTF-8"?><svg id="a" xmlns="http://www.w3.org/2000/svg" viewBox="0 0 32 32"><path d="M15.999,29.998c9.334,0,13.999-6.267,13.999-13.999S25.333,2,15.999,2,2,8.268,2,15.999s4.664,13.999,13.999,13.999Z" fill="#ffb02e"/><ellipse cx="16" cy="22.995" rx="3.975" ry="4.012" fill="#bb1d80"/><path d="M13.71,15.71c-.19.19-.44.29-.7.29-.25,0-.51-.1-.7-.29l-1.8-1.8-1.8,1.8c-.39.38-1.02.38-1.4,0-.19-.19-.29-.45-.29-.71,0-.25.1-.5.29-.7l1.8-1.8-1.8-1.8c-.39-.39-.39-1.02,0-1.4.19-.2.44-.29.7-.29.25,0,.51.09.7.29l1.8,1.8,1.8-1.8c.39-.39,1.02-.39,1.4,0,.19.19.29.44.29.7,0,.25-.1.5-.29.7l-1.8,1.8,1.8,1.8c.39.39.39,1.02,0,1.41Z" fill="#402a32"/><path d="M24.69,15.71c-.19.19-.44.29-.7.29-.25,0-.51-.1-.7-.29l-1.8-1.8-1.8,1.8c-.39.38-1.02.38-1.4,0-.19-.19-.29-.45-.29-.71,0-.25.1-.5.29-.7l1.8-1.8-1.8-1.8c-.39-.39-.39-1.02,0-1.4.19-.2.44-.29.7-.29.25,0,.51.09.7.29l1.8,1.8,1.8-1.8c.39-.39,1.02-.39,1.4,0,.19.19.29.44.29.7,0,.25-.1.5-.29.7l-1.8,1.8,1.8,1.8c.39.39.39,1.02,0,1.41Z" fill="#402a32"/></svg>