<?xml version="1.0" encoding="UTF-8"?><svg id="a" xmlns="http://www.w3.org/2000/svg" viewBox="0 0 32 32"><path d="M15.999,30c9.334,0,13.999-6.268,13.999-13.999S25.333,2.002,15.999,2.002,2,8.27,2,16.001s4.664,13.999,13.999,13.999Z" fill="#fecd7b" opacity=".55"/><path d="M16,2.75c-.529,0-1.04.021-1.535.061-.413.034-.775-.273-.809-.686-.034-.413.273-.775.686-.809.537-.044,1.09-.066,1.658-.066s1.121.022,1.658.066c.413.034.72.396.686.809-.034.413-.396.72-.809.686-.495-.041-1.007-.061-1.535-.061Z" fill="#d3883e"/><path d="M21.045,2.694c.144-.388.575-.587.964-.443,1.098.407,2.097.929,2.995,1.554.34.237.424.704.187,1.044-.237.34-.704.424-1.044.187-.79-.55-1.675-1.015-2.658-1.379-.388-.144-.587-.575-.443-.964Z" fill="#d3883e"/><path d="M10.955,2.694c.144.388-.055.82-.443.964-.983.364-1.868.828-2.658,1.379-.34.237-.807.153-1.044-.187-.237-.34-.153-.807.187-1.044.897-.625,1.896-1.148,2.995-1.554.389-.144.82.055.964.443Z" fill="#d3883e"/><path d="M4.867,6.809c.341.235.428.702.193,1.043-.56.814-1.019,1.709-1.377,2.668-.145.388-.577.585-.965.441-.388-.145-.585-.577-.441-.965.398-1.067.913-2.072,1.547-2.993.235-.341.702-.428,1.043-.193Z" fill="#d3883e"/><path d="M27.133,6.809c.341-.235.808-.148,1.043.193.633.921,1.148,1.926,1.546,2.993.145.388-.052.82-.441.965-.388.145-.82-.053-.965-.441-.358-.959-.817-1.853-1.377-2.668-.235-.341-.148-.808.193-1.043Z" fill="#d3883e"/><path d="M2.133,13.657c.413.036.718.399.682.812-.044.502-.065,1.012-.065,1.531s.022,1.029.065,1.531c.036.413-.27.776-.682.812-.413.036-.776-.27-.812-.682-.047-.546-.071-1.1-.071-1.661s.024-1.115.071-1.661c.036-.413.399-.718.812-.682Z" fill="#d3883e"/><path d="M29.867,13.657c.413-.036.776.27.812.682.047.546.071,1.1.071,1.661s-.024,1.115-.071,1.661c-.036.413-.399.718-.812.682-.413-.036-.718-.399-.682-.812.044-.502.065-1.012.065-1.531s-.022-1.029-.065-1.531c-.036-.413.27-.776.682-.812Z" fill="#d3883e"/><path d="M29.282,21.04c.388.145.585.577.441.965-.398,1.068-.913,2.072-1.546,2.993-.235.341-.701.428-1.043.193-.341-.235-.428-.702-.193-1.043.56-.814,1.02-1.708,1.377-2.668.145-.388.577-.585.965-.441Z" fill="#d3883e"/><path d="M2.718,21.04c.388-.145.82.052.965.441.358.959.817,1.853,1.377,2.668.235.341.148.808-.193,1.043-.341.235-.808.148-1.043-.193-.633-.921-1.148-1.926-1.547-2.993-.145-.388.052-.82.441-.965Z" fill="#d3883e"/><path d="M6.81,27.151c.237-.34.704-.424,1.044-.187.79.55,1.675,1.015,2.658,1.379.389.144.587.575.443.964-.144.388-.575.587-.964.443-1.098-.406-2.097-.929-2.995-1.554-.34-.237-.423-.704-.187-1.044Z" fill="#d3883e"/><path d="M25.19,27.151c.237.34.153.807-.187,1.044-.897.625-1.896,1.148-2.995,1.554-.389.144-.82-.055-.964-.443-.144-.388.055-.82.443-.964.983-.364,1.868-.828,2.658-1.379.34-.237.807-.153,1.044.187Z" fill="#d3883e"/><path d="M13.656,29.875c.034-.413.396-.72.809-.686.495.041,1.007.061,1.535.061s1.04-.021,1.535-.061c.413-.034.775.273.809.686.034.413-.273.775-.686.809-.537.044-1.09.066-1.658.066s-1.121-.022-1.658-.066c-.413-.034-.72-.396-.686-.809Z" fill="#d3883e"/><path d="M11.493,18.752c-.414,0-.75.336-.75.75s.336.75.75.75h9.012c.414,0,.75-.336.75-.75s-.336-.75-.75-.75h-9.012Z" fill="#402a32"/><path d="M10.419,16.224c2.323,0,4.206-1.883,4.206-4.206s-1.883-4.206-4.206-4.206-4.206,1.883-4.206,4.206,1.883,4.206,4.206,4.206Z" fill="#fff"/><path d="M21.568,16.301c2.344,0,4.244-1.9,4.244-4.244s-1.9-4.244-4.244-4.244-4.244,1.9-4.244,4.244,1.9,4.244,4.244,4.244Z" fill="#fff"/><circle cx="10.991" cy="11.994" r="2.029" fill="#402a32"/><circle cx="21.009" cy="11.994" r="2.029" fill="#402a32"/></svg>