<?xml version="1.0" encoding="UTF-8"?><svg id="a" xmlns="http://www.w3.org/2000/svg" viewBox="0 0 32 32"><path d="M9.528,7C4.833,7,1.028,10.806,1.028,15.5v7c0,4.694,3.806,8.5,8.5,8.5,2.609,0,4.942-1.175,6.5-3.023,1.558,1.847,3.892,3.023,6.5,3.023,4.694,0,8.5-3.806,8.5-8.5v-7c0-4.694-3.806-8.5-8.5-8.5-2.608,0-4.942,1.175-6.5,3.023-1.558-1.847-3.891-3.023-6.5-3.023Z" fill="#9b9b9b"/><path d="M9.528,8c-4.142,0-7.5,3.358-7.5,7.5v7c0,4.142,3.358,7.5,7.5,7.5,2.778,0,5.204-1.511,6.5-3.756,1.296,2.245,3.722,3.756,6.5,3.756,4.142,0,7.5-3.358,7.5-7.5v-7c0-4.142-3.358-7.5-7.5-7.5-2.778,0-5.204,1.511-6.5,3.756-1.296-2.245-3.722-3.756-6.5-3.756Z" fill="#fff"/><path d="M15.028,15.5c0-1.364.364-2.642,1-3.744-.852-1.476-2.193-2.635-3.802-3.256h-.167c1.094.656,1.938,3.25,1.938,4.5v12.125c0,1.375-.156,3.093-1.936,4.437,1.682-.603,3.086-1.791,3.968-3.318-.636-1.102-1-2.38-1-3.744v-7Z" fill="#d3d3d3"/><path d="M30.028,15.5c0-3.191-1.993-5.917-4.802-7h-.167c1.656,1.094,2.906,3.062,2.906,4.531v11.969c0,1.375-1.125,3.218-2.905,4.562,2.896-1.039,4.968-3.808,4.968-7.062v-7Z" fill="#d3d3d3"/><path d="M6.59,13c-1.933,0-3.5,1.567-3.5,3.5v5c0,1.933,1.567,3.5,3.5,3.5s3.5-1.567,3.5-3.5v-5c0-1.933-1.567-3.5-3.5-3.5Z" fill="#321b41"/><path d="M19.528,13c-1.933,0-3.5,1.567-3.5,3.5v5c0,1.933,1.567,3.5,3.5,3.5s3.5-1.567,3.5-3.5v-5c0-1.933-1.567-3.5-3.5-3.5Z" fill="#321b41"/><path d="M8.766,16.861c.371-.309.354-.942-.038-1.414-.393-.472-1.012-.603-1.384-.294-.371.309-.354.942.038,1.414.393.472,1.012.603,1.384.294Z" fill="#f4f4f4"/><path d="M21.763,16.861c.371-.309.354-.942-.038-1.414-.393-.472-1.012-.603-1.384-.294-.372.309-.354.942.038,1.414.393.472,1.012.603,1.384.294Z" fill="#f4f4f4"/></svg>