<?xml version="1.0" encoding="UTF-8"?><svg id="a" xmlns="http://www.w3.org/2000/svg" viewBox="0 0 32 32"><path d="M15.999,29.998c9.334,0,13.999-6.267,13.999-13.999S25.333,2,15.999,2,2,8.268,2,15.999s4.664,13.999,13.999,13.999Z" fill="#ffb02e"/><path d="M9.447,12.106c-.494-.247-1.095-.047-1.342.447-.247.494-.047,1.095.447,1.342l2.211,1.106-2.211,1.105c-.494.247-.694.848-.447,1.342.247.494.848.694,1.342.447l4-2c.339-.169.553-.516.553-.894s-.214-.725-.553-.894l-4-2Z" fill="#402a32"/><path d="M22.553,12.106c.494-.247,1.095-.047,1.342.447.247.494.047,1.095-.447,1.342l-2.211,1.106,2.211,1.105c.494.247.694.848.447,1.342-.247.494-.848.694-1.342.447l-4-2c-.339-.169-.553-.516-.553-.894s.214-.725.553-.894l4-2Z" fill="#402a32"/><path d="M8,23c0-1.657,1.343-3,3-3h10c1.657,0,3,1.343,3,3v2c0,1.657-1.343,3-3,3h-10c-1.657,0-3-1.343-3-3v-2Z" fill="#bb1d80"/><path d="M21.01,23.16c.15,2.65,2.78,4.87,6.01,4.87,1.1,0,1.98.97,1.98,1.97H3c0-1.11.87-1.97,1.98-1.97,3.33,0,6.03-2.35,6.03-5.11l-.01-2.92h10l.01,3.16Z" fill="#00d26a"/><path d="M7,25.5c0,.828-.672,1.5-1.5,1.5s-1.5-.672-1.5-1.5.672-1.5,1.5-1.5,1.5.672,1.5,1.5Z" fill="#00d26a"/><path d="M28.75,26.5c.414,0,.75-.336.75-.75s-.336-.75-.75-.75-.75.336-.75.75.336.75.75.75Z" fill="#00d26a"/><path d="M28,22.5c0,.828-.672,1.5-1.5,1.5s-1.5-.672-1.5-1.5.672-1.5,1.5-1.5,1.5.672,1.5,1.5Z" fill="#00d26a"/></svg>