<?xml version="1.0" encoding="UTF-8"?><svg id="a" xmlns="http://www.w3.org/2000/svg" viewBox="0 0 32 32"><path d="M16,29.998c9.335,0,13.999-6.268,13.999-13.999S25.334,2,16,2,2.001,8.268,2.001,15.999s4.664,13.999,13.999,13.999Z" fill="#ffb02e"/><path d="M15.001,11.499c0,2.486-2.015,4.5-4.501,4.5s-4.501-2.015-4.501-4.5,2.015-4.501,4.501-4.501,4.501,2.015,4.501,4.501Z" fill="#fff"/><path d="M16.999,11.499c0,2.486,2.015,4.5,4.501,4.5s4.5-2.015,4.5-4.5-2.015-4.501-4.5-4.501-4.501,2.015-4.501,4.501Z" fill="#fff"/><path d="M11.256,20.28c-.397.118-.624.535-.506.932.118.397.535.624.932.506l9.06-2.685c.397-.118.624-.535.506-.932-.118-.397-.535-.624-.932-.506l-9.06,2.685Z" fill="#402a32"/><circle cx="11.007" cy="11.994" r="1.517" fill="#402a32"/><circle cx="20.993" cy="11.994" r="1.517" fill="#402a32"/></svg>