<?xml version="1.0" encoding="UTF-8"?><svg id="a" xmlns="http://www.w3.org/2000/svg" viewBox="0 0 32 32"><path d="M15.999,29.998c9.334,0,13.999-6.267,13.999-13.999S25.334,2,15.999,2,2,8.268,2,15.999s4.664,13.999,13.999,13.999Z" fill="#ffb02e"/><path d="M22,20c-2.761,0-5-2.239-5-5s2.239-5,5-5,5,2.239,5,5-2.239,5-5,5Z" fill="#fff"/><path d="M21.5,19c-1.381,0-2.5-1.119-2.5-2.5s1.119-2.5,2.5-2.5,2.5,1.119,2.5,2.5-1.119,2.5-2.5,2.5Z" fill="#402a32"/><path d="M10.775,7c.414-.014.738-.361.724-.775-.014-.414-.361-.738-.775-.724-3.051.103-4.725,2.663-4.725,4.75,0,.414.336.75.75.75s.75-.336.75-.75c0-1.413,1.161-3.179,3.275-3.25Z" fill="#402a32"/><path d="M21.725,7c-.414-.014-.738-.361-.724-.775.014-.414.361-.738.775-.724,3.051.103,4.725,2.663,4.725,4.75,0,.414-.336.75-.75.75s-.75-.336-.75-.75c0-1.413-1.161-3.179-3.275-3.25Z" fill="#402a32"/><path d="M16,27c-1.652,0-3-1.348-3-3s1.348-3,3-3,3,1.348,3,3-1.348,3-3,3Z" fill="#bb1d80"/><path d="M22.994,11.012c-.825.073-1.435.801-1.362,1.627l.394,4.446-.029.013-3.198-1.847c-.717-.414-1.635-.168-2.049.549-.414.717-.168,1.635.549,2.049l.079.046c-.455.053-.881.313-1.128.74-.414.718-.168,1.635.549,2.049l2.472,1.427c.64.444.995.985,1.356,1.534.438.666.883,1.344,1.854,1.877,2.003.863,4.026.508,5.253-.719.91-.91,1.204-2.215,1.473-3.41.132-.585.258-1.144.447-1.617l1.152-2.715c.369-.656.124-1.505-.547-1.89-.668-.383-1.502-.162-1.865.494l-1.145,1.825v-4.487c0-.828-.672-1.5-1.5-1.5-.482,0-.91.227-1.185.58-.198-.671-.847-1.133-1.571-1.068Z" fill="#ff822d"/><path d="M6.92,12.8c.361-.637,1.175-.878,1.82-.539.514.27.764.828.661,1.366l.368-.65c.378-.667,1.23-.919,1.904-.564.674.355.915,1.183.537,1.849l-.099.175c.301-.054.619-.013.906.138.674.355.914,1.183.537,1.849l-.323.57c.31-.05.637.002.924.17.66.385.855,1.232.434,1.877l-3.594,5.5c-.526.943-1.374,1.718-2.463,2.144-2.475.968-5.259-.236-6.217-2.688-.293-.75-.382-1.529-.293-2.278-.003-.046-.004-.092-.002-.139l.082-2.531-.304-3.035c-.075-.749.49-1.428,1.26-1.512.765-.083,1.441.454,1.51,1.2l.099,1.075,2.254-3.978Z" fill="#ff822d"/></svg>