<?xml version="1.0" encoding="UTF-8"?><svg id="a" xmlns="http://www.w3.org/2000/svg" viewBox="0 0 32 32"><path d="M13.292,12.956c.002-.13.003-.263.027-.396l.08-1.474c.26-.02.704-.12.904-.26v1.014c0,.741-.42,1.401-1.101,1.701.085-.183.088-.381.09-.584Z" fill="#f1a11e"/><path d="M4.255,10.831c.22.16.624.26.924.26l.08,1.469c.011.097.015.192.02.286.013.256.025.501.157.735-.721-.3-1.181-.981-1.181-1.741v-1.009Z" fill="#f1a11e"/><path d="M29.46,21.197v8.31H2.54v-8.31c0-1.77.97-3.39,2.14-4.58,1.19-1.2,2.82-1.94,4.63-1.94,1.8,0,3.44.75,4.62,1.94s2.07,2.81,2.07,4.58c0-1.77.97-3.39,2.14-4.58,1.19-1.2,2.83-1.94,4.63-1.94s3.44.75,4.63,1.94c1.17,1.19,2.06,2.81,2.06,4.58Z" fill="#ff6723"/><path d="M6.517,9.858c0,.796-.645,1.441-1.441,1.441s-1.441-.645-1.441-1.441.645-1.441,1.441-1.441,1.441.645,1.441,1.441Z" fill="#fdbb11"/><path d="M14.923,9.858c0,.796-.645,1.441-1.441,1.441s-1.441-.645-1.441-1.441.645-1.441,1.441-1.441,1.441.645,1.441,1.441Z" fill="#fdbb11"/><path d="M10.259,3.533h-1.921c-2.162,0-3.783,1.801-3.543,4.043l.32,4.964c.22,1.701,1.661,2.962,3.362,2.962h1.641c1.701,0,3.142-1.261,3.362-2.942l.3-4.964c.3-2.162-1.361-4.063-3.523-4.063Z" fill="#ffc83d"/><path d="M6.136,8.046c.04.028.088.043.137.043.051-.001.101-.019.142-.05.374-.259.835-.364,1.285-.292.061.006.122-.011.171-.048.049-.037.082-.091.093-.152.004-.03.002-.062-.005-.091-.008-.03-.021-.058-.04-.082-.018-.025-.042-.045-.068-.061-.027-.016-.056-.026-.086-.03-.576-.089-1.163.05-1.637.388-.038.03-.066.072-.08.118-.014.047-.012.097.004.143s.046.086.086.114Z" fill="#d37034"/><path d="M12.15,8.039c.041.033.093.051.146.05.035,0,.069-.008.101-.023.031-.015.059-.036.081-.063.038-.049.056-.111.049-.173-.007-.062-.038-.118-.087-.157-.478-.331-1.063-.47-1.639-.388-.03.004-.06.014-.086.03s-.05.036-.068.061-.032.052-.04.082c-.008.03-.01.061-.005.091.004.031.014.06.029.087s.036.05.061.069c.025.019.053.032.083.04.03.008.061.009.091.005.45-.072.91.032,1.285.29Z" fill="#d37034"/><path d="M6.016,9.598c.12-.52.6-.921,1.181-.921s1.081.42,1.201.981c.02.12-.08.24-.2.24h-1.961c-.16,0-.28-.14-.22-.3Z" fill="#fff"/><path d="M12.561,9.598c-.12-.52-.6-.921-1.181-.921-.6,0-1.081.42-1.201.981-.02.12.08.24.2.24h1.961c.16,0,.26-.14.22-.3Z" fill="#fff"/><path d="M6.577,9.698c0-.44.36-.801.801-.801.42,0,.781.36.781.801,0,.06-.02.14-.06.2h-1.501c0-.028-.004-.056-.009-.086-.005-.034-.011-.072-.011-.115Z" fill="#7d4533"/><path d="M11.981,9.698c0-.42-.34-.781-.781-.781-.42,0-.781.36-.781.801,0,.06,0,.14.02.18h1.521c0-.028.004-.056.009-.086.005-.034.011-.072.011-.115Z" fill="#7d4533"/><path d="M7.377,9.258c.24,0,.44.2.44.44,0,.03-.005.065-.01.1-.005.035-.01.07-.01.1h-.801c-.04-.06-.06-.12-.06-.2,0-.24.2-.44.44-.44Z"/><path d="M11.2,9.258c-.24,0-.44.2-.44.44,0,.03.005.065.01.1s.01.07.01.1h.801c.04-.06.06-.12.06-.2,0-.24-.2-.44-.44-.44Z"/><path d="M7.237,9.378c0,.077-.063.14-.14.14s-.14-.063-.14-.14.063-.14.14-.14.14.063.14.14Z" fill="#fff"/><path d="M11.1,9.378c0,.077-.063.14-.14.14s-.14-.063-.14-.14.063-.14.14-.14.14.063.14.14Z" fill="#fff"/><path d="M8.958,9.618l-.46,1.481c-.08.3.14.6.46.6h.681c.32,0,.54-.3.44-.6l-.46-1.481c-.1-.32-.56-.32-.66,0Z" fill="#ed9200"/><path d="M9.279,12.52c-.46,0-.901-.12-1.261-.3-.12-.06-.26.08-.18.2.3.48.841.781,1.441.781s1.141-.32,1.461-.781c.08-.12-.06-.26-.18-.2-.38.2-.801.3-1.281.3Z" fill="#990839"/><path d="M14.643,5.315c-.26-.44-.66-.761-1.101-.921-.5-.16-.921-.48-1.201-.921-.36-.58-1.001-.981-1.741-.981-.28,0-.56.06-.801.16-.34.14-.721.14-1.041,0-.24-.1-.52-.16-.801-.16-.741,0-1.361.38-1.741.961-.28.44-.701.781-1.201.961-.48.16-.881.48-1.141.961-.36.701-.3,1.521.12,2.122.16.22.24.48.24.761v.44c.18-.12.38-.22.6-.24v-.721c0-1.621,1.301-2.922,2.922-2.922h1.121c.24,0,.46.14.54.36.34.761,1.101,1.241,1.941,1.241h1.221c.66.02,1.201.58,1.201,1.241l-.06.801h.06c.2.04.38.12.52.24v-.44c0-.26.08-.54.24-.761.44-.62.52-1.481.1-2.182Z" fill="#f1a11e"/><path d="M26.754,12.956c.002-.13.003-.263.027-.396l.08-1.474c.26-.02.704-.12.904-.26v1.014c0,.741-.42,1.401-1.101,1.701.085-.183.088-.381.09-.584Z" fill="#f1a11e"/><path d="M17.718,10.831c.22.16.624.26.924.26l.08,1.469c.011.097.015.192.02.286.013.256.025.501.157.735-.721-.3-1.181-.981-1.181-1.741v-1.009Z" fill="#f1a11e"/><path d="M19.979,9.858c0,.796-.645,1.441-1.441,1.441s-1.441-.645-1.441-1.441.645-1.441,1.441-1.441,1.441.645,1.441,1.441Z" fill="#fdbb11"/><path d="M28.385,9.858c0,.796-.645,1.441-1.441,1.441s-1.441-.645-1.441-1.441.645-1.441,1.441-1.441,1.441.645,1.441,1.441Z" fill="#fdbb11"/><path d="M23.722,3.533h-1.921c-2.162,0-3.783,1.801-3.543,4.043l.32,4.964c.22,1.701,1.661,2.962,3.362,2.962h1.641c1.701,0,3.142-1.261,3.362-2.942l.3-4.964c.3-2.162-1.361-4.063-3.523-4.063Z" fill="#ffc83d"/><path d="M19.598,8.046c.04.028.088.043.137.043.051-.001.101-.019.142-.05.374-.259.835-.364,1.285-.292.061.006.122-.011.171-.048.049-.037.082-.091.093-.152.004-.03.002-.062-.005-.091-.008-.03-.021-.058-.04-.082-.018-.025-.042-.045-.068-.061-.027-.016-.056-.026-.086-.03-.576-.089-1.163.05-1.637.388-.038.03-.066.072-.08.118-.014.047-.012.097.004.143s.046.086.086.114Z" fill="#d37034"/><path d="M25.612,8.039c.041.033.093.051.146.05.035,0,.069-.008.101-.023.031-.015.059-.036.081-.063.038-.049.056-.111.049-.173-.007-.062-.038-.118-.087-.157-.478-.331-1.063-.47-1.639-.388-.03.004-.06.014-.086.03s-.05.036-.068.061-.032.052-.04.082c-.008.03-.01.061-.005.091.004.031.014.06.029.087s.036.05.061.069c.025.019.053.032.083.04.03.008.061.009.091.005.45-.072.91.032,1.285.29Z" fill="#d37034"/><path d="M19.479,9.598c.12-.52.6-.921,1.181-.921s1.081.42,1.201.981c.02.12-.08.24-.2.24h-1.961c-.16,0-.28-.14-.22-.3Z" fill="#fff"/><path d="M26.024,9.598c-.12-.52-.6-.921-1.181-.921-.6,0-1.081.42-1.201.981-.02.12.08.24.2.24h1.961c.16,0,.26-.14.22-.3Z" fill="#fff"/><path d="M20.039,9.698c0-.44.36-.801.801-.801.42,0,.781.36.781.801,0,.06-.02.14-.06.2h-1.501c0-.028-.004-.056-.009-.086-.005-.034-.011-.072-.011-.115Z" fill="#7d4533"/><path d="M25.443,9.698c0-.42-.34-.781-.781-.781-.42,0-.781.36-.781.801,0,.06,0,.14.02.18h1.521c0-.028.004-.056.009-.086.005-.034.011-.072.011-.115Z" fill="#7d4533"/><path d="M20.84,9.258c.24,0,.44.2.44.44,0,.03-.005.065-.01.1-.005.035-.01.07-.01.1h-.801c-.04-.06-.06-.12-.06-.2,0-.24.2-.44.44-.44Z"/><path d="M24.663,9.258c-.24,0-.44.2-.44.44,0,.03.005.065.01.1s.01.07.01.1h.801c.04-.06.06-.12.06-.2,0-.24-.2-.44-.44-.44Z"/><path d="M20.699,9.378c0,.077-.063.14-.14.14s-.14-.063-.14-.14.063-.14.14-.14.14.063.14.14Z" fill="#fff"/><path d="M24.563,9.378c0,.077-.063.14-.14.14s-.14-.063-.14-.14.063-.14.14-.14.14.063.14.14Z" fill="#fff"/><path d="M22.421,9.618l-.46,1.481c-.08.3.14.6.46.6h.681c.32,0,.54-.3.44-.6l-.46-1.481c-.1-.32-.56-.32-.66,0Z" fill="#ed9200"/><path d="M22.741,12.52c-.46,0-.901-.12-1.261-.3-.12-.06-.26.08-.18.2.3.48.841.781,1.441.781s1.141-.32,1.461-.781c.08-.12-.06-.26-.18-.2-.38.2-.801.3-1.281.3Z" fill="#990839"/><path d="M28.105,5.315c-.26-.44-.66-.761-1.101-.921-.5-.16-.921-.48-1.201-.921-.36-.58-1.001-.981-1.741-.981-.28,0-.56.06-.801.16-.34.14-.721.14-1.041,0-.24-.1-.52-.16-.801-.16-.741,0-1.361.38-1.741.961-.28.44-.701.781-1.201.961-.48.16-.881.48-1.141.961-.36.701-.3,1.521.12,2.122.16.22.24.48.24.761v.44c.18-.12.38-.22.6-.24v-.721c0-1.621,1.301-2.922,2.922-2.922h1.121c.24,0,.46.14.54.36.34.761,1.101,1.241,1.941,1.241h1.221c.66.02,1.201.58,1.201,1.241l-.06.801h.06c.2.04.38.12.52.24v-.44c0-.26.08-.54.24-.761.44-.62.52-1.481.1-2.182Z" fill="#f1a11e"/><path d="M15.06,29.501H3.478c.989-2.22,3.208-3.763,5.791-3.763s4.802,1.544,5.791,3.763Z" fill="#9c9c9c"/><path d="M13.012,18.036l-.136-.074h.334c.245,0,.42-.241.342-.475-.198-.627-.789-1.082-1.481-1.082h-4.21c-.474,0-.859.358-.913.821-.004,0-.009,0-.014.002-.005,0-.01.002-.014.002h-.171c-1.399,0-2.534,1.136-2.534,2.538v1.129c0,.329.158.601.486.601h.225l-.361,1.135h.496l-.069.582v1.65c0,.913.742,1.656,1.656,1.656h.404v-3.888h4.439v3.888h.404c.913,0,1.656-.742,1.656-1.656v-2.232h.42l-.358-1.167h.206c.276,0,.501-.226.501-.502v-.728c.008-.918-.498-1.763-1.31-2.199Z" fill="#f1a11e"/><path d="M4.845,21.497c-.322.229-.532.605-.532,1.03,0,.698.566,1.263,1.263,1.263s1.263-.566,1.263-1.263-.566-1.263-1.263-1.263c-.092,0-.181.01-.267.028l.014.519v.023l.027.79c-.214,0-.389-.167-.396-.381l-.027-.746h-.082Z" fill="#fdbb11"/><path d="M13.23,21.293c-.087-.019-.177-.029-.269-.029-.698,0-1.263.566-1.263,1.263s.566,1.263,1.263,1.263,1.263-.566,1.263-1.263c0-.446-.231-.838-.58-1.063h-.03l-.008.202-.023.576c-.008.214-.183.381-.396.381l.043-1.332Z" fill="#fdbb11"/><path d="M5.31,20.981l.082,2.509c.093,2.275,1.801,3.803,3.877,3.803s3.784-1.528,3.877-3.803l.08-2.443c-.058-.424-.42-.75-.859-.75h-2.01c-.945,0-1.773-.498-2.239-1.242-.159.708-.793,1.242-1.551,1.242h-.482c-.399,0-.728.299-.776.684Z" fill="#ffc83d"/><path d="M9.27,25.016c-.431,0-.831-.105-1.172-.285-.116-.062-.241.07-.167.183.283.441.78.734,1.339.734s1.056-.293,1.339-.734c.07-.109-.05-.242-.167-.183-.342.183-.741.285-1.172.285Z" fill="#990839"/><path d="M9.266,24.261c.264,0,.494-.134.634-.339.124-.185-.008-.438-.229-.438h-.805c-.222,0-.354.253-.229.438.136.205.369.339.63.339Z" fill="#ed9200"/><path d="M6.233,22.574c.132-.521.606-.91,1.17-.91.587,0,1.073.416,1.182.968.023.12-.074.233-.198.233h-1.92c-.155,0-.272-.144-.233-.292Z" fill="#fff"/><path d="M12.312,22.574c-.132-.521-.606-.91-1.17-.91-.587,0-1.073.416-1.182.968-.023.12.074.233.198.233h1.92c.155,0,.272-.144.233-.292Z" fill="#fff"/><path d="M6.812,22.664c0-.424.346-.77.77-.77s.77.346.77.77c0,.074-.008.14-.027.206h-1.485c-.016-.066-.027-.136-.027-.206Z" fill="#7d4533"/><path d="M11.733,22.664c0-.424-.346-.77-.77-.77s-.77.346-.77.77c0,.074.008.14.027.206h1.485c.016-.066.027-.136.027-.206Z" fill="#7d4533"/><path d="M7.582,22.224c.241,0,.439.194.439.439,0,.074-.019.144-.051.206h-.777c-.031-.062-.051-.132-.051-.206,0-.241.194-.439.439-.439Z"/><path d="M10.964,22.224c-.241,0-.439.194-.439.439,0,.074.019.144.051.206h.777c.031-.062.051-.132.051-.206,0-.241-.194-.439-.439-.439Z"/><path d="M7.454,22.36c0,.075-.061.136-.136.136s-.136-.061-.136-.136.061-.136.136-.136.136.061.136.136Z" fill="#fff"/><path d="M10.863,22.36c0,.075-.061.136-.136.136s-.136-.061-.136-.136.061-.136.136-.136.136.061.136.136Z" fill="#fff"/><path d="M6.893,21.288c.203-.072.493-.127.877-.091.107.01.202-.068.212-.175.01-.107-.068-.202-.175-.212-.44-.042-.787.02-1.044.111-.101.036-.154.147-.118.248.036.101.147.154.248.118Z" fill="#d37034"/><path d="M11.783,20.922c-.256-.091-.603-.153-1.044-.111-.107.01-.185.105-.175.212.01.107.105.185.212.175.384-.036.674.019.877.091.101.036.212-.017.248-.118.036-.101-.017-.212-.118-.248Z" fill="#d37034"/><path d="M28.522,29.501h-11.582c.989-2.22,3.208-3.763,5.791-3.763s4.802,1.544,5.791,3.763Z" fill="#9c9c9c"/><path d="M26.474,18.036l-.136-.074h.334c.245,0,.42-.241.342-.475-.198-.627-.789-1.082-1.481-1.082h-4.21c-.474,0-.859.358-.913.821-.004,0-.009,0-.014.002-.005,0-.01.002-.014.002h-.171c-1.399,0-2.534,1.136-2.534,2.538v1.129c0,.329.158.601.486.601h.225l-.361,1.135h.496l-.069.582v1.65c0,.913.742,1.656,1.656,1.656h.404v-3.888h4.439v3.888h.404c.913,0,1.656-.742,1.656-1.656v-2.232h.42l-.358-1.167h.206c.276,0,.501-.226.501-.502v-.728c.008-.918-.498-1.763-1.31-2.199Z" fill="#f1a11e"/><path d="M18.307,21.497c-.322.229-.532.605-.532,1.03,0,.698.566,1.263,1.263,1.263s1.263-.566,1.263-1.263-.566-1.263-1.263-1.263c-.092,0-.181.01-.267.028l.014.519v.023l.027.79c-.214,0-.389-.167-.396-.381l-.027-.746h-.082Z" fill="#fdbb11"/><path d="M26.693,21.293c-.087-.019-.177-.029-.269-.029-.698,0-1.263.566-1.263,1.263s.566,1.263,1.263,1.263,1.263-.566,1.263-1.263c0-.446-.231-.838-.58-1.063h-.03l-.008.202-.023.576c-.008.214-.183.381-.396.381l.043-1.332Z" fill="#fdbb11"/><path d="M18.772,20.981l.082,2.509c.093,2.275,1.801,3.803,3.877,3.803s3.784-1.528,3.877-3.803l.08-2.443c-.058-.424-.42-.75-.859-.75h-2.01c-.945,0-1.773-.498-2.239-1.242-.159.708-.793,1.242-1.551,1.242h-.482c-.399,0-.728.299-.776.684Z" fill="#ffc83d"/><path d="M22.732,25.016c-.431,0-.831-.105-1.172-.285-.116-.062-.241.07-.167.183.283.441.78.734,1.339.734s1.056-.293,1.339-.734c.07-.109-.05-.242-.167-.183-.342.183-.741.285-1.172.285Z" fill="#990839"/><path d="M22.729,24.261c.264,0,.494-.134.634-.339.124-.185-.008-.438-.229-.438h-.805c-.222,0-.354.253-.229.438.136.205.369.339.63.339Z" fill="#ed9200"/><path d="M19.695,22.574c.132-.521.606-.91,1.17-.91.587,0,1.073.416,1.182.968.023.12-.074.233-.198.233h-1.92c-.155,0-.272-.144-.233-.292Z" fill="#fff"/><path d="M25.775,22.574c-.132-.521-.606-.91-1.17-.91-.587,0-1.073.416-1.182.968-.023.12.074.233.198.233h1.92c.155,0,.272-.144.233-.292Z" fill="#fff"/><path d="M20.274,22.664c0-.424.346-.77.77-.77s.77.346.77.77c0,.074-.008.14-.027.206h-1.485c-.016-.066-.027-.136-.027-.206Z" fill="#7d4533"/><path d="M25.195,22.664c0-.424-.346-.77-.77-.77s-.77.346-.77.77c0,.074.008.14.027.206h1.485c.016-.066.027-.136.027-.206Z" fill="#7d4533"/><path d="M21.044,22.224c.241,0,.439.194.439.439,0,.074-.019.144-.051.206h-.777c-.031-.062-.051-.132-.051-.206,0-.241.194-.439.439-.439Z"/><path d="M24.426,22.224c-.241,0-.439.194-.439.439,0,.074.019.144.051.206h.777c.031-.062.051-.132.051-.206,0-.241-.194-.439-.439-.439Z"/><path d="M20.916,22.36c0,.075-.061.136-.136.136s-.136-.061-.136-.136.061-.136.136-.136.136.061.136.136Z" fill="#fff"/><path d="M24.325,22.36c0,.075-.061.136-.136.136s-.136-.061-.136-.136.061-.136.136-.136.136.061.136.136Z" fill="#fff"/><path d="M20.355,21.288c.203-.072.493-.127.877-.091.107.01.202-.068.212-.175.01-.107-.068-.202-.175-.212-.44-.042-.787.02-1.044.111-.101.036-.154.147-.118.248.036.101.147.154.248.118Z" fill="#d37034"/><path d="M25.245,20.922c-.256-.091-.603-.153-1.044-.111-.107.01-.185.105-.175.212.01.107.105.185.212.175.384-.036.674.019.877.091.101.036.212-.017.248-.118.036-.101-.017-.212-.118-.248Z" fill="#d37034"/></svg>