<?xml version="1.0" encoding="UTF-8"?><svg id="a" xmlns="http://www.w3.org/2000/svg" viewBox="0 0 32 32"><path d="M29.998,15.999c0,7.731-4.665,13.999-13.999,13.999S2,23.73,2,15.999c0-.679.036-1.346.108-1.999l13.891-6,13.891,6c.072.653.108,1.32.108,1.999Z" fill="#ffb02e"/><path d="M29.89,14c-.747-6.785-5.376-12-13.891-12S2.855,7.215,2.108,14h27.782Z" fill="#5092ff"/><path d="M10.5,18c2.485,0,4.5-2.015,4.5-4.5s-2.015-4.5-4.5-4.5-4.5,2.015-4.5,4.5,2.015,4.5,4.5,4.5Z" fill="#fff"/><path d="M21.5,18c2.485,0,4.5-2.015,4.5-4.5s-2.015-4.5-4.5-4.5-4.5,2.015-4.5,4.5,2.015,4.5,4.5,4.5Z" fill="#fff"/><path d="M8.952,7.2c.54-.475.875-1.127,1.066-1.83.072-.267.347-.424.613-.352.267.072.424.347.352.613-.225.83-.64,1.679-1.371,2.32-.739.649-1.757,1.049-3.112,1.049-.276,0-.5-.224-.5-.5s.224-.5.5-.5c1.145,0,1.919-.333,2.452-.8Z" fill="#402a32"/><path d="M23.048,7.2c-.54-.475-.875-1.127-1.066-1.83-.072-.267-.347-.424-.613-.352-.267.072-.424.347-.352.613.225.83.64,1.679,1.371,2.32.739.649,1.757,1.049,3.112,1.049.276,0,.5-.224.5-.5s-.224-.5-.5-.5c-1.145,0-1.919-.333-2.452-.8Z" fill="#402a32"/><path d="M14,14c0,1.105-.895,2-2,2s-2-.895-2-2,.895-2,2-2,2,.895,2,2Z" fill="#402a32"/><path d="M22,14c0,1.105-.895,2-2,2s-2-.895-2-2,.895-2,2-2,2,.895,2,2Z" fill="#402a32"/><path d="M22.718,24.026c.311,1.06-.615,1.974-1.719,1.974h-9.998c-1.105,0-2.03-.914-1.719-1.974.852-2.905,3.537-5.026,6.718-5.026s5.866,2.121,6.718,5.026Z" fill="#bb1d80"/></svg>