<?xml version="1.0" encoding="UTF-8"?><svg id="a" xmlns="http://www.w3.org/2000/svg" viewBox="0 0 32 32"><path d="M15.999,29.998c9.334,0,13.999-6.267,13.999-13.999S25.333,2,15.999,2,2,8.268,2,15.999s4.664,13.999,13.999,13.999Z" fill="#ffb02e"/><path d="M10.419,16.224c2.323,0,4.206-1.883,4.206-4.206s-1.883-4.206-4.206-4.206-4.206,1.883-4.206,4.206,1.883,4.206,4.206,4.206Z" fill="#fff"/><path d="M21.568,16.301c2.344,0,4.244-1.9,4.244-4.244s-1.9-4.244-4.244-4.244-4.244,1.9-4.244,4.244,1.9,4.244,4.244,4.244Z" fill="#fff"/><path d="M10.894,22.447c.204-.407,1.566-2.447,5.106-2.447s4.902,2.04,5.106,2.447c.247.494.848.694,1.342.447.494-.247.694-.848.447-1.342-.463-.926-2.434-3.553-6.894-3.553s-6.431,2.627-6.894,3.553c-.247.494-.047,1.095.447,1.342.494.247,1.095.047,1.342-.447Z" fill="#402a32"/><circle cx="10.991" cy="11.994" r="2.029" fill="#402a32"/><circle cx="21.009" cy="11.994" r="2.029" fill="#402a32"/></svg>