<?xml version="1.0" encoding="UTF-8"?><svg id="a" xmlns="http://www.w3.org/2000/svg" viewBox="0 0 32 32"><path d="M13.883,2.451L4.494,6.504c-.962.431-1.494,1.52-1.494,2.623v13.041c0,1.514.546,2.809,1.857,3.391l9.286,4.043c1.198.531,2.517.531,3.714,0l9.286-5.047c1.311-.581,1.857-.873,1.857-2.387v-13.041c0-1.103-.431-2.192-1.393-2.623l-9.49-4.053c-1.339-.601-2.876-.601-4.234,0Z" fill="#f3eef8"/><path d="M4.857,25.559c-1.311-.581-1.857-1.877-1.857-3.391h26c0,1.514-.546,1.871-1.857,2.452l-9.286,4.981c-1.198.531-2.517.531-3.714,0l-9.286-4.043Z" fill="#b4acbc"/><path d="M3,9.234c0-1.089,1.125-1.815,2.117-1.367l9.117,4.119c1.074.485,1.765,1.555,1.765,2.734v13.395c0,1.082-1.111,1.808-2.102,1.374l-9.701-4.253c-.727-.319-1.197-1.038-1.197-1.832v-14.17Z" fill="#b4acbc"/><path d="M29,9.254c0-1.089-1.125-1.815-2.118-1.367l-9.118,4.119c-1.074.485-1.765,1.555-1.765,2.734v13.395c0,1.082,1.111,1.808,2.102,1.374l9.701-4.253c.727-.319,1.197-1.038,1.197-1.832v-14.17Z" fill="#e1d8ec"/><path d="M6.685,15.996c.82-.066,1.406-1.019,1.303-2.119-.104-1.109-.854-1.947-1.674-1.873-.82.066-1.406,1.018-1.303,2.119.104,1.101.854,1.938,1.674,1.873ZM26.988,14.123c.104-1.101-.483-2.054-1.303-2.119-.82-.066-1.57.772-1.674,1.873-.104,1.101.483,2.054,1.303,2.119.82.074,1.57-.764,1.674-1.873ZM13.988,23.877c.103,1.101-.483,2.054-1.303,2.119-.82.066-1.57-.772-1.674-1.873-.103-1.101.483-2.053,1.303-2.119.82-.074,1.57.764,1.674,1.873ZM22.685,17.004c.82.066,1.406,1.019,1.303,2.119-.104,1.109-.854,1.947-1.674,1.873-.82-.066-1.406-1.019-1.303-2.119.104-1.101.854-1.938,1.674-1.873ZM20.988,24.123c.104-1.101-.483-2.054-1.303-2.119-.82-.066-1.57.772-1.674,1.873-.104,1.101.483,2.053,1.303,2.119.82.074,1.57-.764,1.674-1.873Z" fill="#433b6b"/><path d="M16,7.5c1.657,0,3-.448,3-1s-1.343-1-3-1-3,.448-3,1,1.343,1,3,1Z" fill="#f8312f"/></svg>