<?xml version="1.0" encoding="UTF-8"?><svg id="a" xmlns="http://www.w3.org/2000/svg" viewBox="0 0 32 32"><path d="M15.999,29.998c9.334,0,13.999-6.267,13.999-13.999S25.333,2,15.999,2,2,8.268,2,15.999s4.664,13.999,13.999,13.999Z" fill="#ffb02e"/><path d="M3.248,18.341c-.199.228-.277.52-.238.798-.41-.244-.948-.165-1.269.21-.359.419-.311,1.051.108,1.41l.292.251c-.332-.047-.68.073-.91.35-.354.424-.296,1.055.128,1.408l1.985,1.654-.126-.063c-.43-.215-.948-.131-1.288.209-.488.487-.421,1.296.141,1.695,1.293.917,3.02,2.132,3.927,2.737,1.5,1,3.211,1.342,5,0,1.001-.751,2.265-3.062.935-5.365-.252-.437-.478-.895-.572-1.391-.412-2.18-1.025-4.412-2.363-3.743-.725.362-.662.987-.572,1.875.034.337.072.712.072,1.125l-.079.04-3.762-3.292c-.416-.364-1.047-.322-1.411.094Z" fill="#ff822d"/><path d="M28.753,18.341c.199.228.277.52.238.798.41-.244.948-.165,1.269.21.359.419.311,1.051-.108,1.41l-.292.251c.332-.047.68.073.91.35.354.424.296,1.055-.128,1.408l-1.985,1.654.126-.063c.43-.215.948-.131,1.288.209.487.487.421,1.296-.142,1.695-1.293.917-3.02,2.132-3.927,2.737-1.5,1-3.211,1.342-5,0-1.001-.751-2.265-3.062-.935-5.365.252-.437.478-.895.572-1.391.412-2.18,1.025-4.412,2.363-3.743.725.362.662.987.572,1.875-.034.337-.072.712-.072,1.125l.079.04,3.762-3.292c.416-.364,1.047-.322,1.411.094Z" fill="#ff822d"/><path d="M7,14.5c0,1.381-.895,2.5-2,2.5s-2-1.119-2-2.5.895-2.5,2-2.5,2,1.119,2,2.5Z" fill="#ff6723"/><path d="M29,14.5c0,1.381-.895,2.5-2,2.5s-2-1.119-2-2.5.895-2.5,2-2.5,2,1.119,2,2.5Z" fill="#ff6723"/><path d="M9.349,10.413c-.209.228-.319.531-.367.778-.105.542-.63.896-1.172.791s-.896-.63-.791-1.172c.089-.456.31-1.153.857-1.749.577-.629,1.44-1.06,2.624-1.06,1.196,0,2.062.452,2.636,1.082.544.597.771,1.292.849,1.747.095.544-.27,1.062-.814,1.156-.544.094-1.062-.27-1.156-.814-.034-.197-.139-.503-.358-.742-.189-.207-.516-.429-1.157-.429-.653,0-.972.217-1.151.413Z" fill="#402a32"/><path d="M20.349,10.413c-.209.228-.319.531-.367.778-.105.542-.63.896-1.173.791-.542-.105-.896-.63-.791-1.172.089-.456.31-1.153.857-1.749.577-.629,1.44-1.06,2.624-1.06,1.195,0,2.062.452,2.636,1.082.544.597.771,1.292.849,1.747.095.544-.27,1.062-.814,1.156-.544.094-1.062-.27-1.156-.814-.034-.197-.139-.503-.358-.742-.189-.207-.516-.429-1.157-.429-.653,0-.972.217-1.151.413Z" fill="#402a32"/><path d="M9.8,15.4c-.331-.442-.958-.531-1.4-.2-.442.331-.531.958-.2,1.4.702.936,3.008,2.9,7.8,2.9s7.098-1.964,7.8-2.9c.331-.442.242-1.069-.2-1.4-.442-.331-1.069-.242-1.4.2-.298.397-1.992,2.1-6.2,2.1s-5.902-1.703-6.2-2.1Z" fill="#402a32"/></svg>