<?xml version="1.0" encoding="UTF-8"?><svg id="a" xmlns="http://www.w3.org/2000/svg" viewBox="0 0 32 32"><path d="M21.147,21.147c-1.62-.43-2.847-.134-4.62.57l-3.41,3.41c-1.77,1.77-4.64,1.77-6.4,0-1.77-1.77-1.77-4.64,0-6.4l3.41-3.41h.921l2.389-1.87c1.31-.14,2.68.27,3.68,1.28s1.42,2.37,1.28,3.68c.718.783,1.677.95,2.437.19l.873-2.06c-.27-1.54-1-3.02-2.19-4.21-1.19-1.19-2.67-1.92-4.21-2.19l-2.19-.674-2.42,1.234c-.86.38-1.67.92-2.38,1.63l-4,4c-3.09,3.09-3.09,8.12,0,11.21,3.09,3.09,8.12,3.09,11.21,0l4-4c.7-.71,1.24-1.52,1.62-2.39Z" fill="#9b9b9b"/><path d="M27.528,4.318c-3.09-3.09-8.12-3.09-11.21,0l-4,4c-.7.71-1.24,1.52-1.62,2.38,1.46-.65,3.07-.84,4.62-.57l3.41-3.41c1.77-1.77,4.64-1.77,6.4,0,1.76,1.77,1.77,4.64,0,6.4l-3.41,3.41-.59.59c-.76.76-1.73,1.17-2.72,1.28-1.31.14-2.68-.27-3.68-1.28s-1.42-2.37-1.28-3.68c-1,.11-1.96.52-2.72,1.28l-.59.59c.27,1.54,1,3.02,2.19,4.21,1.19,1.19,2.67,1.92,4.21,2.19,1.55.27,3.16.08,4.62-.57.86-.38,1.67-.92,2.38-1.63l4-4c3.08-3.07,3.08-8.1-.01-11.19Z" fill="#bebebe"/></svg>