<?xml version="1.0" encoding="UTF-8"?><svg id="a" xmlns="http://www.w3.org/2000/svg" viewBox="0 0 32 32"><path d="M14.987,12.083c-.215-3.395-3.037-6.083-6.487-6.083-3.59,0-6.5,2.91-6.5,6.5,0,3.142,2.229,5.764,5.193,6.368-.065.375-.099.753-.099,1.132,0,5.226,4.168,8.28,7.735,9.331.765.226,1.579.234,2.339-.009,3.374-1.08,7.801-4.498,7.801-9.322,0-.34-.043-.725-.131-1.138,2.948-.617,5.162-3.231,5.162-6.362,0-3.59-2.91-6.5-6.5-6.5-3.448,0-6.269,2.684-6.486,6.077-.326-.03-.664-.046-1.014-.046-.344,0-.682.018-1.013.052Z" fill="#cdc4d6"/><path d="M12,21c-.552,0-1,.448-1,1v1c0,.552.448,1,1,1s1-.448,1-1v-1c0-.552-.448-1-1-1Z" fill="#1c1c1c"/><path d="M20,21c-.552,0-1,.448-1,1v1c0,.552.448,1,1,1s1-.448,1-1v-1c0-.552-.448-1-1-1Z" fill="#1c1c1c"/><path d="M12.976,12.513c-2.778.922-4.811,3.058-5.564,5.453-2.485-.291-4.413-2.403-4.413-4.966,0-2.761,2.239-5,5-5,2.597,0,4.731,1.98,4.976,4.513Z" fill="#ff8687"/><path d="M29,13c0,2.563-1.928,4.675-4.412,4.966-.715-2.077-2.469-4.502-5.561-5.486.26-2.517,2.388-4.48,4.973-4.48,2.761,0,5,2.239,5,5Z" fill="#ff8687"/><path d="M16.031,27.969c1.195,0,1.938-1.734,1.938-2.109s-.325-.859-1.938-.859c-1.828,0-2.016.422-2.016.859,0,.32.82,2.109,2.016,2.109Z" fill="#ff8687"/><path d="M12,26.5c0-.276-.224-.5-.5-.5h-5c-.276,0-.5.224-.5.5s.224.5.5.5h5c.276,0,.5-.224.5-.5Z" fill="#b4acbc"/><path d="M20.5,26c-.276,0-.5.224-.5.5s.224.5.5.5h5c.276,0,.5-.224.5-.5s-.224-.5-.5-.5h-5Z" fill="#b4acbc"/><path d="M19.686,27.036c-.256-.103-.547.022-.65.278-.103.256.022.547.278.65l5,2c.256.103.547-.022.65-.278.103-.256-.022-.547-.278-.65l-5-2Z" fill="#b4acbc"/><path d="M12.314,27.036c.256-.103.547.022.65.278.103.256-.022.547-.278.65l-5,2c-.256.103-.547-.022-.65-.278-.103-.256.022-.547.279-.65l5-2Z" fill="#b4acbc"/></svg>