<?xml version="1.0" encoding="UTF-8"?><svg id="a" xmlns="http://www.w3.org/2000/svg" viewBox="0 0 32 32"><path d="M16.81,30.04v-6.64l-2.31-1.4-2.67,1.4v6.64h4.98Z" fill="#7d4533"/><path d="M21.65,7H7.84l3.16,16.61h14.99c.828,0,1.5-.672,1.5-1.5v-9.27c-.01-3.23-2.62-5.84-5.84-5.84Z" fill="#5092ff"/><path d="M7.84,7c-3.23,0-5.84,2.61-5.84,5.84v9.27c0,.828.672,1.5,1.5,1.5h8.67c.828,0,1.5-.672,1.5-1.5v-9.27c0-3.23-2.61-5.84-5.83-5.84Z" fill="#3f5fff"/><path d="M7.84,8c-2.678,0-4.84,2.162-4.84,4.84v9.27c0,.276.224.5.5.5h8.67c.276,0,.5-.224.5-.5v-9.27c0-2.679-2.163-4.84-4.83-4.84Z" fill="#321b41"/><path d="M30,19.132v-5.263c0-.476-.369-.868-.816-.868h-2.369c-.447,0-.816.393-.816.868v5.263c0,.476.369.868.816.868h2.369c.447,0,.816-.393.816-.868Z" fill="#f92f60"/><path d="M20.516,14.63c-.419.723-1.201,1.21-2.096,1.21-1.337,0-2.42-1.083-2.42-2.42s1.083-2.42,2.42-2.42c.896,0,1.678.487,2.096,1.21h8.904c.67,0,1.21.54,1.21,1.21s-.54,1.21-1.21,1.21h-8.904Z" fill="#d3d3d3"/></svg>