<?xml version="1.0" encoding="UTF-8"?><svg id="a" xmlns="http://www.w3.org/2000/svg" viewBox="0 0 32 32"><path d="M16,5.051c.635-.648,1.521-1.051,2.5-1.051h8c.743,0,1.389.404,1.734,1.003.07.121.096.26.096.4v2.294l.67,14.803c0,1.381-1.119,2.5-2.5,2.5H5.5c-1.381,0-2.5-1.119-2.5-2.5l.67-14.803v-2.294c0-.139.026-.279.096-.4.345-.599.991-1.003,1.734-1.003h8c.979,0,1.865.402,2.5,1.051Z" fill="#b4acbc" fill-rule="evenodd"/><path d="M17.732,27h10.766c.831,0,1.501-.678,1.501-1.505v-1.053c0-.827-.67-2.441-1.501-2.441H3.501c-.831,0-1.501,1.614-1.501,2.441v1.063c0,.827.67,1.495,1.501,1.495h10.767c.346.598.992,1,1.732,1s1.387-.402,1.732-1Z" fill="#0074ba"/><path d="M3.501,7h10.499v1h4v-1h10.499c.831,0,1.501.668,1.501,1.495v16c0,.827-.67,1.505-1.501,1.505h-10.766c-.346.598-.992,1-1.732,1s-1.387-.402-1.732-1H3.501c-.831,0-1.501-.668-1.501-1.495V8.495c0-.827.67-1.495,1.501-1.495ZM17.5,24.5c0,.828-.672,1.5-1.5,1.5s-1.5-.672-1.5-1.5.672-1.5,1.5-1.5,1.5.672,1.5,1.5Z" fill="#00a6ed" fill-rule="evenodd"/><path d="M13,5h-7.197c-.502,0-.97.251-1.248.668l-1.555,2.332v14.5c0,.828.672,1.5,1.5,1.5h23c.828,0,1.5-.672,1.5-1.5V8l-1.555-2.332c-.278-.417-.747-.668-1.248-.668h-7.197v3h-6v-3Z" fill="#b4acbc"/><path d="M5.5,5h8c1.381,0,2.5,1.119,2.5,2.5v16.5l-.447-.894c-.339-.678-1.031-1.106-1.789-1.106H5.5c-.552,0-1-.448-1-1V6c0-.552.448-1,1-1Z" fill="#f3eef8"/><path d="M18.5,5h8c.552,0,1,.448,1,1v15c0,.552-.448,1-1,1h-8.264c-.72,0-1.381.387-1.736,1.007V6c.456-.607,1.182-1,2-1Z" fill="#f3eef8"/></svg>