<?xml version="1.0" encoding="UTF-8"?><svg id="a" xmlns="http://www.w3.org/2000/svg" viewBox="0 0 32 32"><path d="M4.5,2c-.552,0-1,.448-1,1v22c0,2.341,1.997,5,4.5,5h17.5c1.973-.246,3.5-1.96,3.5-4,0-.552-.448-1-1-1h-2.5V3c0-.552-.448-1-1-1H4.5Z" fill="#b4acbc"/><path d="M5,3c-.276,0-.5.224-.5.5,0,2.567,0,5.135,0,7.702,0,4.432,0,8.865,0,13.297,0,2.483,2.011,4.497,4.494,4.5,1.285-.606,2.345-1.707,2.506-3,0-.552.448-1,1-1h12V3.5c0-.276-.224-.5-.5-.5H5Z" fill="#f3eef8"/><path d="M8.5,10c-.276,0-.5.224-.5.5s.224.5.5.5h12c.276,0,.5-.224.5-.5s-.224-.5-.5-.5h-12ZM8.5,13c-.276,0-.5.224-.5.5s.224.5.5.5h12c.276,0,.5-.224.5-.5s-.224-.5-.5-.5h-12ZM8,16.5c0-.276.224-.5.5-.5h12c.276,0,.5.224.5.5s-.224.5-.5.5h-12c-.276,0-.5-.224-.5-.5ZM8.5,19c-.276,0-.5.224-.5.5s.224.5.5.5h7c.276,0,.5-.224.5-.5s-.224-.5-.5-.5h-7Z" fill="#998ea4"/></svg>