<?xml version="1.0" encoding="UTF-8"?><svg id="a" xmlns="http://www.w3.org/2000/svg" viewBox="0 0 32 32"><path d="M11.93,19.74c.11.14.32.16.46.05.14-.11.16-.32.05-.46l-.35-.44c-.11-.14-.32-.16-.46-.05-.14.11-.16.32-.05.46l.35.44Z" fill="#d67d00"/><path d="M19.21,19.74c-.11.14-.32.16-.46.05-.14-.11-.17-.32-.05-.46l.35-.44c.11-.14.32-.16.46-.05s.16.32.05.46l-.35.44Z" fill="#d67d00"/><path d="M13.96,8.99l.1,1.33.09,1.04c-.03.01-1.7,1.39-1.17,6.89.02.24.07.73.1.95.01.17-.38.24-.51.07-.035-.052-.064-.145-.094-.242-.057-.182-.119-.381-.236-.368-.3.03-.17.52-.17.52,0,0,.14.71.16.87.03.32-.43.41-.56.18-.16-.29-.31-.59-.4-1.02-.05-.22-.14-.91-.14-.91-.631-7.673,1.217-8.541,2.452-9.122.135-.063.262-.123.378-.188Z" fill="#ffc83d"/><path d="M17.18,8.99l-.1,1.33-.08,1.04c.02.01,1.69,1.39,1.15,6.89-.015.175-.045.488-.068.726-.009.089-.016.167-.022.224-.01.17.38.24.51.07.035-.052.064-.145.094-.242.057-.182.119-.381.236-.368.3.03.17.52.17.52,0,0-.14.71-.16.87-.03.32.43.41.56.18.16-.29.31-.59.4-1.02.05-.22.14-.91.14-.91.631-7.673-1.217-8.541-2.452-9.122-.135-.063-.262-.123-.378-.188Z" fill="#ffc83d"/><path d="M16.1,30.03v-1.57l.928-.372,1.022.372s-.25.18.91,1c.22.15.11.57.11.57h-2.97Z" fill="#533566"/><path d="M15.07,30.03v-1.57l-.995-.336-1.015.336s.07.32-.92,1c-.22.15-.11.57-.11.57h3.04Z" fill="#533566"/><path d="M12.59,16l.48,12.46h2.01l.27-10.37c0-.38.46-.36.46,0l.29,10.37h1.94l.53-12.468-2.911-.837-3.068.845Z" fill="#9b9b9b"/><path d="M18.57,16h-5.98v-3.35h-1.39c0-1.15.63-2.2,1.39-2.97.77-.78,1.83-1.26,3-1.26s2.23.49,3,1.26c.76.77,1.34,1.82,1.34,2.97h-1.349l-.011,3.35Z" fill="#ff6723"/><path d="M15.57,9.41c-.5,0-.91-.41-.91-.91v-.6h1.82v.6c0,.5-.41.91-.91.91Z" fill="#fcb100"/><path d="M17.575,7.228c0-.065.002-.132.013-.198l.04-.737c.13-.01.352-.06.452-.13v.507c0,.37-.21.7-.55.85.043-.091.044-.19.045-.292Z" fill="#f1a11e"/><path d="M13.06,6.166c.11.08.312.13.462.13l.04.734c.005.048.008.096.01.143.006.128.012.25.078.367-.36-.15-.59-.49-.59-.87v-.504Z" fill="#f1a11e"/><path d="M14.19,5.68c0,.398-.322.72-.72.72s-.72-.322-.72-.72.322-.72.72-.72.72.322.72.72Z" fill="#fdbb11"/><path d="M18.39,5.68c0,.398-.322.72-.72.72s-.72-.322-.72-.72.322-.72.72-.72.72.322.72.72Z" fill="#fdbb11"/><path d="M16.06,2.52h-.96c-1.08,0-1.89.9-1.77,2.02l.16,2.48c.11.85.83,1.48,1.68,1.48h.82c.85,0,1.57-.63,1.68-1.47l.15-2.48c.15-1.08-.68-2.03-1.76-2.03Z" fill="#ffc83d"/><path d="M14,4.775c.02.014.044.022.068.021.026,0,.05-.009.071-.025.187-.13.417-.182.642-.146.031.003.061-.006.086-.024.024-.019.041-.046.046-.076.002-.015.001-.031-.003-.046-.004-.015-.011-.029-.02-.041-.009-.012-.021-.023-.034-.03-.013-.008-.028-.013-.043-.015-.288-.044-.581.025-.818.194-.019.015-.033.036-.04.059-.007.023-.006.048.002.071s.023.043.043.057Z" fill="#d37034"/><path d="M17.005,4.771c.021.016.046.025.073.025.017,0,.035-.004.05-.011.016-.007.03-.018.041-.032.019-.024.028-.056.024-.086-.003-.031-.019-.059-.043-.079-.239-.166-.531-.235-.819-.194-.015.002-.03.007-.043.015s-.025.018-.034.03-.016.026-.02.041c-.004.015-.005.03-.003.046.002.015.007.03.015.043s.018.025.03.034c.012.009.026.016.041.02.015.004.03.005.046.002.225-.036.455.016.642.145Z" fill="#d37034"/><path d="M13.94,5.55c.06-.26.3-.46.59-.46s.54.21.6.49c.01.06-.04.12-.1.12h-.98c-.08,0-.14-.07-.11-.15Z" fill="#fff"/><path d="M17.21,5.55c-.06-.26-.3-.46-.59-.46-.3,0-.54.21-.6.49-.01.06.04.12.1.12h.98c.08,0,.13-.07.11-.15Z" fill="#fff"/><path d="M14.22,5.6c0-.22.18-.4.4-.4.21,0,.39.18.39.4,0,.03-.01.07-.03.1h-.75c0-.014-.002-.028-.004-.043-.003-.017-.005-.036-.005-.057Z" fill="#7d4533"/><path d="M16.92,5.6c0-.21-.17-.39-.39-.39-.21,0-.39.18-.39.4,0,.03,0,.07.01.09h.76c0-.014.002-.028.004-.043.003-.017.006-.036.006-.057Z" fill="#7d4533"/><path d="M14.62,5.38c.12,0,.22.1.22.22,0,.015-.002.033-.005.05-.002.017-.005.035-.005.05h-.4c-.02-.03-.03-.06-.03-.1,0-.12.1-.22.22-.22Z"/><path d="M16.53,5.38c-.12,0-.22.1-.22.22,0,.015.002.033.005.05s.005.035.005.05h.4c.02-.03.03-.06.03-.1,0-.12-.1-.22-.22-.22Z"/><path d="M14.55,5.44c0,.039-.031.07-.07.07s-.07-.031-.07-.07.031-.07.07-.07.07.031.07.07Z" fill="#fff"/><path d="M16.48,5.44c0,.039-.031.07-.07.07s-.07-.031-.07-.07.031-.07.07-.07.07.031.07.07Z" fill="#fff"/><path d="M15.41,5.56l-.23.74c-.04.15.07.3.23.3h.34c.16,0,.27-.15.22-.3l-.23-.74c-.05-.16-.28-.16-.33,0Z" fill="#ed9200"/><path d="M15.57,7.01c-.23,0-.45-.06-.63-.15-.06-.03-.13.04-.09.1.15.24.42.39.72.39s.57-.16.73-.39c.04-.06-.03-.13-.09-.1-.19.1-.4.15-.64.15Z" fill="#990839"/><path d="M18.25,3.41c-.13-.22-.33-.38-.55-.46-.25-.08-.46-.24-.6-.46-.18-.29-.5-.49-.87-.49-.14,0-.28.03-.4.08-.17.07-.36.07-.52,0-.12-.05-.26-.08-.4-.08-.37,0-.68.19-.87.48-.14.22-.35.39-.6.48-.24.08-.44.24-.57.48-.18.35-.15.76.06,1.06.08.11.12.24.12.38v.22c.09-.06.19-.11.3-.12v-.36c0-.81.65-1.46,1.46-1.46h.56c.12,0,.23.07.27.18.17.38.55.62.97.62h.61c.33.01.6.29.6.62l-.03.4h.03c.1.02.19.06.26.12v-.22c0-.13.04-.27.12-.38.22-.31.26-.74.05-1.09Z" fill="#f1a11e"/></svg>