<?xml version="1.0" encoding="UTF-8"?><svg id="a" xmlns="http://www.w3.org/2000/svg" viewBox="0 0 32 32"><path d="M9.467,10.958c.275-.571.617-1.096,1.044-1.574.626-.681,1.196-1.169,1.205-1.178.342-.285.38-.792.085-1.132-.294-.331-.816-.368-1.158-.083-.029.028-.38.322-.835.773-.066.064-.18.018-.171-.064.152-1.51.285-2.624.389-3.416.047-.396-.133-.792-.531-.893-.399-.101-.807.129-.921.516,0,.037-.076.875-.247,1.887-.019.11-.038.23-.047.341-.009.028-.038.055-.076.046-.028-.009-.047-.037-.038-.055.095-1.427.209-2.725.209-2.753.076-.396-.18-.783-.588-.856-.408-.083-.807.175-.883.571-.019.055-.085,1.418-.209,2.596,0,.028-.047.028-.047,0l-.047-1.805c-.028-.405-.37-.709-.778-.691-.427.018-.75.377-.721.783l.123,1.989c0,.055-.085.064-.085.009-.085-.58-.142-.985-.142-.994-.057-.396-.437-.681-.854-.626-.408.055-.693.424-.636.819.247,1.759.645,4.631.674,4.999,0,.018,0,.028.009.037.085.589.38,1.151.864,1.584,1.12,1.004,2.885.939,3.929-.138.199-.203.361-.442.484-.691Z" fill="#ffc83d"/><path d="M9,14h-4v-1.578c0-.241.154-.422.337-.422h3.317c.192,0,.337.193.337.422v1.578h.01Z" fill="#f95725"/><path d="M21.5,21c2.5,0,7.5,3.5,7.5,9H11v-3.5c0-.277-.17-.533-.416-.625l-3.084-1.375c-2.5-1-3.5-3.5-3.5-5.198v-5.288c0-.564.425-1.014.935-1.014h4.129c.52,0,.935.461.935,1.014v3.986c0,1.302,1,1.5,1,1.5l6,1.5h4.5Z" fill="#ff6723"/><path d="M19.5,24c-1.38,0-2.5-.985-2.5-2.2v-2.6c0-1.215,1.12-2.2,2.5-2.2s2.5.985,2.5,2.2v2.6c0,1.215-1.12,2.2-2.5,2.2Z" fill="#fcb100"/><path d="M26.878,7.638c-.35-.616-.905-1.038-1.52-1.256-.675-.229-1.266-.664-1.628-1.28-.507-.809-1.399-1.352-2.412-1.352-.386,0-.76.085-1.097.229-.458.193-.977.193-1.435,0-.35-.145-.712-.229-1.11-.229-1.001,0-1.881.519-2.376,1.316-.386.616-.977,1.075-1.664,1.316-.651.217-1.218.688-1.568,1.34-.494.954-.398,2.077.181,2.922.201.297.321.651.325,1.019v4.946c0,1.05.639,1.992,1.616,2.391.918,0,6.698-.048,10.697-.048.917-.41,1.532-1.328,1.532-2.354v-4.89c0-.374.109-.737.326-1.038.603-.894.687-2.065.133-3.031Z" fill="#f1a11e"/><path d="M16,14c0,1.105-.895,2-2,2s-2-.895-2-2,.895-2,2-2,2,.895,2,2Z" fill="#fdbb11"/><path d="M27,14c0,1.105-.895,2-2,2s-2-.895-2-2,.895-2,2-2,2,.895,2,2Z" fill="#fdbb11"/><path d="M17.409,7c-2.251,0-4.159,1.823-4.159,4.075v.991l.225,5.365c.323,2.337,2.359,4.069,4.767,4.069h2.309c2.408,0,4.457-1.744,4.767-4.069l.36-5.375h-.003s.072-1.109.072-1.109c.052-.899-.694-1.658-1.624-1.695h-1.712c-1.162,0-2.226-.673-2.703-1.738-.122-.318-.416-.514-.746-.514h-1.553Z" fill="#ffc83d"/><path d="M19.109,13.343l-.58,2.063c-.125.42.171.852.58.852h.876c.41,0,.705-.432.58-.852l-.592-2.063c-.136-.457-.728-.457-.865,0Z" fill="#ed9200"/><path d="M19.498,17.956c-.635,0-1.209-.215-1.635-.439-.153-.08-.315.142-.197.281.437.516.897,1.098,1.832,1.098s1.42-.514,1.84-1.02c.118-.142-.075-.382-.23-.303-.408.205-.955.383-1.61.383Z" fill="#990839"/><path d="M17.857,14.006c.321,0,.583-.277.461-.573-.265-.647-.902-1.102-1.644-1.102s-1.378.455-1.644,1.102c-.122.297.14.573.461.573h2.366Z" fill="#fff"/><path d="M21.122,14.006c-.321,0-.583-.277-.461-.573.266-.647.902-1.102,1.644-1.102s1.378.455,1.644,1.102c.122.297-.14.573-.461.573h-2.366Z" fill="#fff"/><path d="M15.836,13.726c0,.096.012.19.035.279h1.985c.066,0,.128-.012.186-.032.018-.079.027-.162.027-.247,0-.617-.5-1.117-1.117-1.117s-1.117.5-1.117,1.117Z" fill="#7d4533"/><path d="M23.143,13.726c0,.096-.012.19-.035.279h-1.985c-.066,0-.128-.012-.186-.032-.018-.079-.027-.162-.027-.247,0-.617.5-1.117,1.117-1.117s1.117.5,1.117,1.117Z" fill="#7d4533"/><path d="M16.283,13.741c0,.087.017.17.047.246h1.303c.03-.077.047-.16.047-.246,0-.378-.313-.684-.698-.684s-.698.307-.698.684Z"/><path d="M22.696,13.754c0,.089-.017.173-.047.251h-1.303c-.03-.078-.047-.163-.047-.251,0-.386.313-.698.698-.698s.698.313.698.698Z"/><path d="M16.954,13.168c0,.154-.125.279-.279.279s-.279-.125-.279-.279.125-.279.279-.279.279.125.279.279Z" fill="#fff"/><path d="M22.026,13.168c0,.154.125.279.279.279s.279-.125.279-.279-.125-.279-.279-.279-.279.125-.279.279Z" fill="#fff"/><path d="M15.651,11.634c.112-.111.33-.244.629-.35.295-.104.648-.174,1.018-.174.169,0,.306-.137.306-.305s-.137-.306-.306-.306c-.444,0-.866.083-1.221.208-.35.123-.657.296-.855.49-.12.118-.122.312-.003.432.118.12.312.122.432.003Z" fill="#d37034"/><path d="M23.135,11.634c-.112-.111-.33-.244-.629-.35-.295-.104-.648-.174-1.018-.174-.169,0-.306-.137-.306-.305s.137-.306.306-.306c.444,0,.866.083,1.221.208.35.123.657.296.855.49.12.118.122.312.003.432-.118.12-.312.122-.432.003Z" fill="#d37034"/></svg>