<?xml version="1.0" encoding="UTF-8"?><svg id="a" xmlns="http://www.w3.org/2000/svg" viewBox="0 0 32 32"><path d="M22.072,6.659c.125,1.058-.063,1.735-.309,2.134,2.029.56,3.878,1.974,4.743,3.821.625,1.531.66,3.358.192,5.026,2.483,1.207,4.302,3.907,4.302,6.789,0,3.722-2.723,6.399-6.574,6.625v.015h-15.396v-.003c-4.769-.116-7.03-3.317-7.03-7.042,0-2.494,2.149-5.471,4.549-6.491-.001-.219.021-.386.057-.512-.929-1.879.021-3.78.618-4.5.08-.102.155-.2.227-.293l.01-.013c.831-1.083,1.332-1.735,4.895-3.279,3.887-1.683,5.269-3.336,5.8-4.006.146-.185.281-.425.42-.672.366-.652.763-1.358,1.478-1.245.987.156,1.761,1.465,2.019,3.647Z" fill="#b35f47"/><path d="M12.625,25.159h7.906c0,2.379-1.77,3.919-3.953,3.919s-3.953-1.477-3.953-3.919Z" fill="#f92f60"/><path d="M15.585,19.619c0,2.477-2.008,4.485-4.485,4.485s-4.485-2.008-4.485-4.485,2.008-4.485,4.485-4.485,4.485,2.008,4.485,4.485ZM26.484,19.619c0,2.477-2.008,4.485-4.485,4.485s-4.485-2.008-4.485-4.485,2.008-4.485,4.485-4.485,4.485,2.008,4.485,4.485Z" fill="#fff" fill-rule="evenodd"/><path d="M12.015,22.131c1.372,0,2.484-1.112,2.484-2.484s-1.112-2.483-2.484-2.483-2.483,1.112-2.483,2.483,1.112,2.484,2.483,2.484ZM21.027,22.131c1.372,0,2.483-1.112,2.483-2.484s-1.112-2.483-2.483-2.483-2.483,1.112-2.483,2.483,1.112,2.484,2.483,2.484Z" fill="#402a32" fill-rule="evenodd"/></svg>