<?xml version="1.0" encoding="UTF-8"?><svg id="a" xmlns="http://www.w3.org/2000/svg" viewBox="0 0 32 32"><path d="M15.999,29.998c9.334,0,13.999-6.267,13.999-13.999S25.333,2,15.999,2,2,8.268,2,15.999s4.664,13.999,13.999,13.999Z" fill="#ffb02e"/><path d="M11.84,18.457c-.296-.458-.906-.594-1.37-.304-.468.293-.61.91-.317,1.378h0s0,.002,0,.002l.002.003.003.005.009.013c.007.01.014.022.024.035.019.027.043.061.073.101.061.08.147.185.26.306.226.241.563.546,1.03.846.944.604,2.382,1.158,4.445,1.158s3.5-.554,4.445-1.158c.468-.299.804-.604,1.031-.846.113-.121.199-.225.26-.306.03-.04.055-.074.074-.101.009-.014.017-.025.024-.035l.009-.013.004-.005.002-.003h0s0-.002,0-.002c.293-.468.151-1.085-.317-1.378-.464-.29-1.074-.154-1.37.304-.002.003-.008.012-.018.024-.022.029-.063.08-.126.147-.125.134-.336.329-.65.529-.619.396-1.681.842-3.367.842s-2.748-.446-3.367-.842c-.314-.201-.524-.396-.65-.529-.063-.067-.104-.118-.126-.147-.01-.013-.016-.021-.018-.024Z" fill="#402a32"/><path d="M10.82,5.36h-5.641c-2.077,0-3.76,1.684-3.76,3.76v.633c0,2.493,1.408,4.771,3.638,5.886l.88.44c1.318.659,2.861.746,4.249.251,2.619-.935,4.395-3.426,4.395-6.207v-1.003c0-2.077-1.684-3.76-3.76-3.76Z" fill="#321b41"/><path d="M20.726,5.387h6.548c1.808,0,3.274,1.466,3.274,3.274v1.098c0,2.48-1.401,4.748-3.62,5.857l-.875.438c-1.312.656-2.847.743-4.228.25-2.606-.931-4.373-3.409-4.373-6.177v-1.466c0-1.808,1.466-3.274,3.274-3.274Z" fill="#321b41"/><path d="M14,6.354c-.733-.83-1.805-1.354-3-1.354h-6c-2.209,0-4,1.791-4,4v.674c0,2.651,1.498,5.075,3.87,6.261l.936.468c1.402.701,3.044.794,4.52.267,2.786-.995,4.675-3.644,4.675-6.603v-.067c0-.552.448-1,1-1s1,.448,1,1v.067c0,2.958,1.889,5.608,4.675,6.603,1.476.527,3.118.434,4.52-.267l.936-.468c2.372-1.186,3.869-3.61,3.869-6.261v-1.174c0-1.933-1.567-3.5-3.5-3.5h-7c-1.124,0-2.124.53-2.765,1.354v-.003c-.015.015-.031.032-.05.051-.192.196-.582.596-.946.599h-1.744c-.364-.003-.754-.402-.946-.599-.019-.019-.035-.036-.05-.051v.003ZM11,6c1.657,0,3,1.343,3,3v1.067c0,2.53-1.618,4.806-4.011,5.661-1.222.437-2.581.358-3.736-.22l-.936-.468c-2.033-1.016-3.317-3.094-3.317-5.367v-.674c0-1.657,1.343-3,3-3h6ZM18,8.5c0-1.381,1.119-2.5,2.5-2.5h7c1.381,0,2.5,1.119,2.5,2.5v1.174c0,2.273-1.284,4.35-3.317,5.367l-.936.468c-1.156.578-2.514.656-3.736.22-2.393-.855-4.011-3.13-4.011-5.661v-1.567Z" fill="#8d65c5"/><path d="M12.389,10.268c.586-.586.427-1.694-.354-2.475-.781-.781-1.889-.939-2.475-.354-.586.586-.427,1.694.354,2.475.781.781,1.889.939,2.475.354Z" fill="#fff"/><path d="M28.389,10.268c.586-.586.428-1.694-.353-2.475-.781-.781-1.889-.939-2.475-.354-.586.586-.427,1.694.354,2.475.781.781,1.889.939,2.475.354Z" fill="#fff"/></svg>