<?xml version="1.0" encoding="UTF-8"?><svg id="a" xmlns="http://www.w3.org/2000/svg" viewBox="0 0 32 32"><path d="M15.999,29.998c9.334,0,13.999-6.267,13.999-13.999S25.333,2,15.999,2,2,8.268,2,15.999s4.664,13.999,13.999,13.999Z" fill="#ffb02e"/><path d="M11,16c0,1.105-1.343,2-3,2s-3-.895-3-2,1.343-2,3-2,3,.895,3,2Z" fill="#ff6723"/><path d="M27,16c0,1.105-1.343,2-3,2s-3-.895-3-2,1.343-2,3-2,3,.895,3,2Z" fill="#ff6723"/><path d="M8.982,12.191c.048-.247.158-.55.367-.778.179-.195.498-.413,1.151-.413.642,0,.969.222,1.157.429.218.24.323.545.358.742.094.544.612.909,1.156.814.544-.094.909-.612.814-1.156-.079-.455-.305-1.149-.849-1.747-.574-.63-1.44-1.082-2.636-1.082-1.184,0-2.047.431-2.624,1.06-.547.596-.769,1.293-.857,1.749-.105.542.249,1.067.791,1.172s1.067-.249,1.172-.791Z" fill="#402a32"/><path d="M19.982,12.191c.048-.247.158-.55.367-.778.179-.195.498-.413,1.151-.413.642,0,.969.222,1.157.429.218.24.323.545.358.742.094.544.612.909,1.156.814.544-.094.909-.612.814-1.156-.079-.455-.305-1.149-.849-1.747-.574-.63-1.44-1.082-2.636-1.082-1.184,0-2.047.431-2.624,1.06-.547.596-.769,1.293-.857,1.749-.105.542.249,1.067.791,1.172.542.105,1.067-.249,1.173-.791Z" fill="#402a32"/><path d="M9.4,18.2c.442-.331,1.069-.242,1.4.2.341.455,2.062,2.1,5.2,2.1s4.859-1.645,5.2-2.1c.331-.442.958-.531,1.4-.2.442.331.531.958.2,1.4-.659.878-2.938,2.9-6.8,2.9s-6.141-2.022-6.8-2.9c-.331-.442-.242-1.069.2-1.4Z" fill="#402a32"/></svg>