<?xml version="1.0" encoding="UTF-8"?><svg id="a" xmlns="http://www.w3.org/2000/svg" viewBox="0 0 32 32"><path d="M16,1c-3.377,0-6.474.256-8.762.685-1.131.212-2.141.48-2.903.818-.376.167-.776.386-1.105.688-.036.033-.073.069-.11.107.001-.001.002-.002.003-.003.291.356,1.567,1.443,1.567,1.443,0,0,3.268.262,3.81.262h.071c1.981.308,4.571.5,7.429.5,2.922,0,5.563-.2,7.56-.521.687-.074,3.387-.14,3.387-.14,0,0,1.553-1.383,1.553-1.84v-.029c.094.068.184.141.27.219-.329-.301-.729-.521-1.105-.688-.762-.338-1.772-.606-2.903-.818-2.288-.429-5.384-.685-8.762-.685Z" fill="#1c5cd7"/><path d="M15.999,29.998c9.334,0,13.999-6.267,13.999-13.999S25.333,2,15.999,2,2,8.268,2,15.999s4.664,13.999,13.999,13.999Z" fill="#ffb02e"/><path d="M9.349,13.413c-.209.228-.319.531-.367.778-.105.542-.63.896-1.172.791s-.896-.63-.791-1.172c.089-.456.31-1.153.857-1.749.577-.629,1.44-1.06,2.624-1.06,1.196,0,2.062.452,2.636,1.082.544.597.771,1.292.849,1.747.095.544-.27,1.062-.814,1.156-.544.094-1.062-.27-1.156-.814-.034-.197-.139-.503-.358-.742-.189-.207-.516-.429-1.157-.429-.653,0-.972.217-1.151.413Z" fill="#402a32"/><path d="M20.349,13.413c-.209.228-.319.531-.367.778-.105.542-.63.896-1.173.791-.542-.105-.896-.63-.791-1.172.089-.456.31-1.153.857-1.749.577-.629,1.44-1.06,2.624-1.06,1.195,0,2.062.452,2.636,1.082.544.597.771,1.292.849,1.747.095.544-.27,1.062-.814,1.156-.544.094-1.062-.27-1.156-.814-.034-.197-.139-.503-.358-.742-.189-.207-.516-.429-1.157-.429-.653,0-.972.217-1.151.413Z" fill="#402a32"/><path d="M13,19c0-.552-.448-1-1-1s-1,.448-1,1c0,.827.24,2.045.988,3.084.785,1.091,2.086,1.916,4.012,1.916s3.226-.825,4.011-1.916c.749-1.04.989-2.258.989-3.084,0-.552-.448-1-1-1s-1,.448-1,1c0,.507-.16,1.289-.611,1.916-.415.576-1.114,1.084-2.389,1.084s-1.974-.508-2.389-1.084c-.451-.627-.611-1.409-.611-1.916Z" fill="#402a32"/><path d="M3.123,3.295c.729.893,4.475,1.705,5.377,1.705h.071c1.981.308,4.571.5,7.429.5,2.922,0,5.563-.2,7.56-.521,1.37-.148,4.94-1.064,4.94-1.979v-.029c.094.068.184.141.27.219.326.299.73.821.73,1.559s-.404,1.261-.73,1.559c-.329.301-.729.521-1.105.688-.762.338-1.772.606-2.903.818-2.288.429-5.384.685-8.762.685s-6.474-.256-8.762-.685c-1.131-.212-2.141-.48-2.903-.818-.376-.167-.776-.386-1.105-.688-.326-.299-.73-.821-.73-1.559,0-.659.322-1.146.623-1.455Z" fill="#3f5fff"/></svg>