<?xml version="1.0" encoding="UTF-8"?><svg id="a" xmlns="http://www.w3.org/2000/svg" viewBox="0 0 32 32"><path d="M15.999,29.998c9.334,0,13.999-6.267,13.999-13.999S25.333,2,15.999,2,2,8.268,2,15.999s4.664,13.999,13.999,13.999Z" fill="#ffb02e"/><path d="M5.727,15.434l3.05-2.372c.459-.357,1.05-.497,1.62-.383l3.65.73c.195.039.355-.154.281-.338l-1.411-3.528c-.259-.648-.162-1.384.257-1.943l1.786-2.381c.208-.277-.011-.67-.356-.638l-3.493.318c-.691.063-1.365-.237-1.781-.792l-1.364-1.819c-.373-.498-1.16-.319-1.282.291l-.472,2.359c-.133.663-.591,1.214-1.218,1.465l-2.529,1.012c-.587.235-.638,1.045-.086,1.352l1.983,1.101c.692.384,1.092,1.141,1.021,1.929l-.299,3.285c-.032.349.368.567.644.352Z" fill="#bb1d80"/><path d="M26.273,15.434l-3.05-2.372c-.459-.357-1.05-.497-1.62-.383l-3.65.73c-.195.039-.355-.154-.281-.338l1.411-3.528c.259-.648.162-1.384-.257-1.943l-1.786-2.381c-.208-.277.011-.67.356-.638l3.492.318c.691.063,1.365-.237,1.781-.792l1.364-1.819c.373-.498,1.16-.319,1.282.291l.472,2.359c.133.663.591,1.214,1.218,1.465l2.529,1.012c.587.235.638,1.045.086,1.352l-1.983,1.101c-.692.384-1.092,1.141-1.02,1.929l.299,3.285c.032.349-.368.567-.644.352Z" fill="#bb1d80"/><path d="M16,26c-9,0-9-9-9-9h18s0,9-9,9Z" fill="#bb1d80"/><path d="M8,17.5v-.5h16v.5c0,.552-.448,1-1,1h-14c-.552,0-1-.448-1-1Z" fill="#fff"/></svg>