<?xml version="1.0" encoding="UTF-8"?><svg id="a" xmlns="http://www.w3.org/2000/svg" viewBox="0 0 260 260"><circle cx="130" cy="130" r="130" fill="#fff"/><path d="M115.307,167.288l-30.275,7.682,7.682-30.275c10.18,2.621,19.971,12.413,22.592,22.592h0Z" fill="none" stroke="#9799af" stroke-linecap="round" stroke-linejoin="round" stroke-width="9"/><path d="M96.378,172.091l-11.345,2.879,2.879-11.345c3.815.982,7.484,4.652,8.466,8.466Z" fill="#9799af" stroke="#9799af" stroke-linecap="round" stroke-linejoin="round" stroke-width="9"/><path d="M115.307,167.284l47.392-47.392c-2.621-10.179-12.412-19.97-22.592-22.592l-47.392,47.392" fill="none" stroke="#9799af" stroke-linecap="round" stroke-linejoin="round" stroke-width="9"/><path d="M162.699,119.892l9.95-9.95c2.435-2.435,3.019-6.168,1.438-9.228-3.172-6.14-8.662-11.63-14.803-14.802-3.06-1.581-6.792-.997-9.228,1.438l-9.95,9.95" fill="none" stroke="#9799af" stroke-linecap="round" stroke-linejoin="round" stroke-width="9"/></svg>