<?xml version="1.0" encoding="UTF-8"?><svg id="a" xmlns="http://www.w3.org/2000/svg" viewBox="0 0 260 260"><circle cx="130" cy="130" r="130" fill="#fff"/><path d="M184.454,84.952l-25.137-7.191-29.21,8.361-29.3-8.361-25.262,7.209c-2.287.652-3.868,2.742-3.868,5.118v88.337c0,2.412,2.358,4.118,4.654,3.377l24.476-7.959,29.3,8.397,29.247-8.343,24.315,7.906c2.295.742,4.654-.965,4.654-3.377v-88.345c0-2.377-1.581-4.475-3.868-5.128h-.001Z" fill="#b3b7c4"/><path d="M179.979,165.16c0,1.911-1.849,3.279-3.68,2.716l-16.982-5.226-29.21,8.183-29.3-8.272-17.812,5.432c-1.518.464-3.064-.678-3.064-2.269v-68.89c0-1.286.867-2.412,2.118-2.743l18.759-5.011,29.3,8.316v-.009l29.21-8.228,18.554,4.931c1.241.331,2.108,1.456,2.108,2.743v68.327h0Z" fill="#fff"/><circle cx="116.53" cy="119.88" r="10.495" fill="#b3b7c4" opacity=".55"/><path d="M147.393,146.023c0,5.795-4.691,10.487-10.478,10.487-2.582,0-4.94-.929-6.767-2.483-2.275-1.918-3.72-4.79-3.72-8.004s1.445-6.078,3.72-7.995c1.827-1.552,4.185-2.483,6.767-2.483,5.787,0,10.478,4.691,10.478,10.478Z" fill="#b3b7c4" opacity=".6"/><path d="M170.258,115.261c0,7.323-5.737,13.301-12.961,13.683-.25.016-.498.025-.748.025-7.564,0-13.7-6.136-13.7-13.707s6.136-13.7,13.7-13.7c.25,0,.498,0,.748.016,7.224.391,12.961,6.369,12.961,13.683h0Z" fill="#b3b7c4" opacity=".65"/><path d="M106.036,145.135c0,2.499-1.229,4.716-3.122,6.069-1.221.871-2.724,1.387-4.343,1.387-4.118,0-7.464-3.338-7.464-7.456s3.346-7.464,7.464-7.464c1.619,0,3.122.515,4.343,1.395,1.893,1.353,3.122,3.562,3.122,6.069h0Z" fill="#b3b7c4" opacity=".65"/></svg>