<?xml version="1.0" encoding="UTF-8"?><svg id="a" xmlns="http://www.w3.org/2000/svg" viewBox="0 0 260 260"><circle cx="130" cy="130" r="130" fill="#fff"/><g opacity=".85"><path d="M100.635,125.45l-2.411,52.27-26.645,8.664c-2.499.813-5.064-1.05-5.064-3.678v-96.148c0-2.591,1.718-4.868,4.21-5.579l27.499-7.845,2.411,52.315h0Z" fill="#babae2"/><polygon points="130.114 82.234 161.913 73.135 164.324 125.451 162.004 177.767 130.114 186.865 125.656 134.549 130.114 82.234" fill="#babae2"/><polygon points="130.114 82.234 98.224 73.135 98.224 177.721 130.114 186.865 130.114 82.234" fill="#a4a4d8"/><path d="M193.484,86.544v96.163c0,2.628-2.564,4.491-5.064,3.678l-26.508-8.619v-104.632l27.366,7.831c2.489.712,4.205,2.988,4.205,5.578h0Z" fill="#a4a4d8"/><path d="M102.91,125.45l-4.686,39.994-19.389,5.908c-1.657.505-3.33-.735-3.33-2.466v-74.989c0-1.402.942-2.628,2.296-2.989l20.423-5.452,4.686,39.994Z" fill="#ebebf7"/><polygon points="130.114 94.504 161.912 85.548 166.598 125.451 161.913 165.536 130.114 174.446 125.656 134.549 130.114 94.504" fill="#ebebf7"/><polygon points="130.113 94.504 130.113 174.446 98.224 165.445 98.224 85.457 130.113 94.504" fill="#d9d9ed"/><path d="M184.405,93.901v74.373c0,2.082-2.015,3.57-4.005,2.957l-18.488-5.695v-79.987l20.193,5.361c1.356.36,2.3,1.587,2.3,2.99h0Z" fill="#d9d9ed"/><circle cx="114.169" cy="118.228" r="12.291" fill="#e04b64"/><path d="M150.316,148.848c0,6.779-5.495,12.275-12.275,12.275-3.021,0-5.789-1.092-7.928-2.904l-1.544-9.189,1.544-9.553c2.139-1.812,4.906-2.904,7.928-2.904,6.779,0,12.275,5.495,12.275,12.275h0Z" fill="#ef9b3f"/><path d="M130.113,139.478v18.742c-2.659-2.25-4.348-5.613-4.348-9.371s1.689-7.121,4.348-9.371h0Z" fill="#e58d3d"/><path d="M161.912,96.793l4.053,16.738-4.053,15.316c-.289.015-.58.023-.873.023-8.864,0-16.05-7.186-16.05-16.05s7.186-16.05,16.05-16.05c.293,0,.584.008.873.023h0Z" fill="#00dc96"/><path d="M177.089,112.82c0,8.571-6.718,15.573-15.177,16.027v-32.054c8.459.454,15.177,7.456,15.177,16.027Z" fill="#00c688"/><path d="M98.224,140.694l1.351,7.74-1.351,6.475c-1.432,1.027-3.188,1.631-5.085,1.631-4.827,0-8.738-3.912-8.738-8.738s3.912-8.738,8.738-8.738c1.897,0,3.652.604,5.085,1.631h0Z" fill="#00dc96"/><path d="M101.878,147.801c0,2.93-1.442,5.523-3.654,7.107v-14.215c2.212,1.585,3.654,4.178,3.654,7.107h0Z" fill="#00c688"/></g></svg>