<?xml version="1.0" encoding="UTF-8"?><svg id="a" xmlns="http://www.w3.org/2000/svg" viewBox="0 0 1000 1000"><path d="M272.23,464.711l-18.7,405.44-206.673,67.207c-19.385,6.304-39.277-8.145-39.277-28.529V163.048c0-20.098,13.327-37.759,32.654-43.273l213.296-60.854,18.7,405.79Z" fill="#babae2"/><polygon points="500.883 129.496 747.534 58.923 766.236 464.715 748.24 870.507 500.883 941.079 466.303 535.287 500.883 129.496" fill="#babae2"/><polygon points="500.883 129.496 253.526 58.923 253.526 870.154 500.883 941.079 500.883 129.496" fill="#9a9ad8"/><path d="M992.42,162.93v745.902c0,20.383-19.891,34.832-39.276,28.53l-205.614-66.851V58.921l212.271,60.745c19.31,5.526,32.619,23.179,32.619,43.263Z" fill="#9a9ad8"/><path d="M289.87,464.711l-36.35,310.22-150.39,45.829c-12.85,3.916-25.83-5.698-25.83-19.131V219.965c0-10.871,7.307-20.384,17.81-23.188l158.41-42.286,36.35,310.22Z" fill="#ebebf7"/><polygon points="500.883 224.67 747.531 155.202 783.879 464.715 747.534 775.64 500.883 844.751 466.303 535.287 500.883 224.67" fill="#ebebf7"/><polygon points="500.88 224.675 500.88 844.751 253.527 774.936 253.527 154.494 500.88 224.675" fill="#d1d1ed"/><path d="M922,219.991v576.885c0,16.15-15.63,27.691-31.065,22.937l-143.405-44.171V155.211l156.628,41.583c10.519,2.793,17.842,12.313,17.842,23.196Z" fill="#d1d1ed"/><circle cx="377.204" cy="408.689" r="95.334" fill="#ce4159"/><path d="M657.582,646.2c0,52.584-42.626,95.21-95.21,95.21-23.436,0-44.901-8.469-61.492-22.524l-11.976-71.273,11.976-74.099c16.592-14.055,38.057-22.524,61.492-22.524,52.583,0,95.21,42.626,95.21,95.21Z" fill="#ef9b3f"/><path d="M500.88,573.514v145.372c-20.627-17.451-33.728-43.538-33.728-72.686s13.101-55.235,33.728-72.686Z" fill="#db7e3a"/><path d="M747.531,242.428l31.437,129.83-31.437,118.801c-2.243.115-4.496.178-6.771.178-68.756,0-124.494-55.738-124.494-124.494s55.738-124.494,124.494-124.494c2.274,0,4.528.063,6.771.178Z" fill="#00dc96"/><path d="M865.254,366.744c0,66.481-52.112,120.794-117.723,124.316v-248.632c65.611,3.522,117.723,57.835,117.723,124.316Z" fill="#00af79"/><path d="M253.527,582.947l10.481,60.039-10.481,50.222c-11.11,7.966-24.725,12.651-39.44,12.651-37.438,0-67.781-30.343-67.781-67.781s30.343-67.781,67.781-67.781c14.715,0,28.33,4.685,39.44,12.651Z" fill="#00dc96"/><path d="M281.867,638.077c0,22.723-11.183,42.836-28.341,55.13v-110.261c17.157,12.294,28.341,32.407,28.341,55.13Z" fill="#00af79"/></svg>