<?xml version="1.0" encoding="UTF-8"?><svg id="a" xmlns="http://www.w3.org/2000/svg" viewBox="0 0 260 260"><circle cx="130" cy="130" r="130" fill="#fff"/><path d="M120.22,67.389l-43.387,18.729c-4.445,1.992-6.904,7.024-6.904,12.121v60.263c0,6.996,2.523,12.98,8.581,15.67l42.911,18.683c5.536,2.454,11.631,2.454,17.162,0l42.911-23.322c6.058-2.685,8.581-4.034,8.581-11.03v-60.263c0-5.097-1.992-10.129-6.437-12.121l-43.853-18.729c-6.188-2.777-13.29-2.777-19.565,0Z" fill="#f3eef8"/><path d="M78.51,174.171c-6.058-2.685-8.581-8.674-8.581-15.67h120.146c0,6.996-2.523,8.646-8.581,11.331l-42.911,23.017c-5.536,2.454-11.631,2.454-17.162,0l-42.911-18.683v.005Z" fill="#b4acbc"/><path d="M69.929,98.733c0-5.032,5.199-8.387,9.783-6.317l42.13,19.034c4.963,2.241,8.156,7.186,8.156,12.634v61.899c0,5-5.134,8.355-9.713,6.349l-44.829-19.653c-3.359-1.474-5.531-4.797-5.531-8.466v-65.48h.005Z" fill="#b4acbc"/><path d="M190.076,98.825c0-5.032-5.199-8.387-9.787-6.317l-42.134,19.034c-4.963,2.241-8.156,7.186-8.156,12.634v61.899c0,5,5.134,8.355,9.713,6.349l44.829-19.653c3.359-1.474,5.531-4.797,5.531-8.466v-65.48h.005Z" fill="#e1d8ec"/><path d="M86.958,129.98c3.789-.305,6.497-4.709,6.021-9.792-.481-5.125-3.946-8.997-7.736-8.655-3.789.305-6.497,4.704-6.021,9.792.481,5.088,3.946,8.956,7.736,8.655ZM180.778,121.325c.481-5.088-2.232-9.492-6.021-9.792-3.789-.305-7.255,3.567-7.736,8.655s2.232,9.492,6.021,9.792c3.789.342,7.255-3.53,7.736-8.655ZM120.705,166.399c.476,5.088-2.232,9.492-6.021,9.792-3.789.305-7.255-3.567-7.736-8.655-.476-5.088,2.232-9.487,6.021-9.792,3.789-.342,7.255,3.53,7.736,8.655ZM160.894,134.638c3.789.305,6.497,4.709,6.021,9.792-.481,5.125-3.946,8.997-7.736,8.655-3.789-.305-6.497-4.709-6.021-9.792.481-5.088,3.946-8.956,7.736-8.655ZM153.052,167.535c.481-5.088-2.232-9.492-6.021-9.792-3.789-.305-7.255,3.567-7.736,8.655-.481,5.088,2.232,9.487,6.021,9.792,3.789.342,7.255-3.53,7.736-8.655Z" fill="#433b6b"/><path d="M130.002,90.72c7.657,0,13.863-2.07,13.863-4.621s-6.206-4.621-13.863-4.621-13.863,2.07-13.863,4.621,6.206,4.621,13.863,4.621Z" fill="#f8312f"/></svg>