<?xml version="1.0" encoding="UTF-8"?><svg id="a" xmlns="http://www.w3.org/2000/svg" viewBox="0 0 1499.739 322.119"><g id="b"><path d="M42.949,160.724v79.083c0,3.023-2.451,5.474-5.474,5.474H5.474c-3.023,0-5.474-2.451-5.474-5.474V5.474C0,2.451,2.451,0,5.474,0h91.498c49.325,0,81.201,32.212,81.201,80.194,0,47.312-32.212,80.529-81.201,80.529h-54.023ZM42.949,38.252v84.221h44.962c29.528,0,45.298-15.771,45.298-42.614s-16.106-41.606-44.627-41.606h-45.634,0Z" fill="#8a8aca"/><path d="M184.533,197.969c0-30.534,22.146-49.66,61.404-52.68l49.66-3.69v-3.691c0-22.481-13.422-31.541-34.225-31.541-21.948,0-35.033,8.308-37.245,22.911-.402,2.656-2.711,4.604-5.397,4.604h-24.098c-3.251,0-5.762-2.816-5.448-6.053,3.149-32.468,31.818-53.338,74.202-53.338,44.627,0,72.141,24.159,72.141,70.128v95.188c0,3.023-2.451,5.474-5.474,5.474h-25.589c-2.764,0-5.094-2.061-5.432-4.804l-2.428-19.69c-7.046,17.112-29.527,28.856-55.364,28.856-35.231,0-56.706-20.468-56.706-51.674h0ZM295.933,178.172v-8.724l-34.561,2.685c-25.501,2.349-35.232,10.737-35.232,24.158,0,15.1,10.066,22.481,28.521,22.481,25.166,0,41.271-15.1,41.271-40.601h.001Z" fill="#8a8aca"/><path d="M371.515,79.523h27.522c2.798,0,5.146,2.111,5.443,4.893l2.162,20.272c10.066-19.126,31.876-30.198,57.042-30.198,46.64,0,77.51,33.89,77.51,85.898,0,51.673-28.185,89.254-77.51,89.254-24.83,0-46.305-9.731-56.706-26.508v93.511c0,3.023-2.451,5.474-5.474,5.474h-29.989c-3.023,0-5.474-2.451-5.474-5.474V84.997c0-3.023,2.451-5.474,5.474-5.474h0ZM453.953,212.732c28.856,0,45.969-20.803,45.969-50.331s-17.113-50.666-45.969-50.666c-28.186,0-46.64,20.803-46.64,50.666s18.455,50.331,46.64,50.331Z" fill="#8a8aca"/><path d="M554.26,162.401c0-52.009,33.89-87.911,82.543-87.911,49.66,0,81.201,33.219,81.201,84.892v6.956c0,3.017-2.442,5.465-5.459,5.474l-119.362.321c3.02,29.191,18.455,43.955,45.634,43.955,20.846,0,35.056-7.5,40.758-21.164.844-2.024,2.835-3.33,5.028-3.33h27.111c3.675,0,6.28,3.544,5.242,7.069-9.421,31.986-38.418,50.979-78.81,50.979-49.325,0-83.886-35.903-83.886-87.241h0ZM594.189,145.96h83.214c0-22.816-15.771-37.916-40.265-37.916-24.159,0-38.923,13.086-42.949,37.916Z" fill="#8a8aca"/><path d="M845.155,111.295c0,3.023-2.451,5.474-5.474,5.474h-9.625c-29.527,0-47.982,15.77-47.982,47.982v75.056c0,3.023-2.451,5.474-5.474,5.474h-29.989c-3.023,0-5.474-2.451-5.474-5.474V85.332c0-3.023,2.451-5.474,5.474-5.474h28.147c2.818,0,5.175,2.139,5.448,4.944l1.868,19.215c7.046-16.441,22.816-27.515,44.962-27.515,4.418,0,8.836.403,13.721,1.364,2.558.503,4.398,2.763,4.398,5.37v28.058h0Z" fill="#8a8aca"/><path d="M863.256,239.807V84.997c0-3.023,2.451-5.474,5.474-5.474h27.497c2.664,0,4.941,1.918,5.394,4.544l2.572,14.917c8.389-13.757,25.165-24.494,48.989-24.494,25.165,0,42.613,12.415,51.337,31.541,8.389-19.126,27.851-31.541,53.016-31.541,40.265,0,62.411,24.159,62.411,62.41v102.906c0,3.023-2.451,5.474-5.474,5.474h-29.653c-3.023,0-5.474-2.451-5.474-5.474v-92.169c0-23.823-12.751-36.238-32.212-36.238-19.797,0-34.896,12.751-34.896,39.93v88.478c0,3.023-2.451,5.474-5.474,5.474h-29.988c-3.023,0-5.474-2.451-5.474-5.474v-92.504c0-23.152-12.415-35.567-31.877-35.567s-35.231,12.75-35.231,39.594v88.478c0,3.023-2.451,5.474-5.474,5.474h-29.989c-3.023,0-5.474-2.451-5.474-5.474h0Z" fill="#8a8aca"/><path d="M1143.078,197.969c0-30.534,22.146-49.66,61.404-52.68l49.66-3.69v-3.691c0-22.481-13.422-31.541-34.226-31.541-21.947,0-35.033,8.308-37.245,22.911-.402,2.656-2.711,4.604-5.397,4.604h-24.098c-3.251,0-5.762-2.816-5.448-6.052,3.149-32.468,31.817-53.338,74.202-53.338,44.627,0,72.142,24.159,72.142,70.128v95.188c0,3.023-2.451,5.474-5.474,5.474h-25.589c-2.764,0-5.094-2.061-5.432-4.804l-2.427-19.69c-7.047,17.112-29.528,28.856-55.364,28.856-35.232,0-56.707-20.468-56.707-51.674h-.001ZM1254.478,178.172v-8.724l-34.561,2.685c-25.501,2.349-35.231,10.737-35.231,24.158,0,15.1,10.066,22.481,28.521,22.481,25.166,0,41.271-15.1,41.271-40.601h0Z" fill="#8a8aca"/><path d="M1330.061,79.523h27.522c2.798,0,5.146,2.111,5.443,4.893l2.162,20.272c10.066-19.126,31.877-30.198,57.042-30.198,46.641,0,77.51,33.89,77.51,85.898,0,51.673-28.186,89.254-77.51,89.254-24.83,0-46.305-9.731-56.706-26.508v93.511c0,3.023-2.451,5.474-5.474,5.474h-29.989c-3.023,0-5.474-2.451-5.474-5.474V84.997c0-3.023,2.451-5.474,5.474-5.474h0ZM1412.499,212.732c28.856,0,45.969-20.803,45.969-50.331s-17.112-50.666-45.969-50.666c-28.186,0-46.641,20.803-46.641,50.666s18.455,50.331,46.641,50.331Z" fill="#8a8aca"/></g></svg>